RobotoFlexCondensed-Regular.ufo
<glyph name="exclam" format="2">
  <advance width="613"/>
  <unicode hex="0021"/>
  <outline>
    <contour>
      <point x="186.0" y="95.21333333333334" type="curve" smooth="yes"/>
      <point x="186" y="31"/>
      <point x="228" y="-22"/>
      <point x="306.4266666666667" y="-22.0" type="curve" smooth="yes"/>
      <point x="384" y="-22"/>
      <point x="427" y="31"/>
      <point x="426.85333333333335" y="95.21333333333334" type="curve" smooth="yes"/>
      <point x="427" y="160"/>
      <point x="384" y="212"/>
      <point x="306.4266666666667" y="212.42666666666668" type="curve" smooth="yes"/>
      <point x="228" y="212"/>
      <point x="186" y="160"/>
    </contour>
    <contour>
      <point x="227.10666666666665" y="408.2133333333333" type="line"/>
      <point x="384.85333333333335" y="408.2133333333333" type="line"/>
      <point x="398.96" y="1456.0" type="line"/>
      <point x="213.0" y="1456.0" type="line"/>
    </contour>
  </outline>
</glyph>
<glyph name="quotedbl" format="2">
  <advance width="748"/>
  <unicode hex="0022"/>
  <outline>
    <contour>
      <point x="114.10666666666667" y="974.04" type="line"/>
      <point x="259.64" y="974.04" type="line"/>
      <point x="274.64" y="1321.7866666666666" type="line"/>
      <point x="274.64" y="1456.0" type="line"/>
      <point x="100.0" y="1456.0" type="line"/>
      <point x="100.0" y="1321.7866666666666" type="line"/>
    </contour>
    <contour>
      <point x="488.74666666666667" y="974.04" type="line"/>
      <point x="633.3866666666667" y="974.04" type="line"/>
      <point x="648.3866666666667" y="1321.7866666666666" type="line"/>
      <point x="648.3866666666667" y="1456.0" type="line"/>
      <point x="474.64" y="1456.0" type="line"/>
      <point x="474.64" y="1321.7866666666666" type="line"/>
    </contour>
  </outline>
</glyph>
<glyph name="numbersign" format="2">
  <advance width="1462"/>
  <unicode hex="0023"/>
  <outline>
    <contour>
      <point x="241.90666666666667" y="-20.0" type="line"/>
      <point x="381.44" y="-20.0" type="line"/>
      <point x="788.96" y="1478.6666666666667" type="line"/>
      <point x="650.32" y="1478.6666666666667" type="line"/>
    </contour>
    <contour>
      <point x="670.1866666666667" y="-20.0" type="line"/>
      <point x="809.72" y="-20.0" type="line"/>
      <point x="1217.24" y="1478.6666666666667" type="line"/>
      <point x="1077.7066666666667" y="1478.6666666666667" type="line"/>
    </contour>
    <contour>
      <point x="106.88" y="405.7866666666667" type="line"/>
      <point x="1287.9733333333334" y="405.7866666666667" type="line"/>
      <point x="1287.9733333333334" y="540.2133333333334" type="line"/>
      <point x="106.88" y="540.2133333333334" type="line"/>
    </contour>
    <contour>
      <point x="171.28" y="918.4533333333334" type="line"/>
      <point x="1352.2666666666667" y="918.4533333333334" type="line"/>
      <point x="1352.2666666666667" y="1052.88" type="line"/>
      <point x="171.28" y="1052.88" type="line"/>
    </contour>
  </outline>
</glyph>
<glyph name="dollar" format="2">
  <advance width="1073"/>
  <unicode hex="0024"/>
  <outline>
    <contour>
      <point x="99.89" y="415.3" type="line" smooth="yes"/>
      <point x="100" y="147"/>
      <point x="276" y="1"/>
      <point x="547.2933333333333" y="0.8599999999999994" type="curve" smooth="yes"/>
      <point x="815" y="1"/>
      <point x="986" y="153"/>
      <point x="986.4833333333333" y="396.37" type="curve" smooth="yes"/>
      <point x="986" y="600"/>
      <point x="872" y="736"/>
      <point x="609.79" y="820.2533333333333" type="curve" smooth="yes"/>
      <point x="356" y="901"/>
      <point x="293" y="950"/>
      <point x="293.27666666666664" y="1086.9966666666667" type="curve" smooth="yes"/>
      <point x="293" y="1226"/>
      <point x="376" y="1301"/>
      <point x="539.08" y="1301.0333333333333" type="curve" smooth="yes"/>
      <point x="701" y="1301"/>
      <point x="784" y="1204"/>
      <point x="784.1633333333333" y="1047.4166666666667" type="curve" smooth="yes"/>
      <point x="784.1633333333333" y="1035.2733333333333" type="line"/>
      <point x="962.02" y="1035.2733333333333" type="line"/>
      <point x="962.02" y="1047.4166666666667" type="line" smooth="yes"/>
      <point x="962" y="1287"/>
      <point x="799" y="1456"/>
      <point x="538.1866666666667" y="1455.7133333333334" type="curve" smooth="yes"/>
      <point x="287" y="1456"/>
      <point x="117" y="1304"/>
      <point x="116.52666666666667" y="1074.49" type="curve" smooth="yes"/>
      <point x="117" y="857"/>
      <point x="258" y="740"/>
      <point x="496.62" y="667.7133333333334" type="curve" smooth="yes"/>
      <point x="756" y="590"/>
      <point x="811" y="517"/>
      <point x="810.6266666666667" y="396.37" type="curve" smooth="yes"/>
      <point x="811" y="246"/>
      <point x="720" y="156"/>
      <point x="547.2933333333333" y="155.68333333333334" type="curve" smooth="yes"/>
      <point x="377" y="156"/>
      <point x="278" y="234"/>
      <point x="277.74666666666667" y="415.3" type="curve" smooth="yes"/>
      <point x="277.74666666666667" y="427.4433333333333" type="line"/>
      <point x="99.89" y="427.4433333333333" type="line"/>
    </contour>
    <contour>
      <point x="475.8666666666667" y="-147.13333333333333" type="line"/>
      <point x="620.5066666666667" y="-147.13333333333333" type="line"/>
      <point x="620.5066666666667" y="92.86666666666667" type="line"/>
      <point x="611.08" y="102.86666666666667" type="line"/>
      <point x="611.08" y="123.36666666666667" type="line"/>
      <point x="475.8666666666667" y="123.36666666666667" type="line"/>
    </contour>
    <contour>
      <point x="485.29333333333335" y="1331.2" type="line"/>
      <point x="485.29333333333335" y="1351.7" type="line"/>
      <point x="475.8666666666667" y="1361.7" type="line"/>
      <point x="475.8666666666667" y="1608.8666666666666" type="line"/>
      <point x="620.5066666666667" y="1608.8666666666666" type="line"/>
      <point x="620.5066666666667" y="1331.2" type="line"/>
    </contour>
  </outline>
</glyph>
<glyph name="ampersand" format="2">
  <advance width="1133"/>
  <unicode hex="0026"/>
  <outline>
    <contour>
      <point x="80.0" y="380.0" type="curve" smooth="yes"/>
      <point x="81" y="152"/>
      <point x="233" y="-20"/>
      <point x="491.04" y="-20.0" type="curve" smooth="yes"/>
      <point x="796" y="-20"/>
      <point x="1028" y="280"/>
      <point x="1028.0" y="674.0" type="curve"/>
      <point x="862.2533333333333" y="674.0" type="line"/>
      <point x="862" y="331"/>
      <point x="694" y="128"/>
      <point x="491.04" y="128.42666666666668" type="curve" smooth="yes"/>
      <point x="348" y="128"/>
      <point x="257" y="230"/>
      <point x="256.85333333333335" y="380.0" type="curve" smooth="yes"/>
      <point x="257" y="527"/>
      <point x="336" y="621"/>
      <point x="492.82666666666665" y="738.2133333333334" type="curve" smooth="yes"/>
      <point x="628.7066666666667" y="840.8933333333333" type="line" smooth="yes"/>
      <point x="741" y="925"/>
      <point x="815" y="1020"/>
      <point x="814.8" y="1180.0" type="curve" smooth="yes"/>
      <point x="815" y="1364"/>
      <point x="696" y="1486"/>
      <point x="512.4666666666667" y="1486.0" type="curve" smooth="yes"/>
      <point x="329" y="1486"/>
      <point x="196" y="1357"/>
      <point x="195.70666666666668" y="1160.0" type="curve" smooth="yes"/>
      <point x="196" y="1026"/>
      <point x="260" y="919"/>
      <point x="385.3333333333333" y="740.8933333333333" type="curve" smooth="yes"/>
      <point x="905.36" y="0.0" type="line"/>
      <point x="1109.4933333333333" y="0.0" type="line"/>
      <point x="517.2933333333333" y="843.5733333333334" type="line" smooth="yes"/>
      <point x="404" y="1004"/>
      <point x="371" y="1066"/>
      <point x="371.4533333333333" y="1160.0" type="curve" smooth="yes"/>
      <point x="371" y="1266"/>
      <point x="423" y="1338"/>
      <point x="512.4666666666667" y="1337.5733333333333" type="curve" smooth="yes"/>
      <point x="605" y="1338"/>
      <point x="649" y="1276"/>
      <point x="649.0533333333333" y="1170.0" type="curve" smooth="yes"/>
      <point x="649" y="1087"/>
      <point x="627" y="1031"/>
      <point x="536.7466666666667" y="962.68" type="curve" smooth="yes"/>
      <point x="401.76" y="859.1066666666667" type="line" smooth="yes"/>
      <point x="231" y="727"/>
      <point x="79" y="593"/>
    </contour>
  </outline>
</glyph>
<glyph name="quotesingle" format="2">
  <advance width="394"/>
  <unicode hex="0027"/>
  <outline>
    <contour>
      <point x="124.10666666666667" y="974.04" type="line"/>
      <point x="268.74666666666667" y="974.04" type="line"/>
      <point x="293.74666666666667" y="1321.7866666666666" type="line"/>
      <point x="293.74666666666667" y="1456.0" type="line"/>
      <point x="100.0" y="1456.0" type="line"/>
      <point x="100.0" y="1321.7866666666666" type="line"/>
    </contour>
  </outline>
</glyph>
<glyph name="parenleft" format="2">
  <advance width="693"/>
  <unicode hex="0028"/>
  <outline>
    <contour>
      <point x="596.1066666666667" y="-436.0" type="curve"/>
      <point x="596.1066666666667" y="-278.3333333333333" type="line"/>
      <point x="444" y="-175"/>
      <point x="311" y="44"/>
      <point x="310.96" y="508.0" type="curve" smooth="yes"/>
      <point x="310.96" y="532.0" type="line" smooth="yes"/>
      <point x="311" y="998"/>
      <point x="444" y="1215"/>
      <point x="596.1066666666667" y="1318.3333333333333" type="curve"/>
      <point x="596.1066666666667" y="1476.0" type="line"/>
      <point x="338" y="1343"/>
      <point x="124" y="1054"/>
      <point x="124.0" y="525.0" type="curve" smooth="yes"/>
      <point x="124.0" y="515.0" type="line" smooth="yes"/>
      <point x="124" y="-11"/>
      <point x="338" y="-303"/>
    </contour>
  </outline>
</glyph>
<glyph name="parenright" format="2">
  <advance width="693"/>
  <unicode hex="0029"/>
  <outline>
    <contour>
      <point x="96.74666666666667" y="-436.0" type="line"/>
      <point x="353" y="-303"/>
      <point x="569" y="-11"/>
      <point x="568.8533333333334" y="515.0" type="curve" smooth="yes"/>
      <point x="568.8533333333334" y="525.0" type="line" smooth="yes"/>
      <point x="569" y="1054"/>
      <point x="353" y="1343"/>
      <point x="96.74666666666667" y="1476.0" type="curve"/>
      <point x="96.74666666666667" y="1318.3333333333333" type="line"/>
      <point x="249" y="1215"/>
      <point x="381" y="998"/>
      <point x="381.0" y="532.0" type="curve" smooth="yes"/>
      <point x="381.0" y="508.0" type="line" smooth="yes"/>
      <point x="381" y="44"/>
      <point x="249" y="-175"/>
      <point x="96.74666666666667" y="-278.3333333333333" type="curve"/>
    </contour>
  </outline>
</glyph>
<glyph name="asterisk" format="2">
  <advance width="992"/>
  <unicode hex="002A"/>
  <outline>
    <contour>
      <point x="58.0" y="1090.0533333333333" type="line"/>
      <point x="405.0133333333333" y="1014.56" type="line"/>
      <point x="168.70666666666668" y="750.5066666666667" type="line"/>
      <point x="316.4533333333333" y="642.08" type="line"/>
      <point x="496.2266666666667" y="948.56" type="line"/>
      <point x="676.0" y="642.08" type="line"/>
      <point x="824.64" y="750.5066666666667" type="line"/>
      <point x="587.44" y="1014.56" type="line"/>
      <point x="934.4533333333334" y="1090.0533333333333" type="line"/>
      <point x="878.1333333333333" y="1265.5866666666666" type="line"/>
      <point x="553.2266666666667" y="1122.7733333333333" type="line"/>
      <point x="587.6533333333333" y="1476.0" type="line"/>
      <point x="404.8" y="1476.0" type="line"/>
      <point x="440.12" y="1122.7733333333333" type="line"/>
      <point x="114.32" y="1265.5866666666666" type="line"/>
    </contour>
  </outline>
</glyph>
<glyph name="plus" format="2">
  <advance width="1154"/>
  <unicode hex="002B"/>
  <outline>
    <contour>
      <point x="145.44" y="593.68" type="line"/>
      <point x="1008.9866666666667" y="593.68" type="line"/>
      <point x="1008.9866666666667" y="754.1066666666667" type="line"/>
      <point x="145.44" y="754.1066666666667" type="line"/>
    </contour>
    <contour>
      <point x="490.78666666666663" y="170.13333333333333" type="line"/>
      <point x="663.64" y="170.13333333333333" type="line"/>
      <point x="663.64" y="1177.8666666666666" type="line"/>
      <point x="490.78666666666663" y="1177.8666666666666" type="line"/>
    </contour>
  </outline>
</glyph>
<glyph name="comma" format="2">
  <advance width="575"/>
  <unicode hex="002C"/>
  <outline>
    <contour>
      <point x="113.57333333333334" y="-214.42666666666668" type="curve"/>
      <point x="215.0" y="-285.64" type="line"/>
      <point x="317" y="-198"/>
      <point x="385" y="-77"/>
      <point x="384.64" y="68.21333333333334" type="curve" smooth="yes"/>
      <point x="384.64" y="216.42666666666668" type="line"/>
      <point x="210.0" y="216.42666666666668" type="line"/>
      <point x="210.0" y="68.21333333333334" type="line" smooth="yes"/>
      <point x="210" y="-50"/>
      <point x="175" y="-131"/>
    </contour>
  </outline>
</glyph>
<glyph name="hyphen" format="2">
  <advance width="580"/>
  <unicode hex="002D"/>
  <outline>
    <contour>
      <point x="42.13333333333333" y="546.68" type="line"/>
      <point x="538.24" y="546.68" type="line"/>
      <point x="538.24" y="714.2133333333334" type="line"/>
      <point x="42.13333333333333" y="714.2133333333334" type="line"/>
    </contour>
  </outline>
</glyph>
<glyph name="period" format="2">
  <advance width="571"/>
  <unicode hex="002E"/>
  <outline>
    <contour>
      <point x="160.0" y="101.21333333333334" type="curve" smooth="yes"/>
      <point x="160" y="33"/>
      <point x="205" y="-22"/>
      <point x="285.53333333333336" y="-22.0" type="curve" smooth="yes"/>
      <point x="368" y="-22"/>
      <point x="411" y="33"/>
      <point x="411.06666666666666" y="100.32" type="curve" smooth="yes"/>
      <point x="411" y="170"/>
      <point x="367" y="224"/>
      <point x="286.4266666666667" y="224.42666666666668" type="curve" smooth="yes"/>
      <point x="204" y="224"/>
      <point x="160" y="170"/>
    </contour>
  </outline>
</glyph>
<glyph name="slash" format="2">
  <advance width="491"/>
  <unicode hex="002F"/>
  <outline>
    <contour>
      <point x="-105.36" y="-125.0" type="line"/>
      <point x="72.42666666666666" y="-125.0" type="line"/>
      <point x="596.4533333333334" y="1456.0" type="line"/>
      <point x="418.6666666666667" y="1456.0" type="line"/>
    </contour>
  </outline>
</glyph>
<glyph name="zero" format="2">
  <advance width="1051"/>
  <unicode hex="0030"/>
  <outline>
    <contour>
      <point x="117.14666666666666" y="410.8666666666667" type="line" smooth="yes"/>
      <point x="117" y="151"/>
      <point x="268" y="-30"/>
      <point x="525.2933333333333" y="-30.0" type="curve" smooth="yes"/>
      <point x="780" y="-30"/>
      <point x="933" y="151"/>
      <point x="933.44" y="410.8666666666667" type="curve" smooth="yes"/>
      <point x="933.44" y="1045.1333333333334" type="line" smooth="yes"/>
      <point x="933" y="1308"/>
      <point x="780" y="1486"/>
      <point x="525.2933333333333" y="1486.0" type="curve" smooth="yes"/>
      <point x="268" y="1486"/>
      <point x="117" y="1308"/>
      <point x="117.14666666666666" y="1045.1333333333334" type="curve" smooth="yes"/>
    </contour>
    <contour>
      <point x="304.0" y="400.8666666666667" type="curve" smooth="yes"/>
      <point x="304.0" y="1055.1333333333334" type="line" smooth="yes"/>
      <point x="304" y="1213"/>
      <point x="374" y="1332"/>
      <point x="525.2933333333333" y="1332.4666666666667" type="curve" smooth="yes"/>
      <point x="677" y="1332"/>
      <point x="747" y="1213"/>
      <point x="746.5866666666667" y="1055.1333333333334" type="curve" smooth="yes"/>
      <point x="746.5866666666667" y="400.8666666666667" type="line" smooth="yes"/>
      <point x="747" y="246"/>
      <point x="677" y="124"/>
      <point x="525.2933333333333" y="123.53333333333333" type="curve" smooth="yes"/>
      <point x="374" y="124"/>
      <point x="304" y="246"/>
    </contour>
  </outline>
</glyph>
<glyph name="one" format="2">
  <advance width="1051"/>
  <unicode hex="0031"/>
  <outline>
    <contour>
      <point x="489.97333333333336" y="0.0" type="line"/>
      <point x="674.8266666666667" y="0.0" type="line"/>
      <point x="674.8266666666667" y="1476.0" type="line"/>
      <point x="648.4" y="1476.0" type="line"/>
      <point x="184.50666666666666" y="1291.1866666666667" type="line"/>
      <point x="184.50666666666666" y="1110.5466666666666" type="line"/>
      <point x="489.97333333333336" y="1239.64" type="line"/>
    </contour>
  </outline>
</glyph>
<glyph name="two" format="2">
  <advance width="1051"/>
  <unicode hex="0032"/>
  <outline>
    <contour>
      <point x="117.14666666666666" y="0.0" type="line"/>
      <point x="954.76" y="0.0" type="line"/>
      <point x="954.76" y="152.6" type="line"/>
      <point x="321.2" y="152.6" type="line"/>
      <point x="696.9333333333334" y="651.28" type="line" smooth="yes"/>
      <point x="837" y="836"/>
      <point x="920" y="950"/>
      <point x="920.12" y="1112.3333333333333" type="curve" smooth="yes"/>
      <point x="920" y="1328"/>
      <point x="766" y="1486"/>
      <point x="532.2933333333333" y="1486.0" type="curve" smooth="yes"/>
      <point x="298" y="1486"/>
      <point x="117" y="1315"/>
      <point x="117.14666666666666" y="1030.0" type="curve" smooth="yes"/>
      <point x="117.14666666666666" y="1020.0" type="line"/>
      <point x="300.0" y="1020.0" type="line"/>
      <point x="300.0" y="1030.0" type="line" smooth="yes"/>
      <point x="300" y="1238"/>
      <point x="401" y="1332"/>
      <point x="532.2933333333333" y="1332.4666666666667" type="curve" smooth="yes"/>
      <point x="662" y="1332"/>
      <point x="737" y="1239"/>
      <point x="737.2666666666667" y="1102.3333333333333" type="curve" smooth="yes"/>
      <point x="737" y="977"/>
      <point x="682" y="887"/>
      <point x="571.04" y="745.56" type="curve" smooth="yes"/>
      <point x="117.14666666666666" y="136.42666666666668" type="line"/>
    </contour>
  </outline>
</glyph>
<glyph name="three" format="2">
  <advance width="1051"/>
  <unicode hex="0033"/>
  <outline>
    <contour>
      <point x="87.14666666666666" y="380.0" type="line" smooth="yes"/>
      <point x="87" y="139"/>
      <point x="261" y="-30"/>
      <point x="504.4" y="-30.0" type="curve" smooth="yes"/>
      <point x="750" y="-30"/>
      <point x="928" y="132"/>
      <point x="927.6533333333333" y="401.0" type="curve" smooth="yes"/>
      <point x="928" y="587"/>
      <point x="832" y="719"/>
      <point x="681.8133333333333" y="762.0" type="curve"/>
      <point x="681.8133333333333" y="766.0" type="line"/>
      <point x="819" y="833"/>
      <point x="881" y="966"/>
      <point x="881.0133333333333" y="1100.0" type="curve" smooth="yes"/>
      <point x="881" y="1328"/>
      <point x="727" y="1486"/>
      <point x="504.4" y="1486.0" type="curve" smooth="yes"/>
      <point x="284" y="1486"/>
      <point x="123" y="1314"/>
      <point x="122.68" y="1100.0" type="curve" smooth="yes"/>
      <point x="122.68" y="1090.0" type="line"/>
      <point x="301.53333333333336" y="1090.0" type="line"/>
      <point x="301.53333333333336" y="1100.0" type="line" smooth="yes"/>
      <point x="302" y="1250"/>
      <point x="387" y="1332"/>
      <point x="504.4" y="1332.4666666666667" type="curve" smooth="yes"/>
      <point x="623" y="1332"/>
      <point x="696" y="1253"/>
      <point x="696.16" y="1090.8933333333334" type="curve" smooth="yes"/>
      <point x="696" y="928"/>
      <point x="613" y="834"/>
      <point x="461.76" y="834.2133333333334" type="curve" smooth="yes"/>
      <point x="368.37333333333333" y="834.2133333333334" type="line"/>
      <point x="368.37333333333333" y="683.7866666666666" type="line"/>
      <point x="470.8666666666667" y="683.7866666666666" type="line" smooth="yes"/>
      <point x="636" y="684"/>
      <point x="741" y="589"/>
      <point x="740.8" y="400.0" type="curve" smooth="yes"/>
      <point x="741" y="210"/>
      <point x="649" y="124"/>
      <point x="504.4" y="123.53333333333333" type="curve" smooth="yes"/>
      <point x="360" y="124"/>
      <point x="266" y="217"/>
      <point x="266.0" y="380.0" type="curve" smooth="yes"/>
      <point x="266.0" y="390.0" type="line"/>
      <point x="87.14666666666666" y="390.0" type="line"/>
    </contour>
  </outline>
</glyph>
<glyph name="four" format="2">
  <advance width="1051"/>
  <unicode hex="0034"/>
  <outline>
    <contour>
      <point x="631.0933333333334" y="0.0" type="line"/>
      <point x="803.9466666666667" y="0.0" type="line"/>
      <point x="803.9466666666667" y="1456.0" type="line"/>
      <point x="657.8533333333334" y="1456.0" type="line"/>
      <point x="55.36" y="466.2133333333333" type="line"/>
      <point x="55.36" y="343.7866666666667" type="line"/>
      <point x="985.6133333333333" y="343.7866666666667" type="line"/>
      <point x="985.6133333333333" y="496.4266666666667" type="line"/>
      <point x="759.9866666666667" y="496.4266666666667" type="line"/>
      <point x="694.6" y="496.4266666666667" type="line"/>
      <point x="255.6" y="496.4266666666667" type="line"/>
      <point x="619.0933333333334" y="1094.5066666666667" type="line"/>
      <point x="631.0933333333334" y="1094.5066666666667" type="line"/>
      <point x="631.0933333333334" y="448.2133333333333" type="line"/>
      <point x="631.0933333333334" y="398.0" type="line"/>
    </contour>
  </outline>
</glyph>
<glyph name="five" format="2">
  <advance width="1051"/>
  <unicode hex="0035"/>
  <outline>
    <contour>
      <point x="107.14666666666666" y="365.0" type="line" smooth="yes"/>
      <point x="107" y="137"/>
      <point x="274" y="-30"/>
      <point x="517.2933333333333" y="-30.0" type="curve" smooth="yes"/>
      <point x="764" y="-30"/>
      <point x="942" y="157"/>
      <point x="941.6533333333333" y="465.0" type="curve" smooth="yes"/>
      <point x="942" y="772"/>
      <point x="766" y="950"/>
      <point x="542.8266666666667" y="950.2133333333334" type="curve" smooth="yes"/>
      <point x="460" y="950"/>
      <point x="390" y="925"/>
      <point x="331.53333333333336" y="886.72" type="curve"/>
      <point x="374.64" y="1291.36" type="line"/>
      <point x="875.48" y="1291.36" type="line"/>
      <point x="875.48" y="1456.0" type="line"/>
      <point x="224.0" y="1456.0" type="line"/>
      <point x="151.78666666666666" y="730.0" type="line"/>
      <point x="268.6" y="675.1466666666666" type="line"/>
      <point x="333" y="748"/>
      <point x="413" y="796"/>
      <point x="518.1866666666667" y="795.68" type="curve" smooth="yes"/>
      <point x="660" y="796"/>
      <point x="759" y="681"/>
      <point x="758.8" y="465.0" type="curve" smooth="yes"/>
      <point x="759" y="248"/>
      <point x="660" y="124"/>
      <point x="517.2933333333333" y="123.53333333333333" type="curve" smooth="yes"/>
      <point x="375" y="124"/>
      <point x="284" y="215"/>
      <point x="284.0" y="365.0" type="curve" smooth="yes"/>
      <point x="284.0" y="375.0" type="line"/>
      <point x="107.14666666666666" y="375.0" type="line"/>
    </contour>
  </outline>
</glyph>
<glyph name="six" format="2">
  <advance width="1051"/>
  <unicode hex="0036"/>
  <outline>
    <contour>
      <point x="95.14666666666666" y="614.0" type="line" smooth="yes"/>
      <point x="95" y="158"/>
      <point x="297" y="-30"/>
      <point x="542.8266666666667" y="-30.0" type="curve" smooth="yes"/>
      <point x="788" y="-30"/>
      <point x="966" y="169"/>
      <point x="966.08" y="464.0" type="curve" smooth="yes"/>
      <point x="966" y="758"/>
      <point x="811" y="954"/>
      <point x="576.5733333333334" y="954.2133333333334" type="curve" smooth="yes"/>
      <point x="350" y="954"/>
      <point x="203" y="758"/>
      <point x="202.68" y="464.0" type="curve"/>
      <point x="270.0" y="464.0" type="line"/>
      <point x="270" y="678"/>
      <point x="399" y="801"/>
      <point x="542.8266666666667" y="800.68" type="curve" smooth="yes"/>
      <point x="696" y="801"/>
      <point x="783" y="680"/>
      <point x="783.2266666666667" y="464.0" type="curve" smooth="yes"/>
      <point x="783" y="247"/>
      <point x="696" y="124"/>
      <point x="542.8266666666667" y="123.53333333333333" type="curve" smooth="yes"/>
      <point x="389" y="124"/>
      <point x="276" y="252"/>
      <point x="276.0" y="604.0" type="curve" smooth="yes"/>
      <point x="276.0" y="654.0" type="line" smooth="yes"/>
      <point x="276" y="1123"/>
      <point x="470" y="1332"/>
      <point x="786.2" y="1332.4666666666667" type="curve" smooth="yes"/>
      <point x="803.52" y="1332.4666666666667" type="line"/>
      <point x="803.52" y="1486.0" type="line"/>
      <point x="786.2" y="1486.0" type="line" smooth="yes"/>
      <point x="343" y="1486"/>
      <point x="95" y="1153"/>
      <point x="95.14666666666666" y="644.0" type="curve" smooth="yes"/>
    </contour>
  </outline>
</glyph>
<glyph name="seven" format="2">
  <advance width="1051"/>
  <unicode hex="0037"/>
  <outline>
    <contour>
      <point x="249.33333333333334" y="0.0" type="line"/>
      <point x="438.18666666666667" y="0.0" type="line"/>
      <point x="939.44" y="1353.7866666666666" type="line"/>
      <point x="939.44" y="1456.0" type="line"/>
      <point x="83.36" y="1456.0" type="line"/>
      <point x="83.36" y="1303.04" type="line"/>
      <point x="750.16" y="1303.04" type="line"/>
    </contour>
  </outline>
</glyph>
<glyph name="eight" format="2">
  <advance width="1035"/>
  <unicode hex="0038"/>
  <outline>
    <contour>
      <point x="103.39666666666666" y="386.0" type="curve" smooth="yes"/>
      <point x="103" y="121"/>
      <point x="279" y="-30"/>
      <point x="517.4" y="-30.0" type="curve" smooth="yes"/>
      <point x="755" y="-30"/>
      <point x="931" y="121"/>
      <point x="931.44" y="386.0" type="curve" smooth="yes"/>
      <point x="931" y="560"/>
      <point x="844" y="681"/>
      <point x="707.8133333333333" y="742.57" type="curve"/>
      <point x="707.8133333333333" y="746.57" type="line"/>
      <point x="811" y="807"/>
      <point x="891" y="927"/>
      <point x="890.8" y="1087.0" type="curve" smooth="yes"/>
      <point x="891" y="1328"/>
      <point x="732" y="1486"/>
      <point x="517.4" y="1486.0" type="curve" smooth="yes"/>
      <point x="303" y="1486"/>
      <point x="144" y="1328"/>
      <point x="144.03666666666666" y="1087.0" type="curve" smooth="yes"/>
      <point x="144" y="927"/>
      <point x="222" y="807"/>
      <point x="326.88" y="746.57" type="curve"/>
      <point x="326.88" y="742.57" type="line"/>
      <point x="191" y="681"/>
      <point x="103" y="559"/>
    </contour>
    <contour>
      <point x="284.25" y="395.1066666666667" type="curve" smooth="yes"/>
      <point x="284" y="558"/>
      <point x="370" y="668"/>
      <point x="517.4" y="667.7866666666666" type="curve" smooth="yes"/>
      <point x="664" y="668"/>
      <point x="750" y="558"/>
      <point x="749.6933333333334" y="395.1066666666667" type="curve" smooth="yes"/>
      <point x="750" y="233"/>
      <point x="664" y="124"/>
      <point x="517.4" y="123.53333333333333" type="curve" smooth="yes"/>
      <point x="370" y="124"/>
      <point x="284" y="233"/>
    </contour>
    <contour>
      <point x="320.89" y="1077.8933333333334" type="curve" smooth="yes"/>
      <point x="321" y="1228"/>
      <point x="393" y="1332"/>
      <point x="517.4" y="1332.4666666666667" type="curve" smooth="yes"/>
      <point x="641" y="1332"/>
      <point x="714" y="1228"/>
      <point x="713.9466666666667" y="1077.8933333333334" type="curve" smooth="yes"/>
      <point x="714" y="928"/>
      <point x="641" y="822"/>
      <point x="517.4" y="822.2133333333334" type="curve" smooth="yes"/>
      <point x="393" y="822"/>
      <point x="321" y="928"/>
    </contour>
  </outline>
</glyph>
<glyph name="nine" format="2">
  <advance width="1051"/>
  <unicode hex="0039"/>
  <outline>
    <contour>
      <point x="84.50666666666666" y="1002.0" type="curve" smooth="yes"/>
      <point x="85" y="714"/>
      <point x="241" y="522"/>
      <point x="474.0133333333333" y="521.7866666666666" type="curve" smooth="yes"/>
      <point x="700" y="522"/>
      <point x="849" y="714"/>
      <point x="848.8" y="1002.0" type="curve"/>
      <point x="780.5866666666667" y="1002.0" type="line"/>
      <point x="781" y="793"/>
      <point x="652" y="675"/>
      <point x="507.76" y="675.32" type="curve" smooth="yes"/>
      <point x="355" y="675"/>
      <point x="268" y="793"/>
      <point x="268.25333333333333" y="1002.0" type="curve" smooth="yes"/>
      <point x="268" y="1212"/>
      <point x="355" y="1332"/>
      <point x="507.76" y="1332.4666666666667" type="curve" smooth="yes"/>
      <point x="662" y="1332"/>
      <point x="775" y="1204"/>
      <point x="774.5866666666667" y="852.0" type="curve" smooth="yes"/>
      <point x="774.5866666666667" y="802.0" type="line" smooth="yes"/>
      <point x="775" y="333"/>
      <point x="581" y="124"/>
      <point x="264.38666666666666" y="123.53333333333333" type="curve" smooth="yes"/>
      <point x="247.06666666666666" y="123.53333333333333" type="line"/>
      <point x="247.06666666666666" y="-30.0" type="line"/>
      <point x="264.38666666666666" y="-30.0" type="line" smooth="yes"/>
      <point x="708" y="-30"/>
      <point x="955" y="303"/>
      <point x="955.44" y="812.0" type="curve" smooth="yes"/>
      <point x="955.44" y="842.0" type="line" smooth="yes"/>
      <point x="955" y="1298"/>
      <point x="754" y="1486"/>
      <point x="507.76" y="1486.0" type="curve" smooth="yes"/>
      <point x="262" y="1486"/>
      <point x="85" y="1291"/>
    </contour>
  </outline>
</glyph>
<glyph name="colon" format="2">
  <advance width="593"/>
  <unicode hex="003A"/>
  <outline>
    <contour>
      <point x="176.0" y="95.21333333333334" type="curve" smooth="yes"/>
      <point x="176" y="31"/>
      <point x="218" y="-22"/>
      <point x="296.4266666666667" y="-22.0" type="curve" smooth="yes"/>
      <point x="374" y="-22"/>
      <point x="417" y="31"/>
      <point x="416.85333333333335" y="95.21333333333334" type="curve" smooth="yes"/>
      <point x="417" y="160"/>
      <point x="374" y="212"/>
      <point x="296.4266666666667" y="212.42666666666668" type="curve" smooth="yes"/>
      <point x="218" y="212"/>
      <point x="176" y="160"/>
    </contour>
    <contour>
      <point x="176.0" y="950.7866666666666" type="curve" smooth="yes"/>
      <point x="176" y="886"/>
      <point x="218" y="834"/>
      <point x="296.4266666666667" y="833.5733333333334" type="curve" smooth="yes"/>
      <point x="374" y="834"/>
      <point x="417" y="886"/>
      <point x="416.85333333333335" y="950.7866666666666" type="curve" smooth="yes"/>
      <point x="417" y="1015"/>
      <point x="374" y="1068"/>
      <point x="296.4266666666667" y="1068.0" type="curve" smooth="yes"/>
      <point x="218" y="1068"/>
      <point x="176" y="1015"/>
    </contour>
  </outline>
</glyph>
<glyph name="semicolon" format="2">
  <advance width="593"/>
  <unicode hex="003B"/>
  <outline>
    <contour>
      <point x="122.68" y="-214.42666666666668" type="curve"/>
      <point x="224.10666666666665" y="-285.64" type="line"/>
      <point x="328" y="-197"/>
      <point x="394" y="-77"/>
      <point x="393.74666666666667" y="69.10666666666667" type="curve" smooth="yes"/>
      <point x="393.74666666666667" y="216.42666666666668" type="line"/>
      <point x="220.0" y="216.42666666666668" type="line"/>
      <point x="220.0" y="68.21333333333334" type="line" smooth="yes"/>
      <point x="220" y="-50"/>
      <point x="185" y="-131"/>
    </contour>
    <contour>
      <point x="176.0" y="950.7866666666666" type="curve" smooth="yes"/>
      <point x="176" y="886"/>
      <point x="218" y="834"/>
      <point x="296.4266666666667" y="833.5733333333334" type="curve" smooth="yes"/>
      <point x="374" y="834"/>
      <point x="417" y="886"/>
      <point x="416.85333333333335" y="950.7866666666666" type="curve" smooth="yes"/>
      <point x="417" y="1015"/>
      <point x="374" y="1068"/>
      <point x="296.4266666666667" y="1068.0" type="curve" smooth="yes"/>
      <point x="218" y="1068"/>
      <point x="176" y="1015"/>
    </contour>
  </outline>
</glyph>
<glyph name="less" format="2">
  <advance width="1063"/>
  <unicode hex="003C"/>
  <outline>
    <contour>
      <point x="891.2" y="223.68" type="line"/>
      <point x="891.2" y="408.81333333333333" type="line"/>
      <point x="355.26666666666665" y="674.32" type="line"/>
      <point x="891.2" y="939.8266666666667" type="line"/>
      <point x="891.2" y="1123.8933333333334" type="line"/>
      <point x="164.32" y="744.0" type="line"/>
      <point x="164.32" y="603.5733333333334" type="line"/>
    </contour>
  </outline>
</glyph>
<glyph name="equal" format="2">
  <advance width="1058"/>
  <unicode hex="003D"/>
  <outline>
    <contour>
      <point x="145.44" y="391.72" type="line"/>
      <point x="912.5066666666667" y="391.72" type="line"/>
      <point x="912.5066666666667" y="551.7866666666666" type="line"/>
      <point x="145.44" y="551.7866666666666" type="line"/>
    </contour>
    <contour>
      <point x="145.44" y="793.8666666666667" type="line"/>
      <point x="912.5066666666667" y="793.8666666666667" type="line"/>
      <point x="912.5066666666667" y="953.9333333333333" type="line"/>
      <point x="145.44" y="953.9333333333333" type="line"/>
    </contour>
  </outline>
</glyph>
<glyph name="greater" format="2">
  <advance width="1063"/>
  <unicode hex="003E"/>
  <outline>
    <contour>
      <point x="172.10666666666668" y="223.68" type="line"/>
      <point x="898.9866666666667" y="603.5733333333334" type="line"/>
      <point x="898.9866666666667" y="744.0" type="line"/>
      <point x="172.10666666666668" y="1123.8933333333334" type="line"/>
      <point x="172.10666666666668" y="938.76" type="line"/>
      <point x="708.04" y="673.2533333333333" type="line"/>
      <point x="172.10666666666668" y="407.74666666666667" type="line"/>
    </contour>
  </outline>
</glyph>
<glyph name="question" format="2">
  <advance width="954"/>
  <unicode hex="003F"/>
  <outline>
    <contour>
      <point x="316.4266666666667" y="95.21333333333334" type="curve" smooth="yes"/>
      <point x="316" y="31"/>
      <point x="359" y="-22"/>
      <point x="436.85333333333335" y="-22.0" type="curve" smooth="yes"/>
      <point x="515" y="-22"/>
      <point x="556" y="31"/>
      <point x="556.3866666666667" y="95.21333333333334" type="curve" smooth="yes"/>
      <point x="556" y="160"/>
      <point x="514" y="212"/>
      <point x="435.96" y="212.42666666666668" type="curve" smooth="yes"/>
      <point x="359" y="212"/>
      <point x="316" y="160"/>
    </contour>
    <contour>
      <point x="102.88" y="1095.0" type="line"/>
      <point x="280.73333333333335" y="1095.0" type="line"/>
      <point x="280.73333333333335" y="1115.0" type="line" smooth="yes"/>
      <point x="281" y="1251"/>
      <point x="343" y="1318"/>
      <point x="460.17333333333335" y="1318.4666666666667" type="curve" smooth="yes"/>
      <point x="578" y="1318"/>
      <point x="634" y="1243"/>
      <point x="633.5066666666667" y="1101.7866666666666" type="curve" smooth="yes"/>
      <point x="634" y="967"/>
      <point x="573" y="892"/>
      <point x="476.9866666666667" y="785.68" type="curve" smooth="yes"/>
      <point x="358" y="653"/>
      <point x="338" y="585"/>
      <point x="338.4266666666667" y="420.0" type="curve" smooth="yes"/>
      <point x="338.4266666666667" y="410.0" type="line"/>
      <point x="517.28" y="410.0" type="line"/>
      <point x="517.28" y="420.0" type="line" smooth="yes"/>
      <point x="517" y="511"/>
      <point x="522" y="597"/>
      <point x="616.48" y="694.0" type="curve" smooth="yes"/>
      <point x="702" y="781"/>
      <point x="812" y="919"/>
      <point x="812.36" y="1101.7866666666666" type="curve" smooth="yes"/>
      <point x="812" y="1337"/>
      <point x="682" y="1476"/>
      <point x="460.17333333333335" y="1476.0" type="curve" smooth="yes"/>
      <point x="238" y="1476"/>
      <point x="103" y="1344"/>
      <point x="102.88" y="1115.0" type="curve" smooth="yes"/>
    </contour>
  </outline>
</glyph>
<glyph name="at" format="2">
  <advance width="1887"/>
  <unicode hex="0040"/>
  <outline>
    <contour>
      <point x="549.7866666666666" y="400.0" type="curve" smooth="yes"/>
      <point x="550" y="159"/>
      <point x="656" y="0"/>
      <point x="825.3066666666666" y="0.0" type="curve" smooth="yes"/>
      <point x="921" y="0"/>
      <point x="1004" y="73"/>
      <point x="1061.3600000000001" y="180.0" type="curve"/>
      <point x="1109" y="73"/>
      <point x="1215" y="0"/>
      <point x="1352.9466666666667" y="0.0" type="curve" smooth="yes"/>
      <point x="1589" y="0"/>
      <point x="1773" y="261"/>
      <point x="1772.6666666666667" y="650.0" type="curve" smooth="yes"/>
      <point x="1773" y="1119"/>
      <point x="1456" y="1486"/>
      <point x="982.9733333333334" y="1486.0" type="curve" smooth="yes"/>
      <point x="510" y="1486"/>
      <point x="114" y="1023"/>
      <point x="114.0" y="460.0" type="curve" smooth="yes"/>
      <point x="114" y="-103"/>
      <point x="468" y="-446"/>
      <point x="894.5866666666667" y="-446.0" type="curve" smooth="yes"/>
      <point x="1061" y="-446"/>
      <point x="1166" y="-415"/>
      <point x="1249.92" y="-356.0" type="curve"/>
      <point x="1249.92" y="-204.46666666666667" type="line"/>
      <point x="1171" y="-253"/>
      <point x="1061" y="-294"/>
      <point x="894.5866666666667" y="-294.46666666666664" type="curve" smooth="yes"/>
      <point x="549" y="-294"/>
      <point x="293" y="-25"/>
      <point x="292.85333333333335" y="460.0" type="curve" smooth="yes"/>
      <point x="293" y="945"/>
      <point x="590" y="1334"/>
      <point x="982.9733333333334" y="1334.4666666666667" type="curve" smooth="yes"/>
      <point x="1375" y="1334"/>
      <point x="1599" y="1014"/>
      <point x="1598.92" y="650.0" type="curve" smooth="yes"/>
      <point x="1599" y="339"/>
      <point x="1494" y="132"/>
      <point x="1340.9866666666667" y="132.42666666666668" type="curve" smooth="yes"/>
      <point x="1255" y="132"/>
      <point x="1198" y="187"/>
      <point x="1227.7866666666666" y="350.0" type="curve" smooth="yes"/>
      <point x="1334.3866666666668" y="946.0" type="line"/>
      <point x="1238.1333333333332" y="946.0" type="line"/>
      <point x="1181" y="997"/>
      <point x="1089" y="1052"/>
      <point x="985.6533333333333" y="1052.0" type="curve" smooth="yes"/>
      <point x="755" y="1052"/>
      <point x="550" y="775"/>
    </contour>
    <contour>
      <point x="732.64" y="400.0" type="curve" smooth="yes"/>
      <point x="733" y="697"/>
      <point x="849" y="916"/>
      <point x="1010.2933333333333" y="915.5733333333334" type="curve" smooth="yes"/>
      <point x="1058" y="916"/>
      <point x="1109" y="901"/>
      <point x="1144.2133333333334" y="872.68" type="curve"/>
      <point x="1054.04" y="390.0" type="line" smooth="yes"/>
      <point x="1020" y="213"/>
      <point x="950" y="152"/>
      <point x="867.2666666666667" y="151.53333333333333" type="curve" smooth="yes"/>
      <point x="780" y="152"/>
      <point x="733" y="237"/>
    </contour>
  </outline>
</glyph>
<glyph name="A" format="2">
  <advance width="1108"/>
  <unicode hex="0041"/>
  <outline>
    <contour>
      <point x="0.0" y="0.0" type="line"/>
      <point x="181.28" y="0.0" type="line"/>
      <point x="515.6" y="1107.1466666666668" type="line" smooth="yes"/>
      <point x="529" y="1153"/>
      <point x="540" y="1192"/>
      <point x="548.1333333333333" y="1235.1466666666668" type="curve"/>
      <point x="556.3466666666667" y="1235.1466666666668" type="line"/>
      <point x="565" y="1192"/>
      <point x="575" y="1153"/>
      <point x="587.0933333333334" y="1107.1466666666668" type="curve" smooth="yes"/>
      <point x="919.2" y="0.0" type="line"/>
      <point x="1107.5866666666666" y="0.0" type="line"/>
      <point x="649.1733333333333" y="1466.0" type="line"/>
      <point x="457.52" y="1466.0" type="line"/>
    </contour>
    <contour>
      <point x="207.62666666666667" y="381.7866666666667" type="line"/>
      <point x="255.01333333333332" y="536.2133333333334" type="line"/>
      <point x="849.6800000000001" y="536.2133333333334" type="line"/>
      <point x="896.0666666666666" y="381.7866666666667" type="line"/>
    </contour>
  </outline>
</glyph>
<glyph name="B" format="2">
  <advance width="1139"/>
  <unicode hex="0042"/>
  <outline>
    <contour>
      <point x="170.0" y="0.0" type="line"/>
      <point x="610.32" y="0.0" type="line" smooth="yes"/>
      <point x="870" y="0"/>
      <point x="1039" y="153"/>
      <point x="1038.5066666666667" y="418.2133333333333" type="curve" smooth="yes"/>
      <point x="1039" y="608"/>
      <point x="947" y="725"/>
      <point x="811.7333333333333" y="764.0" type="curve"/>
      <point x="811.7333333333333" y="768.0" type="line"/>
      <point x="920" y="806"/>
      <point x="1001" y="909"/>
      <point x="1000.5066666666667" y="1070.8933333333334" type="curve" smooth="yes"/>
      <point x="1001" y="1338"/>
      <point x="843" y="1456"/>
      <point x="580.32" y="1456.0" type="curve" smooth="yes"/>
      <point x="170.0" y="1456.0" type="line"/>
    </contour>
    <contour>
      <point x="350.85333333333335" y="153.53333333333333" type="line"/>
      <point x="350.85333333333335" y="681.7866666666666" type="line"/>
      <point x="610.32" y="681.7866666666666" type="line" smooth="yes"/>
      <point x="780" y="682"/>
      <point x="856" y="581"/>
      <point x="855.6533333333333" y="419.1066666666667" type="curve" smooth="yes"/>
      <point x="856" y="256"/>
      <point x="780" y="154"/>
      <point x="610.32" y="153.53333333333333" type="curve" smooth="yes"/>
    </contour>
    <contour>
      <point x="350.85333333333335" y="834.2133333333334" type="line"/>
      <point x="350.85333333333335" y="1302.4666666666667" type="line"/>
      <point x="580.32" y="1302.4666666666667" type="line" smooth="yes"/>
      <point x="749" y="1302"/>
      <point x="818" y="1221"/>
      <point x="817.6533333333333" y="1070.8933333333334" type="curve" smooth="yes"/>
      <point x="818" y="921"/>
      <point x="749" y="834"/>
      <point x="580.32" y="834.2133333333334" type="curve" smooth="yes"/>
    </contour>
  </outline>
</glyph>
<glyph name="C" format="2">
  <advance width="1179"/>
  <unicode hex="0043"/>
  <outline>
    <contour>
      <point x="115.0" y="682.0" type="line" smooth="yes"/>
      <point x="115" y="204"/>
      <point x="324" y="-30"/>
      <point x="644.96" y="-30.0" type="curve" smooth="yes"/>
      <point x="948" y="-30"/>
      <point x="1123" y="164"/>
      <point x="1125.7066666666667" y="456.0" type="curve" smooth="yes"/>
      <point x="1125.8133333333333" y="466.0" type="line"/>
      <point x="940.96" y="466.0" type="line"/>
      <point x="940.8533333333334" y="456.0" type="line" smooth="yes"/>
      <point x="932" y="296"/>
      <point x="844" y="130"/>
      <point x="644.0666666666666" y="129.53333333333333" type="curve" smooth="yes"/>
      <point x="436" y="130"/>
      <point x="301" y="314"/>
      <point x="300.96" y="646.2666666666667" type="curve" smooth="yes"/>
      <point x="300.96" y="810.6266666666667" type="line" smooth="yes"/>
      <point x="301" y="1152"/>
      <point x="419" y="1326"/>
      <point x="644.96" y="1326.4666666666667" type="curve" smooth="yes"/>
      <point x="862" y="1326"/>
      <point x="937" y="1168"/>
      <point x="940.71" y="1000.0" type="curve" smooth="yes"/>
      <point x="940.96" y="990.0" type="line"/>
      <point x="1125.8133333333333" y="990.0" type="line"/>
      <point x="1125.5633333333333" y="1000.0" type="line" smooth="yes"/>
      <point x="1119" y="1292"/>
      <point x="948" y="1486"/>
      <point x="644.96" y="1486.0" type="curve" smooth="yes"/>
      <point x="326" y="1486"/>
      <point x="115" y="1258"/>
      <point x="115.0" y="774.0" type="curve" smooth="yes"/>
    </contour>
  </outline>
</glyph>
<glyph name="D" format="2">
  <advance width="1240"/>
  <unicode hex="0044"/>
  <outline>
    <contour>
      <point x="170.0" y="0.0" type="line"/>
      <point x="541.2533333333333" y="0.0" type="line" smooth="yes"/>
      <point x="876" y="0"/>
      <point x="1124" y="240"/>
      <point x="1123.68" y="682.0" type="curve" smooth="yes"/>
      <point x="1123.68" y="774.0" type="line" smooth="yes"/>
      <point x="1124" y="1216"/>
      <point x="876" y="1456"/>
      <point x="541.2533333333333" y="1456.0" type="curve" smooth="yes"/>
      <point x="170.0" y="1456.0" type="line"/>
    </contour>
    <contour>
      <point x="354.85333333333335" y="153.53333333333333" type="line"/>
      <point x="354.85333333333335" y="1302.4666666666667" type="line"/>
      <point x="541.2533333333333" y="1302.4666666666667" type="line" smooth="yes"/>
      <point x="784" y="1302"/>
      <point x="937" y="1130"/>
      <point x="936.8266666666667" y="774.0" type="curve" smooth="yes"/>
      <point x="936.8266666666667" y="682.0" type="line" smooth="yes"/>
      <point x="937" y="326"/>
      <point x="784" y="154"/>
      <point x="541.2533333333333" y="153.53333333333333" type="curve" smooth="yes"/>
    </contour>
  </outline>
</glyph>
<glyph name="E" format="2">
  <advance width="1046"/>
  <unicode hex="0045"/>
  <outline>
    <contour>
      <point x="170.0" y="0.0" type="line"/>
      <point x="977.8666666666667" y="0.0" type="line"/>
      <point x="977.8666666666667" y="153.53333333333333" type="line"/>
      <point x="354.85333333333335" y="153.53333333333333" type="line"/>
      <point x="354.85333333333335" y="673.7866666666666" type="line"/>
      <point x="875.8666666666667" y="673.7866666666666" type="line"/>
      <point x="875.8666666666667" y="828.2133333333334" type="line"/>
      <point x="354.85333333333335" y="828.2133333333334" type="line"/>
      <point x="354.85333333333335" y="1302.4666666666667" type="line"/>
      <point x="967.8666666666667" y="1302.4666666666667" type="line"/>
      <point x="967.8666666666667" y="1456.0" type="line"/>
      <point x="170.0" y="1456.0" type="line"/>
    </contour>
  </outline>
</glyph>
<glyph name="F" format="2">
  <advance width="1014"/>
  <unicode hex="0046"/>
  <outline>
    <contour>
      <point x="170.0" y="0.0" type="line"/>
      <point x="354.85333333333335" y="0.0" type="line"/>
      <point x="354.85333333333335" y="645.68" type="line"/>
      <point x="870.2666666666667" y="645.68" type="line"/>
      <point x="870.2666666666667" y="798.32" type="line"/>
      <point x="354.85333333333335" y="798.32" type="line"/>
      <point x="354.85333333333335" y="1302.4666666666667" type="line"/>
      <point x="955.8666666666667" y="1302.4666666666667" type="line"/>
      <point x="955.8666666666667" y="1456.0" type="line"/>
      <point x="170.0" y="1456.0" type="line"/>
    </contour>
  </outline>
</glyph>
<glyph name="G" format="2">
  <advance width="1206"/>
  <unicode hex="0047"/>
  <outline>
    <contour>
      <point x="115.0" y="682.0" type="line" smooth="yes"/>
      <point x="115" y="174"/>
      <point x="329" y="-30"/>
      <point x="648.16" y="-30.0" type="curve" smooth="yes"/>
      <point x="896" y="-30"/>
      <point x="1039" y="57"/>
      <point x="1120.7733333333333" y="141.24" type="curve"/>
      <point x="1120.7733333333333" y="726.2133333333334" type="line"/>
      <point x="651.3866666666667" y="726.2133333333334" type="line"/>
      <point x="651.3866666666667" y="571.7866666666666" type="line"/>
      <point x="941.9200000000001" y="571.7866666666666" type="line"/>
      <point x="941.9200000000001" y="209.45333333333332" type="line"/>
      <point x="871" y="156"/>
      <point x="782" y="130"/>
      <point x="652.6266666666667" y="129.53333333333333" type="curve" smooth="yes"/>
      <point x="431" y="130"/>
      <point x="301" y="298"/>
      <point x="300.96" y="646.2666666666667" type="curve" smooth="yes"/>
      <point x="300.96" y="809.7333333333333" type="line" smooth="yes"/>
      <point x="301" y="1165"/>
      <point x="420" y="1326"/>
      <point x="642.56" y="1326.4666666666667" type="curve" smooth="yes"/>
      <point x="834" y="1326"/>
      <point x="936" y="1200"/>
      <point x="935.9200000000001" y="1040.0" type="curve" smooth="yes"/>
      <point x="935.9200000000001" y="1030.0" type="line"/>
      <point x="1120.7733333333333" y="1030.0" type="line"/>
      <point x="1119.7733333333333" y="1039.8566666666666" type="line" smooth="yes"/>
      <point x="1093" y="1304"/>
      <point x="940" y="1486"/>
      <point x="642.7733333333333" y="1486.0" type="curve" smooth="yes"/>
      <point x="328" y="1486"/>
      <point x="115" y="1253"/>
      <point x="115.0" y="774.0" type="curve" smooth="yes"/>
    </contour>
  </outline>
</glyph>
<glyph name="H" format="2">
  <advance width="1319"/>
  <unicode hex="0048"/>
  <outline>
    <contour>
      <point x="170.0" y="0.0" type="line"/>
      <point x="354.85333333333335" y="0.0" type="line"/>
      <point x="354.85333333333335" y="673.7866666666666" type="line"/>
      <point x="963.7866666666666" y="673.7866666666666" type="line"/>
      <point x="963.7866666666666" y="0.0" type="line"/>
      <point x="1148.64" y="0.0" type="line"/>
      <point x="1148.64" y="1456.0" type="line"/>
      <point x="963.7866666666666" y="1456.0" type="line"/>
      <point x="963.7866666666666" y="828.2133333333334" type="line"/>
      <point x="354.85333333333335" y="828.2133333333334" type="line"/>
      <point x="354.85333333333335" y="1456.0" type="line"/>
      <point x="170.0" y="1456.0" type="line"/>
    </contour>
  </outline>
</glyph>
<glyph name="J" format="2">
  <advance width="979"/>
  <unicode hex="004A"/>
  <outline>
    <contour>
      <point x="25.0" y="400.0" type="line" smooth="yes"/>
      <point x="25" y="108"/>
      <point x="178" y="-30"/>
      <point x="424.25333333333333" y="-30.0" type="curve" smooth="yes"/>
      <point x="669" y="-30"/>
      <point x="823" y="120"/>
      <point x="822.6133333333333" y="425.0" type="curve" smooth="yes"/>
      <point x="822.6133333333333" y="1456.0" type="line"/>
      <point x="638.6533333333333" y="1456.0" type="line"/>
      <point x="638.6533333333333" y="398.2" type="line" smooth="yes"/>
      <point x="639" y="208"/>
      <point x="563" y="130"/>
      <point x="424.25333333333333" y="129.53333333333333" type="curve" smooth="yes"/>
      <point x="284" y="130"/>
      <point x="210" y="195"/>
      <point x="209.85333333333332" y="373.2" type="curve" smooth="yes"/>
      <point x="209.85333333333332" y="410.0" type="line"/>
      <point x="25.0" y="410.0" type="line"/>
    </contour>
  </outline>
</glyph>
<glyph name="K" format="2">
  <advance width="1128"/>
  <unicode hex="004B"/>
  <outline>
    <contour>
      <point x="170.0" y="0.0" type="line"/>
      <point x="354.85333333333335" y="0.0" type="line"/>
      <point x="354.85333333333335" y="521.44" type="line"/>
      <point x="1119.6133333333332" y="1456.0" type="line"/>
      <point x="910.84" y="1456.0" type="line"/>
      <point x="354.85333333333335" y="756.08" type="line"/>
      <point x="354.85333333333335" y="1456.0" type="line"/>
      <point x="170.0" y="1456.0" type="line"/>
    </contour>
    <contour>
      <point x="937.44" y="0.0" type="line"/>
      <point x="1147.5333333333333" y="0.0" type="line"/>
      <point x="552.8266666666667" y="884.64" type="line"/>
      <point x="440.44" y="755.1066666666667" type="line"/>
    </contour>
  </outline>
</glyph>
<glyph name="L" format="2">
  <advance width="968"/>
  <unicode hex="004C"/>
  <outline>
    <contour>
      <point x="170.0" y="0.0" type="line"/>
      <point x="941.2266666666667" y="0.0" type="line"/>
      <point x="941.2266666666667" y="153.53333333333333" type="line"/>
      <point x="354.85333333333335" y="153.53333333333333" type="line"/>
      <point x="354.85333333333335" y="1456.0" type="line"/>
      <point x="170.0" y="1456.0" type="line"/>
    </contour>
  </outline>
</glyph>
<glyph name="M" format="2">
  <advance width="1597"/>
  <unicode hex="004D"/>
  <outline>
    <contour>
      <point x="170.0" y="0.0" type="line"/>
      <point x="344.85333333333335" y="0.0" type="line"/>
      <point x="344.85333333333335" y="1016.0533333333333" type="line" smooth="yes"/>
      <point x="345" y="1063"/>
      <point x="341" y="1125"/>
      <point x="337.85333333333335" y="1171.6" type="curve"/>
      <point x="346.85333333333335" y="1171.6" type="line"/>
      <point x="354" y="1125"/>
      <point x="370" y="1063"/>
      <point x="385.28" y="1016.0533333333333" type="curve" smooth="yes"/>
      <point x="714.4133333333333" y="0.0" type="line"/>
      <point x="878.6266666666667" y="0.0" type="line"/>
      <point x="1205.9733333333334" y="1016.0533333333333" type="line" smooth="yes"/>
      <point x="1221" y="1063"/>
      <point x="1240" y="1125"/>
      <point x="1247.08" y="1171.6" type="curve"/>
      <point x="1256.08" y="1171.6" type="line"/>
      <point x="1253" y="1125"/>
      <point x="1248" y="1063"/>
      <point x="1248.1866666666667" y="1016.0533333333333" type="curve" smooth="yes"/>
      <point x="1248.1866666666667" y="0.0" type="line"/>
      <point x="1427.04" y="0.0" type="line"/>
      <point x="1427.04" y="1456.0" type="line"/>
      <point x="1184.4" y="1456.0" type="line"/>
      <point x="831.0133333333333" y="353.96" type="line" smooth="yes"/>
      <point x="816" y="308"/>
      <point x="808" y="277"/>
      <point x="799.84" y="224.49333333333334" type="curve"/>
      <point x="793.6266666666667" y="224.49333333333334" type="line"/>
      <point x="785" y="277"/>
      <point x="777" y="307"/>
      <point x="762.4533333333334" y="353.06666666666666" type="curve" smooth="yes"/>
      <point x="413.53333333333336" y="1456.0" type="line"/>
      <point x="170.0" y="1456.0" type="line"/>
    </contour>
  </outline>
</glyph>
<glyph name="N" format="2">
  <advance width="1309"/>
  <unicode hex="004E"/>
  <outline>
    <contour>
      <point x="170.0" y="0.0" type="line"/>
      <point x="348.17333333333335" y="0.0" type="line"/>
      <point x="348.17333333333335" y="1008.9333333333333" type="line" smooth="yes"/>
      <point x="348" y="1054"/>
      <point x="348" y="1109"/>
      <point x="342.88666666666666" y="1153.76" type="curve"/>
      <point x="351.53" y="1153.76" type="line"/>
      <point x="366" y="1112"/>
      <point x="387" y="1069"/>
      <point x="407.7733333333333" y="1028.9333333333334" type="curve" smooth="yes"/>
      <point x="931.88" y="0.0" type="line"/>
      <point x="1139.0266666666666" y="0.0" type="line"/>
      <point x="1139.0266666666666" y="1456.0" type="line"/>
      <point x="959.0666666666666" y="1456.0" type="line"/>
      <point x="959.0666666666666" y="450.64" type="line" smooth="yes"/>
      <point x="959" y="408"/>
      <point x="959" y="340"/>
      <point x="963.46" y="294.2" type="curve"/>
      <point x="954.96" y="294.2" type="line"/>
      <point x="942" y="337"/>
      <point x="914" y="398"/>
      <point x="896.7866666666666" y="432.4266666666667" type="curve" smooth="yes"/>
      <point x="377.14666666666665" y="1456.0" type="line"/>
      <point x="170.0" y="1456.0" type="line"/>
    </contour>
  </outline>
</glyph>
<glyph name="O" format="2">
  <advance width="1294"/>
  <unicode hex="004F"/>
  <outline>
    <contour>
      <point x="115.0" y="682.0" type="line" smooth="yes"/>
      <point x="115" y="208"/>
      <point x="329" y="-30"/>
      <point x="646.92" y="-30.0" type="curve" smooth="yes"/>
      <point x="964" y="-30"/>
      <point x="1178" y="208"/>
      <point x="1177.9466666666667" y="682.0" type="curve" smooth="yes"/>
      <point x="1177.9466666666667" y="774.0" type="line" smooth="yes"/>
      <point x="1178" y="1248"/>
      <point x="964" y="1486"/>
      <point x="646.92" y="1486.0" type="curve" smooth="yes"/>
      <point x="329" y="1486"/>
      <point x="115" y="1248"/>
      <point x="115.0" y="774.0" type="curve" smooth="yes"/>
    </contour>
    <contour>
      <point x="300.96" y="655.2" type="curve" smooth="yes"/>
      <point x="300.96" y="801.6933333333334" type="line" smooth="yes"/>
      <point x="301" y="1147"/>
      <point x="432" y="1326"/>
      <point x="646.92" y="1326.4666666666667" type="curve" smooth="yes"/>
      <point x="862" y="1326"/>
      <point x="991" y="1147"/>
      <point x="991.0933333333334" y="801.6933333333334" type="curve" smooth="yes"/>
      <point x="991.0933333333334" y="655.2" type="line" smooth="yes"/>
      <point x="991" y="310"/>
      <point x="862" y="130"/>
      <point x="646.92" y="129.53333333333333" type="curve" smooth="yes"/>
      <point x="432" y="130"/>
      <point x="301" y="310"/>
    </contour>
  </outline>
</glyph>
<glyph name="P" format="2">
  <advance width="1096"/>
  <unicode hex="0050"/>
  <outline>
    <contour>
      <point x="170.0" y="0.0" type="line"/>
      <point x="354.85333333333335" y="0.0" type="line"/>
      <point x="354.85333333333335" y="571.7866666666666" type="line"/>
      <point x="582.32" y="571.7866666666666" type="line" smooth="yes"/>
      <point x="868" y="572"/>
      <point x="1023" y="725"/>
      <point x="1023.1466666666666" y="1015.8933333333333" type="curve" smooth="yes"/>
      <point x="1023" y="1307"/>
      <point x="868" y="1456"/>
      <point x="582.32" y="1456.0" type="curve" smooth="yes"/>
      <point x="170.0" y="1456.0" type="line"/>
    </contour>
    <contour>
      <point x="354.85333333333335" y="726.2133333333334" type="line"/>
      <point x="354.85333333333335" y="1302.4666666666667" type="line"/>
      <point x="582.32" y="1302.4666666666667" type="line" smooth="yes"/>
      <point x="773" y="1302"/>
      <point x="838" y="1185"/>
      <point x="838.2933333333333" y="1015.8933333333333" type="curve" smooth="yes"/>
      <point x="838" y="848"/>
      <point x="773" y="726"/>
      <point x="582.32" y="726.2133333333334" type="curve" smooth="yes"/>
    </contour>
  </outline>
</glyph>
<glyph name="Q" format="2">
  <advance width="1294"/>
  <unicode hex="0051"/>
  <outline>
    <contour>
      <point x="115.0" y="682.0" type="line" smooth="yes"/>
      <point x="115" y="208"/>
      <point x="329" y="-30"/>
      <point x="646.92" y="-30.0" type="curve" smooth="yes"/>
      <point x="964" y="-30"/>
      <point x="1178" y="208"/>
      <point x="1177.9466666666667" y="682.0" type="curve" smooth="yes"/>
      <point x="1177.9466666666667" y="774.0" type="line" smooth="yes"/>
      <point x="1178" y="1248"/>
      <point x="964" y="1486"/>
      <point x="646.92" y="1486.0" type="curve" smooth="yes"/>
      <point x="329" y="1486"/>
      <point x="115" y="1248"/>
      <point x="115.0" y="774.0" type="curve" smooth="yes"/>
    </contour>
    <contour>
      <point x="300.96" y="646.2666666666667" type="curve" smooth="yes"/>
      <point x="300.96" y="809.7333333333333" type="line" smooth="yes"/>
      <point x="301" y="1155"/>
      <point x="432" y="1326"/>
      <point x="646.92" y="1326.4666666666667" type="curve" smooth="yes"/>
      <point x="862" y="1326"/>
      <point x="991" y="1155"/>
      <point x="991.0933333333334" y="809.7333333333333" type="curve" smooth="yes"/>
      <point x="991.0933333333334" y="646.2666666666667" type="line" smooth="yes"/>
      <point x="991" y="301"/>
      <point x="862" y="130"/>
      <point x="646.92" y="129.53333333333333" type="curve" smooth="yes"/>
      <point x="432" y="130"/>
      <point x="301" y="301"/>
    </contour>
    <contour>
      <point x="1033.84" y="-248.21333333333334" type="line"/>
      <point x="1158.48" y="-121.78666666666666" type="line"/>
      <point x="811.52" y="148.74666666666667" type="line"/>
      <point x="690.9866666666667" y="27.32" type="line"/>
    </contour>
  </outline>
</glyph>
<glyph name="R" format="2">
  <advance width="1120"/>
  <unicode hex="0052"/>
  <outline>
    <contour>
      <point x="170.0" y="0.0" type="line"/>
      <point x="354.85333333333335" y="0.0" type="line"/>
      <point x="354.85333333333335" y="595.7866666666666" type="line"/>
      <point x="574.32" y="595.7866666666666" type="line" smooth="yes"/>
      <point x="854" y="596"/>
      <point x="1011" y="746"/>
      <point x="1010.5066666666667" y="1028.8933333333334" type="curve" smooth="yes"/>
      <point x="1011" y="1312"/>
      <point x="854" y="1456"/>
      <point x="574.32" y="1456.0" type="curve" smooth="yes"/>
      <point x="170.0" y="1456.0" type="line"/>
    </contour>
    <contour>
      <point x="354.85333333333335" y="748.2133333333334" type="line"/>
      <point x="354.85333333333335" y="1304.4666666666667" type="line"/>
      <point x="574.32" y="1304.4666666666667" type="line" smooth="yes"/>
      <point x="762" y="1304"/>
      <point x="826" y="1193"/>
      <point x="825.6533333333333" y="1028.8933333333334" type="curve" smooth="yes"/>
      <point x="826" y="866"/>
      <point x="762" y="748"/>
      <point x="574.32" y="748.2133333333334" type="curve" smooth="yes"/>
    </contour>
    <contour>
      <point x="876.2933333333333" y="0.0" type="line"/>
      <point x="1079.5733333333333" y="0.0" type="line"/>
      <point x="756.6666666666666" y="672.0" type="line"/>
      <point x="561.3866666666667" y="672.0" type="line"/>
    </contour>
  </outline>
</glyph>
<glyph name="S" format="2">
  <advance width="1086"/>
  <unicode hex="0053"/>
  <outline>
    <contour>
      <point x="90.0" y="389.06666666666666" type="line" smooth="yes"/>
      <point x="90" y="105"/>
      <point x="271" y="-30"/>
      <point x="552.1066666666667" y="-30.0" type="curve" smooth="yes"/>
      <point x="833" y="-30"/>
      <point x="1006" y="111"/>
      <point x="1006.0" y="370.17333333333335" type="curve" smooth="yes"/>
      <point x="1006" y="610"/>
      <point x="859" y="717"/>
      <point x="613.6" y="822.2133333333334" type="curve" smooth="yes"/>
      <point x="350" y="935"/>
      <point x="297" y="1007"/>
      <point x="297.49333333333334" y="1123.23" type="curve" smooth="yes"/>
      <point x="297" y="1242"/>
      <point x="369" y="1326"/>
      <point x="543.8933333333333" y="1326.4666666666667" type="curve" smooth="yes"/>
      <point x="713" y="1326"/>
      <point x="799" y="1226"/>
      <point x="798.5066666666667" y="1072.9333333333334" type="curve" smooth="yes"/>
      <point x="798.5066666666667" y="1052.0" type="line"/>
      <point x="983.36" y="1052.0" type="line"/>
      <point x="983.36" y="1072.9333333333334" type="line" smooth="yes"/>
      <point x="983" y="1326"/>
      <point x="814" y="1486"/>
      <point x="543.8933333333333" y="1486.0" type="curve" smooth="yes"/>
      <point x="274" y="1486"/>
      <point x="115" y="1346"/>
      <point x="114.64" y="1099.8266666666666" type="curve" smooth="yes"/>
      <point x="115" y="873"/>
      <point x="247" y="772"/>
      <point x="499.72" y="666.8933333333333" type="curve" smooth="yes"/>
      <point x="756" y="560"/>
      <point x="823" y="508"/>
      <point x="823.1466666666666" y="370.17333333333335" type="curve" smooth="yes"/>
      <point x="823" y="226"/>
      <point x="728" y="130"/>
      <point x="552.1066666666667" y="129.53333333333333" type="curve" smooth="yes"/>
      <point x="376" y="130"/>
      <point x="275" y="215"/>
      <point x="274.85333333333335" y="389.06666666666666" type="curve" smooth="yes"/>
      <point x="274.85333333333335" y="410.0" type="line"/>
      <point x="90.0" y="410.0" type="line"/>
    </contour>
  </outline>
</glyph>
<glyph name="T" format="2">
  <advance width="1038"/>
  <unicode hex="0054"/>
  <outline>
    <contour>
      <point x="24.0" y="1302.4666666666667" type="line"/>
      <point x="426.78666666666663" y="1302.4666666666667" type="line"/>
      <point x="426.78666666666663" y="0.0" type="line"/>
      <point x="610.7466666666667" y="0.0" type="line"/>
      <point x="610.7466666666667" y="1302.4666666666667" type="line"/>
      <point x="1014.4266666666667" y="1302.4666666666667" type="line"/>
      <point x="1014.4266666666667" y="1456.0" type="line"/>
      <point x="24.0" y="1456.0" type="line"/>
    </contour>
  </outline>
</glyph>
<glyph name="U" format="2">
  <advance width="1234"/>
  <unicode hex="0055"/>
  <outline>
    <contour>
      <point x="155.0" y="470.0" type="line" smooth="yes"/>
      <point x="155" y="111"/>
      <point x="352" y="-30"/>
      <point x="616.7866666666666" y="-30.0" type="curve" smooth="yes"/>
      <point x="882" y="-30"/>
      <point x="1078" y="111"/>
      <point x="1077.68" y="470.0" type="curve" smooth="yes"/>
      <point x="1077.68" y="1456.0" type="line"/>
      <point x="892.8266666666667" y="1456.0" type="line"/>
      <point x="892.8266666666667" y="434.26666666666665" type="line" smooth="yes"/>
      <point x="893" y="228"/>
      <point x="788" y="130"/>
      <point x="616.7866666666666" y="129.53333333333333" type="curve" smooth="yes"/>
      <point x="445" y="130"/>
      <point x="339" y="227"/>
      <point x="338.96" y="434.26666666666665" type="curve" smooth="yes"/>
      <point x="338.96" y="1456.0" type="line"/>
      <point x="155.0" y="1456.0" type="line"/>
    </contour>
  </outline>
</glyph>
<glyph name="V" format="2">
  <advance width="1069"/>
  <unicode hex="0056"/>
  <outline>
    <contour>
      <point x="0.0" y="1456.0" type="line"/>
      <point x="442.15999999999997" y="-10.0" type="line"/>
      <point x="626.6666666666666" y="-10.0" type="line"/>
      <point x="1068.8266666666666" y="1456.0" type="line"/>
      <point x="884.44" y="1456.0" type="line"/>
      <point x="568.5866666666667" y="369.96" type="line" smooth="yes"/>
      <point x="556" y="326"/>
      <point x="546" y="285"/>
      <point x="540.6633333333333" y="239.95333333333332" type="curve"/>
      <point x="532.3066666666666" y="239.95333333333332" type="line"/>
      <point x="526" y="285"/>
      <point x="516" y="326"/>
      <point x="503.3466666666667" y="369.96" type="curve" smooth="yes"/>
      <point x="191.49333333333334" y="1456.0" type="line"/>
    </contour>
  </outline>
</glyph>
<glyph name="W" format="2">
  <advance width="1609"/>
  <unicode hex="0057"/>
  <outline>
    <contour>
      <point x="352.61333333333334" y="-10.0" type="line"/>
      <point x="537.3266666666667" y="-10.0" type="line"/>
      <point x="780.27" y="1082.5066666666667" type="line" smooth="yes"/>
      <point x="791" y="1130"/>
      <point x="794" y="1159"/>
      <point x="800.41" y="1205.1466666666668" type="curve"/>
      <point x="807.91" y="1205.1466666666668" type="line"/>
      <point x="814" y="1159"/>
      <point x="818" y="1130"/>
      <point x="828.9433333333334" y="1082.5066666666667" type="curve" smooth="yes"/>
      <point x="1070.9933333333333" y="-10.0" type="line"/>
      <point x="1257.4933333333333" y="-10.0" type="line"/>
      <point x="1559.2133333333334" y="1456.0" type="line"/>
      <point x="1380.3266666666666" y="1456.0" type="line"/>
      <point x="1188.53" y="370.85333333333335" type="line" smooth="yes"/>
      <point x="1180" y="323"/>
      <point x="1178" y="306"/>
      <point x="1172.6033333333332" y="257.85333333333335" type="curve"/>
      <point x="1165.2466666666667" y="257.85333333333335" type="line"/>
      <point x="1159" y="306"/>
      <point x="1158" y="323"/>
      <point x="1147.5333333333333" y="370.85333333333335" type="curve" smooth="yes"/>
      <point x="901.7666666666667" y="1456.0" type="line"/>
      <point x="708.5533333333333" y="1456.0" type="line"/>
      <point x="475.4666666666667" y="370.85333333333335" type="line" smooth="yes"/>
      <point x="465" y="323"/>
      <point x="464" y="306"/>
      <point x="458.64666666666665" y="257.85333333333335" type="curve"/>
      <point x="451.43333333333334" y="257.85333333333335" type="line"/>
      <point x="448" y="306"/>
      <point x="446" y="323"/>
      <point x="436.25666666666666" y="370.85333333333335" type="curve" smooth="yes"/>
      <point x="229.99333333333334" y="1456.0" type="line"/>
      <point x="50.0" y="1456.0" type="line"/>
    </contour>
  </outline>
</glyph>
<glyph name="X" format="2">
  <advance width="1059"/>
  <unicode hex="0058"/>
  <outline>
    <contour>
      <point x="25.0" y="0.0" type="line"/>
      <point x="219.13333333333333" y="0.0" type="line"/>
      <point x="579.4933333333333" y="671.7866666666666" type="line"/>
      <point x="589.92" y="671.7866666666666" type="line"/>
      <point x="1012.0933333333334" y="1456.0" type="line"/>
      <point x="817.96" y="1456.0" type="line"/>
      <point x="479.92" y="804.2133333333334" type="line"/>
      <point x="467.70666666666665" y="804.2133333333334" type="line"/>
    </contour>
    <contour>
      <point x="46.42666666666667" y="1456.0" type="line"/>
      <point x="467.70666666666665" y="671.7866666666666" type="line"/>
      <point x="475.92" y="671.7866666666666" type="line"/>
      <point x="835.3866666666667" y="0.0" type="line"/>
      <point x="1033.52" y="0.0" type="line"/>
      <point x="590.8133333333333" y="804.2133333333334" type="line"/>
      <point x="582.6" y="804.2133333333334" type="line"/>
      <point x="243.66666666666666" y="1456.0" type="line"/>
    </contour>
  </outline>
</glyph>
<glyph name="Y" format="2">
  <advance width="1062"/>
  <unicode hex="0059"/>
  <outline>
    <contour>
      <point x="438.49333333333334" y="0.0" type="line"/>
      <point x="623.3466666666667" y="0.0" type="line"/>
      <point x="623.3466666666667" y="545.7866666666666" type="line"/>
      <point x="1046.84" y="1456.0" type="line"/>
      <point x="854.0266666666666" y="1456.0" type="line"/>
      <point x="586.3466666666667" y="864.12" type="line" smooth="yes"/>
      <point x="568" y="824"/>
      <point x="551" y="775"/>
      <point x="537.7066666666667" y="734.2166666666667" type="curve"/>
      <point x="529.92" y="734.2166666666667" type="line"/>
      <point x="516" y="775"/>
      <point x="499" y="824"/>
      <point x="481.28" y="864.12" type="curve" smooth="yes"/>
      <point x="216.70666666666668" y="1456.0" type="line"/>
      <point x="15.0" y="1456.0" type="line"/>
      <point x="438.49333333333334" y="545.7866666666666" type="line"/>
    </contour>
  </outline>
</glyph>
<glyph name="Z" format="2">
  <advance width="995"/>
  <unicode hex="005A"/>
  <outline>
    <contour>
      <point x="31.843333333333334" y="0.0" type="line"/>
      <point x="963.0966666666667" y="0.0" type="line"/>
      <point x="963.0966666666667" y="153.53333333333333" type="line"/>
      <point x="238.51" y="153.53333333333333" type="line"/>
      <point x="931.0966666666667" y="1320.4666666666667" type="line"/>
      <point x="931.0966666666667" y="1456.0" type="line"/>
      <point x="43.843333333333334" y="1456.0" type="line"/>
      <point x="43.843333333333334" y="1302.4666666666667" type="line"/>
      <point x="724.4300000000001" y="1302.4666666666667" type="line"/>
      <point x="31.843333333333334" y="135.53333333333333" type="line"/>
    </contour>
  </outline>
</glyph>
<glyph name="bracketleft" format="2">
  <advance width="648"/>
  <unicode hex="005B"/>
  <outline>
    <contour>
      <point x="144.0" y="-310.0" type="line"/>
      <point x="559.2533333333333" y="-310.0" type="line"/>
      <point x="559.2533333333333" y="-154.46666666666667" type="line"/>
      <point x="321.85333333333335" y="-154.46666666666667" type="line"/>
      <point x="321.85333333333335" y="1300.4666666666667" type="line"/>
      <point x="559.2533333333333" y="1300.4666666666667" type="line"/>
      <point x="559.2533333333333" y="1456.0" type="line"/>
      <point x="144.0" y="1456.0" type="line"/>
    </contour>
  </outline>
</glyph>
<glyph name="backslash" format="2">
  <advance width="490"/>
  <unicode hex="005C"/>
  <outline>
    <contour>
      <point x="-106.25333333333333" y="1456.0" type="line"/>
      <point x="417.7733333333333" y="-125.0" type="line"/>
      <point x="596.4533333333334" y="-125.0" type="line"/>
      <point x="73.32" y="1456.0" type="line"/>
    </contour>
  </outline>
</glyph>
<glyph name="bracketright" format="2">
  <advance width="648"/>
  <unicode hex="005D"/>
  <outline>
    <contour>
      <point x="504.18666666666667" y="-310.0" type="line"/>
      <point x="504.18666666666667" y="1456.0" type="line"/>
      <point x="88.93333333333334" y="1456.0" type="line"/>
      <point x="88.93333333333334" y="1300.4666666666667" type="line"/>
      <point x="326.3333333333333" y="1300.4666666666667" type="line"/>
      <point x="326.3333333333333" y="-154.46666666666667" type="line"/>
      <point x="88.93333333333334" y="-154.46666666666667" type="line"/>
      <point x="88.93333333333334" y="-310.0" type="line"/>
    </contour>
  </outline>
</glyph>
<glyph name="asciicircum" format="2">
  <advance width="1038"/>
  <unicode hex="005E"/>
  <outline>
    <contour>
      <point x="25.0" y="720.0" type="line"/>
      <point x="217.85333333333332" y="720.0" type="line"/>
      <point x="518.8933333333333" y="1277.4933333333333" type="line"/>
      <point x="819.9333333333334" y="720.0" type="line"/>
      <point x="1012.7866666666666" y="720.0" type="line"/>
      <point x="600.32" y="1456.0" type="line"/>
      <point x="437.4666666666667" y="1456.0" type="line"/>
    </contour>
  </outline>
</glyph>
<glyph name="underscore" format="2">
  <advance width="831"/>
  <unicode hex="005F"/>
  <outline>
    <contour>
      <point x="0.0" y="-277.5333333333333" type="line"/>
      <point x="831.04" y="-277.5333333333333" type="line"/>
      <point x="831.04" y="-115.36000000000001" type="line"/>
      <point x="0.0" y="-115.36000000000001" type="line"/>
    </contour>
  </outline>
</glyph>
<glyph name="a" format="2">
  <advance width="986"/>
  <unicode hex="0061"/>
  <outline>
    <contour>
      <point x="90.0" y="315.7133333333333" type="curve" smooth="yes"/>
      <point x="90" y="86"/>
      <point x="227" y="-20"/>
      <point x="402.6533333333333" y="-20.0" type="curve" smooth="yes"/>
      <point x="545" y="-20"/>
      <point x="632" y="55"/>
      <point x="673.0133333333333" y="138.38666666666666" type="curve"/>
      <point x="678" y="87"/>
      <point x="693" y="32"/>
      <point x="708.5466666666666" y="0.0" type="curve"/>
      <point x="882.2933333333333" y="0.0" type="line"/>
      <point x="882.2933333333333" y="16.0" type="line"/>
      <point x="861" y="75"/>
      <point x="848" y="153"/>
      <point x="847.8666666666667" y="240.0" type="curve" smooth="yes"/>
      <point x="847.8666666666667" y="749.0" type="line" smooth="yes"/>
      <point x="848" y="1002"/>
      <point x="724" y="1111"/>
      <point x="502.4666666666667" y="1111.0" type="curve" smooth="yes"/>
      <point x="283" y="1111"/>
      <point x="145" y="974"/>
      <point x="144.85333333333332" y="789.0" type="curve" smooth="yes"/>
      <point x="144.85333333333332" y="784.0" type="line"/>
      <point x="322.70666666666665" y="784.0" type="line"/>
      <point x="322.70666666666665" y="789.0" type="line" smooth="yes"/>
      <point x="323" y="884"/>
      <point x="372" y="967"/>
      <point x="498.36" y="966.5733333333334" type="curve" smooth="yes"/>
      <point x="624" y="967"/>
      <point x="669" y="879"/>
      <point x="669.0133333333333" y="749.0" type="curve" smooth="yes"/>
      <point x="669.0133333333333" y="661.2133333333334" type="line"/>
      <point x="481.04" y="661.2133333333334" type="line" smooth="yes"/>
      <point x="240" y="661"/>
      <point x="90" y="541"/>
    </contour>
    <contour>
      <point x="268.85333333333335" y="316.78" type="curve" smooth="yes"/>
      <point x="269" y="466"/>
      <point x="349" y="533"/>
      <point x="498.36" y="532.7866666666666" type="curve" smooth="yes"/>
      <point x="669.0133333333333" y="532.7866666666666" type="line"/>
      <point x="669.0133333333333" y="351.24" type="line"/>
      <point x="669" y="216"/>
      <point x="552" y="124"/>
      <point x="435.50666666666666" y="124.42666666666666" type="curve" smooth="yes"/>
      <point x="325" y="124"/>
      <point x="269" y="184"/>
    </contour>
  </outline>
</glyph>
<glyph name="b" format="2">
  <advance width="1047"/>
  <unicode hex="0062"/>
  <outline>
    <contour>
      <point x="148.0" y="0.0" type="line"/>
      <point x="311.53333333333336" y="0.0" type="line"/>
      <point x="318.64" y="123.6" type="line"/>
      <point x="322.85333333333335" y="123.6" type="line"/>
      <point x="368" y="42"/>
      <point x="464" y="-20"/>
      <point x="587.8266666666667" y="-20.0" type="curve" smooth="yes"/>
      <point x="816" y="-20"/>
      <point x="962" y="208"/>
      <point x="961.72" y="524.5" type="curve" smooth="yes"/>
      <point x="961.72" y="556.5" type="line" smooth="yes"/>
      <point x="962" y="873"/>
      <point x="816" y="1101"/>
      <point x="587.8266666666667" y="1101.0" type="curve" smooth="yes"/>
      <point x="464" y="1101"/>
      <point x="379" y="1050"/>
      <point x="326.85333333333335" y="970.4" type="curve"/>
      <point x="326.85333333333335" y="1536.0" type="line"/>
      <point x="148.0" y="1536.0" type="line"/>
    </contour>
    <contour>
      <point x="326.85333333333335" y="290.56" type="curve"/>
      <point x="326.85333333333335" y="790.44" type="line"/>
      <point x="356" y="867"/>
      <point x="445" y="953"/>
      <point x="548.72" y="952.5733333333334" type="curve" smooth="yes"/>
      <point x="705" y="953"/>
      <point x="779" y="808"/>
      <point x="778.8666666666667" y="583.3" type="curve" smooth="yes"/>
      <point x="778.8666666666667" y="497.7" type="line" smooth="yes"/>
      <point x="779" y="273"/>
      <point x="707" y="128"/>
      <point x="545.1466666666666" y="128.42666666666668" type="curve" smooth="yes"/>
      <point x="437" y="128"/>
      <point x="361" y="204"/>
    </contour>
  </outline>
</glyph>
<glyph name="c" format="2">
  <advance width="917"/>
  <unicode hex="0063"/>
  <outline>
    <contour>
      <point x="85.0" y="524.5" type="line" smooth="yes"/>
      <point x="85" y="173"/>
      <point x="245" y="-30"/>
      <point x="500.4266666666667" y="-30.0" type="curve" smooth="yes"/>
      <point x="754" y="-30"/>
      <point x="878" y="140"/>
      <point x="878.4" y="342.0" type="curve" smooth="yes"/>
      <point x="878.4" y="347.0" type="line"/>
      <point x="705.5466666666666" y="347.0" type="line"/>
      <point x="705.5466666666666" y="342.0" type="line" smooth="yes"/>
      <point x="706" y="223"/>
      <point x="650" y="118"/>
      <point x="498.64" y="118.42666666666666" type="curve" smooth="yes"/>
      <point x="343" y="118"/>
      <point x="268" y="269"/>
      <point x="267.85333333333335" y="497.7" type="curve" smooth="yes"/>
      <point x="267.85333333333335" y="583.3" type="line" smooth="yes"/>
      <point x="268" y="812"/>
      <point x="345" y="962"/>
      <point x="506.68" y="961.68" type="curve" smooth="yes"/>
      <point x="656" y="962"/>
      <point x="706" y="858"/>
      <point x="705.5466666666666" y="739.0" type="curve" smooth="yes"/>
      <point x="705.5466666666666" y="734.0" type="line"/>
      <point x="878.4" y="734.0" type="line"/>
      <point x="878.4" y="739.0" type="line" smooth="yes"/>
      <point x="878" y="941"/>
      <point x="752" y="1111"/>
      <point x="507.5733333333333" y="1111.0" type="curve" smooth="yes"/>
      <point x="243" y="1111"/>
      <point x="85" y="908"/>
      <point x="85.0" y="556.5" type="curve" smooth="yes"/>
    </contour>
  </outline>
</glyph>
<glyph name="d" format="2">
  <advance width="1047"/>
  <unicode hex="0064"/>
  <outline>
    <contour>
      <point x="85.0" y="524.5" type="line" smooth="yes"/>
      <point x="85" y="208"/>
      <point x="230" y="-20"/>
      <point x="458.8933333333333" y="-20.0" type="curve" smooth="yes"/>
      <point x="582" y="-20"/>
      <point x="679" y="42"/>
      <point x="723.8666666666667" y="123.6" type="curve"/>
      <point x="728.08" y="123.6" type="line"/>
      <point x="735.1866666666667" y="0.0" type="line"/>
      <point x="898.72" y="0.0" type="line"/>
      <point x="898.72" y="1536.0" type="line"/>
      <point x="719.8666666666667" y="1536.0" type="line"/>
      <point x="719.8666666666667" y="970.4" type="line"/>
      <point x="668" y="1050"/>
      <point x="582" y="1101"/>
      <point x="458.8933333333333" y="1101.0" type="curve" smooth="yes"/>
      <point x="230" y="1101"/>
      <point x="85" y="873"/>
      <point x="85.0" y="556.5" type="curve" smooth="yes"/>
    </contour>
    <contour>
      <point x="267.85333333333335" y="497.7" type="curve" smooth="yes"/>
      <point x="267.85333333333335" y="583.3" type="line" smooth="yes"/>
      <point x="268" y="808"/>
      <point x="340" y="953"/>
      <point x="501.5733333333333" y="952.5733333333334" type="curve" smooth="yes"/>
      <point x="609" y="953"/>
      <point x="686" y="876"/>
      <point x="719.8666666666667" y="790.44" type="curve"/>
      <point x="719.8666666666667" y="290.56" type="line"/>
      <point x="686" y="205"/>
      <point x="609" y="128"/>
      <point x="501.5733333333333" y="128.42666666666668" type="curve" smooth="yes"/>
      <point x="340" y="128"/>
      <point x="268" y="273"/>
    </contour>
  </outline>
</glyph>
<glyph name="e" format="2">
  <advance width="942"/>
  <unicode hex="0065"/>
  <outline>
    <contour>
      <point x="85.0" y="524.5" type="line" smooth="yes"/>
      <point x="85" y="173"/>
      <point x="240" y="-30"/>
      <point x="524.8933333333333" y="-30.0" type="curve" smooth="yes"/>
      <point x="698" y="-30"/>
      <point x="826" y="62"/>
      <point x="890.12" y="184.82666666666665" type="curve"/>
      <point x="760.2933333333333" y="265.53333333333336" type="line"/>
      <point x="708" y="186"/>
      <point x="637" y="118"/>
      <point x="515.96" y="118.42666666666666" type="curve" smooth="yes"/>
      <point x="340" y="118"/>
      <point x="265" y="254"/>
      <point x="265.17333333333335" y="497.7" type="curve" smooth="yes"/>
      <point x="265.17333333333335" y="583.3" type="line" smooth="yes"/>
      <point x="265" y="836"/>
      <point x="346" y="963"/>
      <point x="497.32" y="962.5733333333334" type="curve" smooth="yes"/>
      <point x="652" y="963"/>
      <point x="705" y="835"/>
      <point x="705.01" y="661.5333333333333" type="curve" smooth="yes"/>
      <point x="705.01" y="644.7133333333334" type="line"/>
      <point x="185.6" y="644.7133333333334" type="line"/>
      <point x="185.6" y="500.2866666666667" type="line"/>
      <point x="886.5066666666667" y="500.2866666666667" type="line"/>
      <point x="886.5066666666667" y="574.5" type="line" smooth="yes"/>
      <point x="887" y="929"/>
      <point x="748" y="1111"/>
      <point x="498.4666666666667" y="1111.0" type="curve" smooth="yes"/>
      <point x="249" y="1111"/>
      <point x="85" y="908"/>
      <point x="85.0" y="556.5" type="curve" smooth="yes"/>
    </contour>
  </outline>
</glyph>
<glyph name="f" format="2">
  <advance width="525"/>
  <unicode hex="0066"/>
  <outline>
    <contour>
      <point x="165.62666666666667" y="0.0" type="line"/>
      <point x="344.48" y="0.0" type="line"/>
      <point x="344.48" y="1000.7866666666666" type="line"/>
      <point x="344.48" y="1022.7866666666666" type="line"/>
      <point x="344.48" y="1200.0" type="line" smooth="yes"/>
      <point x="344" y="1336"/>
      <point x="400" y="1404"/>
      <point x="499.4266666666667" y="1404.4666666666667" type="curve" smooth="yes"/>
      <point x="531" y="1404"/>
      <point x="561" y="1400"/>
      <point x="585.8133333333333" y="1393.5733333333333" type="curve"/>
      <point x="594.92" y="1540.0" type="line"/>
      <point x="561" y="1551"/>
      <point x="520" y="1556"/>
      <point x="483.8933333333333" y="1556.0" type="curve" smooth="yes"/>
      <point x="286" y="1556"/>
      <point x="166" y="1433"/>
      <point x="165.62666666666667" y="1200.0" type="curve" smooth="yes"/>
    </contour>
    <contour>
      <point x="25.0" y="942.5733333333334" type="line"/>
      <point x="534.96" y="942.5733333333334" type="line"/>
      <point x="534.96" y="1081.0" type="line"/>
      <point x="274.48" y="1081.0" type="line"/>
      <point x="235.62666666666667" y="1081.0" type="line"/>
      <point x="25.0" y="1081.0" type="line"/>
    </contour>
  </outline>
</glyph>
<glyph name="g" format="2">
  <advance width="1047"/>
  <unicode hex="0067"/>
  <outline>
    <contour>
      <point x="119.53333333333333" y="-285.7866666666667" type="line"/>
      <point x="208" y="-374"/>
      <point x="337" y="-436"/>
      <point x="489.25333333333333" y="-436.0" type="curve" smooth="yes"/>
      <point x="734" y="-436"/>
      <point x="899" y="-275"/>
      <point x="898.72" y="20.0" type="curve" smooth="yes"/>
      <point x="898.72" y="1081.0" type="line"/>
      <point x="735.1866666666667" y="1081.0" type="line"/>
      <point x="728.08" y="957.4" type="line"/>
      <point x="723.8666666666667" y="957.4" type="line"/>
      <point x="679" y="1039"/>
      <point x="582" y="1101"/>
      <point x="458.8933333333333" y="1101.0" type="curve" smooth="yes"/>
      <point x="230" y="1101"/>
      <point x="85" y="873"/>
      <point x="85.0" y="556.5" type="curve" smooth="yes"/>
      <point x="85.0" y="524.5" type="line" smooth="yes"/>
      <point x="85" y="196"/>
      <point x="222" y="-20"/>
      <point x="447.28" y="-20.0" type="curve" smooth="yes"/>
      <point x="586" y="-20"/>
      <point x="668" y="31"/>
      <point x="719.8666666666667" y="110.6" type="curve"/>
      <point x="719.8666666666667" y="20.0" type="line" smooth="yes"/>
      <point x="720" y="-170"/>
      <point x="630" y="-278"/>
      <point x="484.25333333333333" y="-278.46666666666664" type="curve" smooth="yes"/>
      <point x="371" y="-278"/>
      <point x="278" y="-217"/>
      <point x="227.6" y="-149.36" type="curve"/>
    </contour>
    <contour>
      <point x="267.85333333333335" y="494.12666666666667" type="curve" smooth="yes"/>
      <point x="267.85333333333335" y="579.7266666666667" type="line" smooth="yes"/>
      <point x="268" y="805"/>
      <point x="338" y="953"/>
      <point x="507.82666666666665" y="952.5733333333334" type="curve" smooth="yes"/>
      <point x="615" y="953"/>
      <point x="690" y="863"/>
      <point x="719.8666666666667" y="790.44" type="curve"/>
      <point x="719.8666666666667" y="290.56" type="line"/>
      <point x="694" y="205"/>
      <point x="615" y="128"/>
      <point x="495.32" y="128.42666666666668" type="curve" smooth="yes"/>
      <point x="339" y="128"/>
      <point x="268" y="269"/>
    </contour>
  </outline>
</glyph>
<glyph name="h" format="2">
  <advance width="1025"/>
  <unicode hex="0068"/>
  <outline>
    <contour>
      <point x="148.0" y="0.0" type="line"/>
      <point x="326.85333333333335" y="0.0" type="line"/>
      <point x="326.85333333333335" y="773.0" type="line"/>
      <point x="361" y="868"/>
      <point x="444" y="949"/>
      <point x="553.2266666666667" y="949.4666666666667" type="curve" smooth="yes"/>
      <point x="658" y="949"/>
      <point x="708" y="882"/>
      <point x="707.6933333333334" y="750.2" type="curve" smooth="yes"/>
      <point x="707.6933333333334" y="0.0" type="line"/>
      <point x="886.5466666666666" y="0.0" type="line"/>
      <point x="886.5466666666666" y="748.2" type="line" smooth="yes"/>
      <point x="887" y="989"/>
      <point x="772" y="1101"/>
      <point x="610.9733333333334" y="1101.0" type="curve" smooth="yes"/>
      <point x="477" y="1101"/>
      <point x="383" y="1040"/>
      <point x="326.85333333333335" y="943.8533333333334" type="curve"/>
      <point x="326.85333333333335" y="1536.0" type="line"/>
      <point x="148.0" y="1536.0" type="line"/>
    </contour>
  </outline>
</glyph>
<glyph name="i" format="2">
  <advance width="493"/>
  <unicode hex="0069"/>
  <outline>
    <contour>
      <point x="157.0" y="0.0" type="line"/>
      <point x="335.85333333333335" y="0.0" type="line"/>
      <point x="335.85333333333335" y="1081.0" type="line"/>
      <point x="157.0" y="1081.0" type="line"/>
    </contour>
    <contour>
      <point x="139.36" y="1376.7866666666666" type="curve" smooth="yes"/>
      <point x="139" y="1317"/>
      <point x="177" y="1272"/>
      <point x="246.42666666666668" y="1272.04" type="curve" smooth="yes"/>
      <point x="315" y="1272"/>
      <point x="353" y="1317"/>
      <point x="353.49333333333334" y="1376.7866666666666" type="curve" smooth="yes"/>
      <point x="353" y="1436"/>
      <point x="315" y="1482"/>
      <point x="246.42666666666668" y="1481.5333333333333" type="curve" smooth="yes"/>
      <point x="177" y="1482"/>
      <point x="139" y="1436"/>
    </contour>
  </outline>
</glyph>
<glyph name="j" format="2">
  <advance width="493"/>
  <unicode hex="006A"/>
  <outline>
    <contour>
      <point x="-54.693333333333335" y="-410.0" type="line"/>
      <point x="-25" y="-422"/>
      <point x="41" y="-436"/>
      <point x="87.86666666666667" y="-436.0" type="curve" smooth="yes"/>
      <point x="251" y="-436"/>
      <point x="336" y="-331"/>
      <point x="335.85333333333335" y="-90.0" type="curve" smooth="yes"/>
      <point x="335.85333333333335" y="1081.0" type="line"/>
      <point x="157.0" y="1081.0" type="line"/>
      <point x="157.0" y="-130.0" type="line" smooth="yes"/>
      <point x="157" y="-241"/>
      <point x="119" y="-284"/>
      <point x="53.22666666666667" y="-284.46666666666664" type="curve" smooth="yes"/>
      <point x="17" y="-284"/>
      <point x="-30" y="-273"/>
      <point x="-54.693333333333335" y="-264.46666666666664" type="curve"/>
    </contour>
    <contour>
      <point x="139.36" y="1376.7866666666666" type="curve" smooth="yes"/>
      <point x="139" y="1317"/>
      <point x="177" y="1272"/>
      <point x="246.42666666666668" y="1272.04" type="curve" smooth="yes"/>
      <point x="315" y="1272"/>
      <point x="353" y="1317"/>
      <point x="353.49333333333334" y="1376.7866666666666" type="curve" smooth="yes"/>
      <point x="353" y="1436"/>
      <point x="315" y="1482"/>
      <point x="246.42666666666668" y="1481.5333333333333" type="curve" smooth="yes"/>
      <point x="177" y="1482"/>
      <point x="139" y="1436"/>
    </contour>
  </outline>
</glyph>
<glyph name="k" format="2">
  <advance width="912"/>
  <unicode hex="006B"/>
  <outline>
    <contour>
      <point x="148.0" y="0.0" type="line"/>
      <point x="326.85333333333335" y="0.0" type="line"/>
      <point x="326.85333333333335" y="391.55" type="line"/>
      <point x="886.9066666666666" y="1081.0" type="line"/>
      <point x="681.4466666666667" y="1081.0" type="line"/>
      <point x="326.85333333333335" y="629.3066666666666" type="line"/>
      <point x="326.85333333333335" y="1536.0" type="line"/>
      <point x="148.0" y="1536.0" type="line"/>
    </contour>
    <contour>
      <point x="721.2666666666667" y="0.0" type="line"/>
      <point x="927.8666666666667" y="0.0" type="line"/>
      <point x="519.8866666666667" y="740.7066666666667" type="line"/>
      <point x="404.17333333333335" y="600.1666666666666" type="line"/>
    </contour>
  </outline>
</glyph>
<glyph name="m" format="2">
  <advance width="1544"/>
  <unicode hex="006D"/>
  <outline>
    <contour>
      <point x="148.0" y="0.0" type="line"/>
      <point x="326.85333333333335" y="0.0" type="line"/>
      <point x="326.85333333333335" y="808.7333333333333" type="line"/>
      <point x="360" y="882"/>
      <point x="442" y="949"/>
      <point x="532.5066666666667" y="949.4666666666667" type="curve" smooth="yes"/>
      <point x="618" y="949"/>
      <point x="687" y="895"/>
      <point x="686.8" y="768.0666666666666" type="curve" smooth="yes"/>
      <point x="686.8" y="0.0" type="line"/>
      <point x="866.5466666666666" y="0.0" type="line"/>
      <point x="866.5466666666666" y="808.7333333333333" type="line"/>
      <point x="895" y="882"/>
      <point x="967" y="949"/>
      <point x="1068.6266666666666" y="949.4666666666667" type="curve" smooth="yes"/>
      <point x="1167" y="949"/>
      <point x="1226" y="896"/>
      <point x="1226.4933333333333" y="766.28" type="curve" smooth="yes"/>
      <point x="1226.4933333333333" y="0.0" type="line"/>
      <point x="1406.24" y="0.0" type="line"/>
      <point x="1406.24" y="791.9733333333334" type="line" smooth="yes"/>
      <point x="1406" y="974"/>
      <point x="1299" y="1101"/>
      <point x="1117.2" y="1101.0" type="curve" smooth="yes"/>
      <point x="995" y="1101"/>
      <point x="904" y="1040"/>
      <point x="839.0133333333333" y="928.36" type="curve"/>
      <point x="834.8" y="928.36" type="line"/>
      <point x="791" y="1047"/>
      <point x="705" y="1101"/>
      <point x="583.04" y="1101.0" type="curve" smooth="yes"/>
      <point x="475" y="1101"/>
      <point x="386" y="1049"/>
      <point x="322.85333333333335" y="959.4" type="curve"/>
      <point x="318.64" y="959.4" type="line"/>
      <point x="311.53333333333336" y="1081.0" type="line"/>
      <point x="148.0" y="1081.0" type="line"/>
    </contour>
  </outline>
</glyph>
<glyph name="n" format="2">
  <advance width="1025"/>
  <unicode hex="006E"/>
  <outline>
    <contour>
      <point x="148.0" y="0.0" type="line"/>
      <point x="326.85333333333335" y="0.0" type="line"/>
      <point x="326.85333333333335" y="799.8" type="line"/>
      <point x="359" y="875"/>
      <point x="432" y="949"/>
      <point x="537.1466666666666" y="949.4666666666667" type="curve" smooth="yes"/>
      <point x="654" y="949"/>
      <point x="708" y="886"/>
      <point x="707.6933333333334" y="735.9066666666666" type="curve" smooth="yes"/>
      <point x="707.6933333333334" y="0.0" type="line"/>
      <point x="886.5466666666666" y="0.0" type="line"/>
      <point x="886.5466666666666" y="724.9733333333334" type="line" smooth="yes"/>
      <point x="887" y="997"/>
      <point x="774" y="1101"/>
      <point x="593.04" y="1101.0" type="curve" smooth="yes"/>
      <point x="481" y="1101"/>
      <point x="386" y="1049"/>
      <point x="322.85333333333335" y="959.4" type="curve"/>
      <point x="318.64" y="959.4" type="line"/>
      <point x="311.53333333333336" y="1081.0" type="line"/>
      <point x="148.0" y="1081.0" type="line"/>
    </contour>
  </outline>
</glyph>
<glyph name="o" format="2">
  <advance width="1032"/>
  <unicode hex="006F"/>
  <outline>
    <contour>
      <point x="85.0" y="524.5" type="line" smooth="yes"/>
      <point x="85" y="173"/>
      <point x="252" y="-30"/>
      <point x="515.7866666666666" y="-30.0" type="curve" smooth="yes"/>
      <point x="779" y="-30"/>
      <point x="947" y="173"/>
      <point x="947.4666666666667" y="524.5" type="curve" smooth="yes"/>
      <point x="947.4666666666667" y="556.5" type="line" smooth="yes"/>
      <point x="947" y="908"/>
      <point x="779" y="1111"/>
      <point x="515.7866666666666" y="1111.0" type="curve" smooth="yes"/>
      <point x="252" y="1111"/>
      <point x="85" y="908"/>
      <point x="85.0" y="556.5" type="curve" smooth="yes"/>
    </contour>
    <contour>
      <point x="267.85333333333335" y="583.3" type="line" smooth="yes"/>
      <point x="268" y="812"/>
      <point x="343" y="963"/>
      <point x="515.7866666666666" y="962.5733333333334" type="curve" smooth="yes"/>
      <point x="688" y="963"/>
      <point x="765" y="818"/>
      <point x="764.6133333333333" y="583.3" type="curve" smooth="yes"/>
      <point x="764.6133333333333" y="497.7" type="line" smooth="yes"/>
      <point x="765" y="269"/>
      <point x="681" y="118"/>
      <point x="515.7866666666666" y="118.42666666666666" type="curve" smooth="yes"/>
      <point x="350" y="118"/>
      <point x="268" y="269"/>
      <point x="267.85333333333335" y="497.7" type="curve" smooth="yes"/>
    </contour>
  </outline>
</glyph>
<glyph name="p" format="2">
  <advance width="1047"/>
  <unicode hex="0070"/>
  <outline>
    <contour>
      <point x="148.0" y="-416.0" type="line"/>
      <point x="326.85333333333335" y="-416.0" type="line"/>
      <point x="326.85333333333335" y="104.34666666666666" type="line"/>
      <point x="379" y="24"/>
      <point x="464" y="-20"/>
      <point x="587.8266666666667" y="-20.0" type="curve" smooth="yes"/>
      <point x="816" y="-20"/>
      <point x="962" y="208"/>
      <point x="961.72" y="524.5" type="curve" smooth="yes"/>
      <point x="961.72" y="556.5" type="line" smooth="yes"/>
      <point x="962" y="873"/>
      <point x="816" y="1101"/>
      <point x="587.8266666666667" y="1101.0" type="curve" smooth="yes"/>
      <point x="464" y="1101"/>
      <point x="368" y="1039"/>
      <point x="322.85333333333335" y="957.4" type="curve"/>
      <point x="318.64" y="957.4" type="line"/>
      <point x="311.53333333333336" y="1081.0" type="line"/>
      <point x="148.0" y="1081.0" type="line"/>
    </contour>
    <contour>
      <point x="326.85333333333335" y="279.84000000000003" type="curve"/>
      <point x="326.85333333333335" y="799.3733333333333" type="line"/>
      <point x="359" y="874"/>
      <point x="438" y="953"/>
      <point x="549.6133333333333" y="952.5733333333334" type="curve" smooth="yes"/>
      <point x="705" y="953"/>
      <point x="779" y="808"/>
      <point x="778.8666666666667" y="583.3" type="curve" smooth="yes"/>
      <point x="778.8666666666667" y="497.7" type="line" smooth="yes"/>
      <point x="779" y="273"/>
      <point x="703" y="128"/>
      <point x="545.1466666666666" y="128.42666666666668" type="curve" smooth="yes"/>
      <point x="426" y="128"/>
      <point x="355" y="215"/>
    </contour>
  </outline>
</glyph>
<glyph name="q" format="2">
  <advance width="1047"/>
  <unicode hex="0071"/>
  <outline>
    <contour>
      <point x="85.0" y="524.5" type="line" smooth="yes"/>
      <point x="85" y="208"/>
      <point x="230" y="-20"/>
      <point x="458.8933333333333" y="-20.0" type="curve" smooth="yes"/>
      <point x="582" y="-20"/>
      <point x="668" y="31"/>
      <point x="719.8666666666667" y="110.6" type="curve"/>
      <point x="719.8666666666667" y="110.85" type="line"/>
      <point x="719.8666666666667" y="-416.0" type="line"/>
      <point x="898.72" y="-416.0" type="line"/>
      <point x="898.72" y="1081.0" type="line"/>
      <point x="735.1866666666667" y="1081.0" type="line"/>
      <point x="728.08" y="957.4" type="line"/>
      <point x="723.8666666666667" y="957.4" type="line"/>
      <point x="679" y="1039"/>
      <point x="582" y="1101"/>
      <point x="458.8933333333333" y="1101.0" type="curve" smooth="yes"/>
      <point x="230" y="1101"/>
      <point x="85" y="873"/>
      <point x="85.0" y="556.5" type="curve" smooth="yes"/>
    </contour>
    <contour>
      <point x="267.85333333333335" y="497.7" type="curve" smooth="yes"/>
      <point x="267.85333333333335" y="583.3" type="line" smooth="yes"/>
      <point x="268" y="821"/>
      <point x="349" y="953"/>
      <point x="510.50666666666666" y="952.5733333333334" type="curve" smooth="yes"/>
      <point x="621" y="953"/>
      <point x="690" y="874"/>
      <point x="719.8666666666667" y="799.3733333333333" type="curve"/>
      <point x="719.8666666666667" y="290.56" type="line"/>
      <point x="686" y="205"/>
      <point x="609" y="128"/>
      <point x="501.5733333333333" y="128.42666666666668" type="curve" smooth="yes"/>
      <point x="340" y="128"/>
      <point x="268" y="273"/>
    </contour>
  </outline>
</glyph>
<glyph name="r" format="2">
  <advance width="632"/>
  <unicode hex="0072"/>
  <outline>
    <contour>
      <point x="148.0" y="0.0" type="line"/>
      <point x="326.85333333333335" y="0.0" type="line"/>
      <point x="326.85333333333335" y="790.44" type="line"/>
      <point x="360" y="876"/>
      <point x="427" y="938"/>
      <point x="522.8266666666667" y="938.36" type="curve" smooth="yes"/>
      <point x="553" y="938"/>
      <point x="578" y="936"/>
      <point x="602.1066666666667" y="930.36" type="curve"/>
      <point x="602.1066666666667" y="1097.0" type="line"/>
      <point x="590" y="1102"/>
      <point x="558" y="1111"/>
      <point x="531.04" y="1111.0" type="curve" smooth="yes"/>
      <point x="436" y="1111"/>
      <point x="367" y="1044"/>
      <point x="322.85333333333335" y="963.8666666666667" type="curve"/>
      <point x="318.64" y="963.8666666666667" type="line"/>
      <point x="311.53333333333336" y="1081.0" type="line"/>
      <point x="148.0" y="1081.0" type="line"/>
    </contour>
  </outline>
</glyph>
<glyph name="s" format="2">
  <advance width="897"/>
  <unicode hex="0073"/>
  <outline>
    <contour>
      <point x="80.0" y="315.0" type="line"/>
      <point x="80.0" y="310.0" type="line" smooth="yes"/>
      <point x="80" y="95"/>
      <point x="200" y="-30"/>
      <point x="452.82666666666665" y="-30.0" type="curve" smooth="yes"/>
      <point x="697" y="-30"/>
      <point x="817" y="98"/>
      <point x="817.44" y="294.1066666666667" type="curve" smooth="yes"/>
      <point x="817" y="481"/>
      <point x="711" y="570"/>
      <point x="518.72" y="628.2466666666667" type="curve" smooth="yes"/>
      <point x="325" y="687"/>
      <point x="287" y="731"/>
      <point x="286.89" y="818.4666666666667" type="curve" smooth="yes"/>
      <point x="287" y="910"/>
      <point x="340" y="966"/>
      <point x="454.26" y="966.1466666666666" type="curve" smooth="yes"/>
      <point x="569" y="966"/>
      <point x="623" y="914"/>
      <point x="622.8066666666666" y="800.5766666666667" type="curve" smooth="yes"/>
      <point x="622.8066666666666" y="778.2833333333333" type="line"/>
      <point x="800.66" y="778.2833333333333" type="line"/>
      <point x="800.66" y="783.2833333333333" type="line" smooth="yes"/>
      <point x="801" y="998"/>
      <point x="669" y="1111"/>
      <point x="454.26" y="1111.0" type="curve" smooth="yes"/>
      <point x="245" y="1111"/>
      <point x="109" y="988"/>
      <point x="109.14333333333333" y="804.8933333333333" type="curve" smooth="yes"/>
      <point x="109" y="637"/>
      <point x="219" y="542"/>
      <point x="411.5733333333333" y="485.75333333333333" type="curve" smooth="yes"/>
      <point x="604" y="429"/>
      <point x="638" y="375"/>
      <point x="638.1566666666666" y="278.74666666666667" type="curve" smooth="yes"/>
      <point x="638" y="176"/>
      <point x="569" y="115"/>
      <point x="452.82666666666665" y="114.85333333333334" type="curve" smooth="yes"/>
      <point x="337" y="115"/>
      <point x="259" y="182"/>
      <point x="258.85333333333335" y="310.0" type="curve" smooth="yes"/>
      <point x="258.85333333333335" y="315.0" type="line"/>
    </contour>
  </outline>
</glyph>
<glyph name="t" format="2">
  <advance width="578"/>
  <unicode hex="0074"/>
  <outline>
    <contour>
      <point x="0.0" y="942.5733333333334" type="line"/>
      <point x="527.64" y="942.5733333333334" type="line"/>
      <point x="527.64" y="1081.0" type="line"/>
      <point x="0.0" y="1081.0" type="line"/>
    </contour>
    <contour>
      <point x="157.62666666666667" y="260.0" type="line" smooth="yes"/>
      <point x="158" y="59"/>
      <point x="246" y="-30"/>
      <point x="384.61333333333334" y="-30.0" type="curve" smooth="yes"/>
      <point x="443" y="-30"/>
      <point x="493" y="-16"/>
      <point x="523.1733333333333" y="0.0" type="curve"/>
      <point x="523.1733333333333" y="143.06666666666666" type="line"/>
      <point x="492" y="132"/>
      <point x="463" y="126"/>
      <point x="431.93333333333334" y="125.53333333333333" type="curve" smooth="yes"/>
      <point x="365" y="126"/>
      <point x="336" y="153"/>
      <point x="336.48" y="253.74666666666667" type="curve" smooth="yes"/>
      <point x="336.48" y="1322.0" type="line"/>
      <point x="157.62666666666667" y="1322.0" type="line"/>
      <point x="157.62666666666667" y="1026.7866666666666" type="line"/>
      <point x="157.62666666666667" y="996.7866666666666" type="line"/>
    </contour>
  </outline>
</glyph>
<glyph name="u" format="2">
  <advance width="1025"/>
  <unicode hex="0075"/>
  <outline>
    <contour>
      <point x="138.0" y="356.02666666666664" type="line" smooth="yes"/>
      <point x="138" y="84"/>
      <point x="255" y="-20"/>
      <point x="422.5733333333333" y="-20.0" type="curve" smooth="yes"/>
      <point x="557" y="-20"/>
      <point x="640" y="30"/>
      <point x="700.8" y="103.73333333333333" type="curve"/>
      <point x="706.8" y="103.73333333333333" type="line"/>
      <point x="713.0133333333333" y="0.0" type="line"/>
      <point x="876.5466666666666" y="0.0" type="line"/>
      <point x="876.5466666666666" y="1081.0" type="line"/>
      <point x="697.6933333333334" y="1081.0" type="line"/>
      <point x="697.6933333333334" y="272.26666666666665" type="line"/>
      <point x="652" y="185"/>
      <point x="589" y="132"/>
      <point x="486.50666666666666" y="131.53333333333333" type="curve" smooth="yes"/>
      <point x="369" y="132"/>
      <point x="317" y="195"/>
      <point x="316.85333333333335" y="354.02666666666664" type="curve" smooth="yes"/>
      <point x="316.85333333333335" y="1081.0" type="line"/>
      <point x="138.0" y="1081.0" type="line"/>
    </contour>
  </outline>
</glyph>
<glyph name="v" format="2">
  <advance width="824"/>
  <unicode hex="0076"/>
  <outline>
    <contour>
      <point x="0.0" y="1081.0" type="line"/>
      <point x="341.04" y="0.0" type="line"/>
      <point x="483.04" y="0.0" type="line"/>
      <point x="824.08" y="1081.0" type="line"/>
      <point x="648.9733333333334" y="1081.0" type="line"/>
      <point x="450.5733333333333" y="383.94" type="line" smooth="yes"/>
      <point x="436" y="330"/>
      <point x="423" y="286"/>
      <point x="417.79" y="228.57333333333332" type="curve"/>
      <point x="411.79" y="228.57333333333332" type="line"/>
      <point x="405" y="286"/>
      <point x="394" y="330"/>
      <point x="379.00666666666666" y="383.94" type="curve" smooth="yes"/>
      <point x="180.0" y="1081.0" type="line"/>
    </contour>
  </outline>
</glyph>
<glyph name="w" format="2">
  <advance width="1358"/>
  <unicode hex="0077"/>
  <outline>
    <contour>
      <point x="25.0" y="1081.0" type="line"/>
      <point x="291.93333333333334" y="0.0" type="line"/>
      <point x="451.2266666666667" y="0.0" type="line"/>
      <point x="638.24" y="678.4533333333334" type="line" smooth="yes"/>
      <point x="653" y="732"/>
      <point x="665" y="785"/>
      <point x="674.4133333333333" y="838.4533333333334" type="curve"/>
      <point x="680.4133333333333" y="838.4533333333334" type="line"/>
      <point x="689" y="785"/>
      <point x="703" y="732"/>
      <point x="717.48" y="678.4533333333334" type="curve" smooth="yes"/>
      <point x="907.1733333333334" y="0.0" type="line"/>
      <point x="1066.4666666666667" y="0.0" type="line"/>
      <point x="1332.5066666666667" y="1081.0" type="line"/>
      <point x="1166.08" y="1081.0" type="line"/>
      <point x="1018.6733333333334" y="393.94" type="line" smooth="yes"/>
      <point x="1008" y="340"/>
      <point x="995" y="292"/>
      <point x="988.0666666666666" y="238.57333333333332" type="curve"/>
      <point x="982.0666666666666" y="238.57333333333332" type="line"/>
      <point x="975" y="292"/>
      <point x="965" y="340"/>
      <point x="950.39" y="393.94" type="curve" smooth="yes"/>
      <point x="763.0933333333334" y="1081.0" type="line"/>
      <point x="602.6266666666667" y="1081.0" type="line"/>
      <point x="415.22" y="393.94" type="line" smooth="yes"/>
      <point x="401" y="340"/>
      <point x="389" y="292"/>
      <point x="382.50666666666666" y="238.57333333333332" type="curve"/>
      <point x="376.50666666666666" y="238.57333333333332" type="line"/>
      <point x="371" y="292"/>
      <point x="359" y="340"/>
      <point x="347.08" y="393.94" type="curve" smooth="yes"/>
      <point x="198.74666666666667" y="1081.0" type="line"/>
    </contour>
  </outline>
</glyph>
<glyph name="x" format="2">
  <advance width="860"/>
  <unicode hex="0078"/>
  <outline>
    <contour>
      <point x="20.0" y="0.0" type="line"/>
      <point x="210.34666666666666" y="0.0" type="line"/>
      <point x="481.78666666666663" y="500.2866666666667" type="line"/>
      <point x="493.68" y="500.2866666666667" type="line"/>
      <point x="822.76" y="1081.0" type="line"/>
      <point x="631.52" y="1081.0" type="line"/>
      <point x="372.93333333333334" y="594.7133333333334" type="line"/>
      <point x="362.82666666666665" y="594.7133333333334" type="line"/>
    </contour>
    <contour>
      <point x="38.21333333333333" y="1081.0" type="line"/>
      <point x="368.18666666666667" y="500.2866666666667" type="line"/>
      <point x="371.72" y="500.2866666666667" type="line"/>
      <point x="647.6266666666667" y="0.0" type="line"/>
      <point x="840.08" y="0.0" type="line"/>
      <point x="497.25333333333333" y="594.7133333333334" type="line"/>
      <point x="494.61333333333334" y="594.7133333333334" type="line"/>
      <point x="230.66666666666666" y="1081.0" type="line"/>
    </contour>
  </outline>
</glyph>
<glyph name="y" format="2">
  <advance width="837"/>
  <unicode hex="0079"/>
  <outline>
    <contour>
      <point x="51.78666666666667" y="-416.0" type="line"/>
      <point x="83" y="-429"/>
      <point x="117" y="-436"/>
      <point x="164.81333333333333" y="-436.0" type="curve" smooth="yes"/>
      <point x="308" y="-436"/>
      <point x="395" y="-351"/>
      <point x="482.84000000000003" y="-71.21333333333334" type="curve" smooth="yes"/>
      <point x="836.5866666666667" y="1081.0" type="line"/>
      <point x="662.3733333333333" y="1081.0" type="line"/>
      <point x="468.18" y="382.50666666666666" type="line" smooth="yes"/>
      <point x="453" y="329"/>
      <point x="441" y="284"/>
      <point x="436.54333333333335" y="228.57333333333332" type="curve"/>
      <point x="430.54333333333335" y="228.57333333333332" type="line"/>
      <point x="425" y="284"/>
      <point x="415" y="329"/>
      <point x="398.7633333333333" y="382.50666666666666" type="curve" smooth="yes"/>
      <point x="196.25333333333333" y="1081.0" type="line"/>
      <point x="16.253333333333334" y="1081.0" type="line"/>
      <point x="355.1533333333333" y="10.716666666666667" type="line"/>
      <point x="345.4033333333333" y="-17.53333333333333" type="line"/>
      <point x="268" y="-270"/>
      <point x="235" y="-280"/>
      <point x="155.70666666666668" y="-280.46666666666664" type="curve" smooth="yes"/>
      <point x="121" y="-280"/>
      <point x="82" y="-273"/>
      <point x="51.78666666666667" y="-262.46666666666664" type="curve"/>
    </contour>
  </outline>
</glyph>
<glyph name="z" format="2">
  <advance width="823"/>
  <unicode hex="007A"/>
  <outline>
    <contour>
      <point x="56.6" y="0.0" type="line"/>
      <point x="771.6666666666666" y="0.0" type="line"/>
      <point x="771.6666666666666" y="148.42666666666668" type="line"/>
      <point x="254.66" y="148.42666666666668" type="line"/>
      <point x="745.24" y="950.68" type="line"/>
      <point x="745.24" y="1081.0" type="line"/>
      <point x="63.70666666666666" y="1081.0" type="line"/>
      <point x="63.70666666666666" y="932.5733333333334" type="line"/>
      <point x="545.1800000000001" y="932.5733333333334" type="line"/>
      <point x="56.6" y="133.32" type="line"/>
    </contour>
  </outline>
</glyph>
<glyph name="braceleft" format="2">
  <advance width="693"/>
  <unicode hex="007B"/>
  <outline>
    <contour>
      <point x="619.08" y="-312.0" type="curve"/>
      <point x="619.08" y="-169.57333333333332" type="line"/>
      <point x="461" y="-170"/>
      <point x="371" y="-71"/>
      <point x="407.53333333333336" y="105.13333333333333" type="curve" smooth="yes"/>
      <point x="454.85333333333335" y="334.0" type="line" smooth="yes"/>
      <point x="479" y="447"/>
      <point x="434" y="533"/>
      <point x="301.28" y="574.0" type="curve"/>
      <point x="434" y="615"/>
      <point x="479" y="701"/>
      <point x="454.85333333333335" y="814.0" type="curve" smooth="yes"/>
      <point x="407.53333333333336" y="1042.8666666666666" type="line" smooth="yes"/>
      <point x="371" y="1219"/>
      <point x="461" y="1318"/>
      <point x="619.08" y="1317.5733333333333" type="curve"/>
      <point x="619.08" y="1460.0" type="line"/>
      <point x="356" y="1460"/>
      <point x="184" y="1261"/>
      <point x="228.68" y="1042.8666666666666" type="curve" smooth="yes"/>
      <point x="276.0" y="814.0" type="line" smooth="yes"/>
      <point x="306" y="669"/>
      <point x="221" y="638"/>
      <point x="87.22666666666666" y="638.2133333333334" type="curve"/>
      <point x="87.22666666666666" y="509.7866666666667" type="line"/>
      <point x="221" y="510"/>
      <point x="306" y="479"/>
      <point x="276.0" y="334.0" type="curve" smooth="yes"/>
      <point x="228.68" y="105.13333333333333" type="line" smooth="yes"/>
      <point x="184" y="-113"/>
      <point x="356" y="-312"/>
    </contour>
  </outline>
</glyph>
<glyph name="bar" format="2">
  <advance width="585"/>
  <unicode hex="007C"/>
  <outline>
    <contour>
      <point x="210.0" y="-416.0" type="line"/>
      <point x="374.85333333333335" y="-416.0" type="line"/>
      <point x="374.85333333333335" y="1464.5333333333333" type="line"/>
      <point x="210.0" y="1464.5333333333333" type="line"/>
    </contour>
  </outline>
</glyph>
<glyph name="braceright" format="2">
  <advance width="693"/>
  <unicode hex="007D"/>
  <outline>
    <contour>
      <point x="73.77333333333334" y="-312.0" type="line"/>
      <point x="337" y="-312"/>
      <point x="510" y="-113"/>
      <point x="464.17333333333335" y="105.13333333333333" type="curve" smooth="yes"/>
      <point x="416.85333333333335" y="334.0" type="line" smooth="yes"/>
      <point x="387" y="479"/>
      <point x="472" y="510"/>
      <point x="605.6266666666667" y="509.7866666666667" type="curve"/>
      <point x="605.6266666666667" y="638.2133333333334" type="line"/>
      <point x="472" y="638"/>
      <point x="387" y="669"/>
      <point x="416.85333333333335" y="814.0" type="curve" smooth="yes"/>
      <point x="464.17333333333335" y="1042.8666666666666" type="line" smooth="yes"/>
      <point x="510" y="1261"/>
      <point x="337" y="1460"/>
      <point x="73.77333333333334" y="1460.0" type="curve"/>
      <point x="73.77333333333334" y="1317.5733333333333" type="line"/>
      <point x="231" y="1318"/>
      <point x="322" y="1219"/>
      <point x="285.32" y="1042.8666666666666" type="curve" smooth="yes"/>
      <point x="238.0" y="814.0" type="line" smooth="yes"/>
      <point x="214" y="701"/>
      <point x="259" y="615"/>
      <point x="391.5733333333333" y="574.0" type="curve"/>
      <point x="259" y="533"/>
      <point x="214" y="447"/>
      <point x="238.0" y="334.0" type="curve" smooth="yes"/>
      <point x="285.32" y="105.13333333333333" type="line" smooth="yes"/>
      <point x="322" y="-71"/>
      <point x="231" y="-170"/>
      <point x="73.77333333333334" y="-169.57333333333332" type="curve"/>
    </contour>
  </outline>
</glyph>
<glyph name="asciitilde" format="2">
  <advance width="1154"/>
  <unicode hex="007E"/>
  <outline>
    <contour>
      <point x="270.12" y="532.0" type="line"/>
      <point x="307" y="603"/>
      <point x="353" y="638"/>
      <point x="415.85333333333335" y="637.56" type="curve" smooth="yes"/>
      <point x="467" y="638"/>
      <point x="519" y="619"/>
      <point x="590.1066666666667" y="585.1066666666667" type="curve" smooth="yes"/>
      <point x="651" y="556"/>
      <point x="700" y="540"/>
      <point x="746.4666666666667" y="540.2266666666667" type="curve" smooth="yes"/>
      <point x="810" y="540"/>
      <point x="856" y="571"/>
      <point x="890.4533333333334" y="626.0" type="curve"/>
      <point x="890.4533333333334" y="829.0" type="line"/>
      <point x="855" y="761"/>
      <point x="810" y="722"/>
      <point x="743.68" y="722.44" type="curve" smooth="yes"/>
      <point x="698" y="722"/>
      <point x="651" y="738"/>
      <point x="589.1066666666667" y="768.2133333333334" type="curve" smooth="yes"/>
      <point x="518" y="803"/>
      <point x="464" y="821"/>
      <point x="412.28" y="820.6666666666666" type="curve" smooth="yes"/>
      <point x="352" y="821"/>
      <point x="306" y="792"/>
      <point x="270.12" y="734.0" type="curve"/>
    </contour>
  </outline>
</glyph>
<glyph name="exclamdown" format="2">
  <advance width="613"/>
  <unicode hex="00A1"/>
  <outline>
    <contour>
      <point x="426.85333333333335" y="1054.7866666666666" type="curve" smooth="yes"/>
      <point x="427" y="1119"/>
      <point x="384" y="1172"/>
      <point x="306.4266666666667" y="1172.0" type="curve" smooth="yes"/>
      <point x="228" y="1172"/>
      <point x="186" y="1119"/>
      <point x="186.0" y="1054.7866666666666" type="curve" smooth="yes"/>
      <point x="186" y="990"/>
      <point x="228" y="938"/>
      <point x="306.4266666666667" y="937.5733333333334" type="curve" smooth="yes"/>
      <point x="384" y="938"/>
      <point x="427" y="990"/>
    </contour>
    <contour>
      <point x="385.74666666666667" y="740.0" type="line"/>
      <point x="228.0" y="740.0" type="line"/>
      <point x="213.89333333333335" y="-306.0" type="line"/>
      <point x="399.85333333333335" y="-306.0" type="line"/>
    </contour>
  </outline>
</glyph>
<glyph name="cent" format="2">
  <advance width="944"/>
  <unicode hex="00A2"/>
  <outline>
    <contour>
      <point x="496.08" y="282.0" type="curve" smooth="yes"/>
      <point x="643" y="282"/>
      <point x="703" y="381"/>
      <point x="703.7333333333333" y="504.50666666666666" type="curve"/>
      <point x="876.16" y="504.50666666666666" type="line"/>
      <point x="875" y="298"/>
      <point x="746" y="134"/>
      <point x="497.8666666666667" y="133.57333333333332" type="curve" smooth="yes"/>
      <point x="240" y="134"/>
      <point x="83" y="334"/>
      <point x="82.86666666666667" y="673.5733333333334" type="curve" smooth="yes"/>
      <point x="82.86666666666667" y="706.64" type="line" smooth="yes"/>
      <point x="83" y="1046"/>
      <point x="238" y="1247"/>
      <point x="505.0133333333333" y="1246.64" type="curve" smooth="yes"/>
      <point x="746" y="1247"/>
      <point x="875" y="1082"/>
      <point x="876.16" y="872.5066666666667" type="curve"/>
      <point x="703.7333333333333" y="872.5066666666667" type="line"/>
      <point x="703" y="997"/>
      <point x="650" y="1097"/>
      <point x="504.12" y="1097.32" type="curve" smooth="yes"/>
      <point x="340" y="1097"/>
      <point x="265" y="951"/>
      <point x="265.29333333333335" y="733.44" type="curve" smooth="yes"/>
      <point x="265.29333333333335" y="646.7733333333333" type="line" smooth="yes"/>
      <point x="265" y="429"/>
      <point x="337" y="282"/>
    </contour>
    <contour>
      <point x="407.36" y="0.0" type="line"/>
      <point x="557.36" y="0.0" type="line"/>
      <point x="557.36" y="240.0" type="line"/>
      <point x="552.36" y="250.0" type="line"/>
      <point x="552.36" y="708.0" type="line"/>
      <point x="412.36" y="708.0" type="line"/>
      <point x="412.36" y="251.0" type="line"/>
      <point x="407.36" y="237.0" type="line"/>
    </contour>
    <contour>
      <point x="412.36" y="708.0" type="line"/>
      <point x="552.36" y="708.0" type="line"/>
      <point x="552.36" y="1179.0" type="line"/>
      <point x="557.36" y="1192.0" type="line"/>
      <point x="557.36" y="1402.0" type="line"/>
      <point x="407.36" y="1402.0" type="line"/>
      <point x="407.36" y="1192.0" type="line"/>
      <point x="412.36" y="1182.0" type="line"/>
    </contour>
  </outline>
</glyph>
<glyph name="sterling" format="2">
  <advance width="943"/>
  <unicode hex="00A3"/>
  <outline>
    <contour>
      <point x="938.6666666666666" y="0.0" type="line"/>
      <point x="938.6666666666666" y="166.0" type="line"/>
      <point x="322.0" y="166.0" type="line"/>
      <point x="416" y="221"/>
      <point x="451" y="326"/>
      <point x="434.0" y="508.0" type="curve" smooth="yes"/>
      <point x="383.0" y="1039.0" type="line" smooth="yes"/>
      <point x="367" y="1215"/>
      <point x="423" y="1309"/>
      <point x="538.3333333333334" y="1309.0" type="curve" smooth="yes"/>
      <point x="644" y="1309"/>
      <point x="703" y="1238"/>
      <point x="702.6666666666666" y="1103.0" type="curve" smooth="yes"/>
      <point x="702.6666666666666" y="1087.0" type="line"/>
      <point x="894.6666666666666" y="1087.0" type="line"/>
      <point x="894.6666666666666" y="1103.0" type="line" smooth="yes"/>
      <point x="895" y="1342"/>
      <point x="767" y="1476"/>
      <point x="536.3333333333334" y="1476.0" type="curve" smooth="yes"/>
      <point x="290" y="1476"/>
      <point x="168" y="1319"/>
      <point x="195.0" y="1039.0" type="curve" smooth="yes"/>
      <point x="250.0" y="467.0" type="line" smooth="yes"/>
      <point x="269" y="275"/>
      <point x="215" y="160"/>
      <point x="92.0" y="160.0" type="curve" smooth="yes"/>
      <point x="36.0" y="160.0" type="line"/>
      <point x="36.0" y="0.0" type="line"/>
    </contour>
    <contour>
      <point x="734.6666666666666" y="628.5733333333334" type="line"/>
      <point x="734.6666666666666" y="776.4266666666666" type="line"/>
      <point x="52.0" y="776.4266666666666" type="line"/>
      <point x="52.0" y="628.5733333333334" type="line"/>
    </contour>
  </outline>
</glyph>
<glyph name="currency" format="2">
  <advance width="1069"/>
  <unicode hex="00A4"/>
  <guideline x="0" y="901.0" angle="0" identifier="bRYxxRaQQf"/>
  <guideline x="0" y="555.0" angle="0" identifier="917FhrihjR"/>
  <outline>
    <contour>
      <point x="261.0" y="712.0" type="curve"/>
      <point x="261" y="904"/>
      <point x="356" y="1049"/>
      <point x="531.3333333333334" y="1049.0" type="curve" smooth="yes"/>
      <point x="706" y="1049"/>
      <point x="800" y="904"/>
      <point x="799.6666666666666" y="712.0" type="curve" smooth="yes"/>
      <point x="800" y="518"/>
      <point x="706" y="373"/>
      <point x="531.3333333333334" y="373.0" type="curve" smooth="yes"/>
      <point x="356" y="373"/>
      <point x="261" y="518"/>
    </contour>
    <contour>
      <point x="78.0" y="718.0" type="curve"/>
      <point x="78" y="431"/>
      <point x="261" y="209"/>
      <point x="530.3333333333334" y="209.0" type="curve" smooth="yes"/>
      <point x="800" y="209"/>
      <point x="983" y="431"/>
      <point x="982.6666666666666" y="718.0" type="curve" smooth="yes"/>
      <point x="983" y="1006"/>
      <point x="800" y="1225"/>
      <point x="530.3333333333334" y="1225.0" type="curve" smooth="yes"/>
      <point x="261" y="1225"/>
      <point x="78" y="1006"/>
    </contour>
    <contour>
      <point x="1029.6666666666667" y="1176.0" type="line"/>
      <point x="907.6666666666666" y="1303.0" type="line"/>
      <point x="705.6666666666666" y="1097.0" type="line"/>
      <point x="827.6666666666666" y="970.0" type="line"/>
    </contour>
    <contour>
      <point x="335.0" y="354.0" type="line"/>
      <point x="133.0" y="148.0" type="line"/>
      <point x="12.0" y="274.0" type="line"/>
      <point x="214.0" y="479.0" type="line"/>
    </contour>
    <contour>
      <point x="933.6666666666666" y="155.0" type="line"/>
      <point x="1056.6666666666667" y="282.0" type="line"/>
      <point x="854.6666666666666" y="487.0" type="line"/>
      <point x="731.6666666666666" y="361.0" type="line"/>
    </contour>
    <contour>
      <point x="231.0" y="984.0" type="line"/>
      <point x="29.0" y="1190.0" type="line"/>
      <point x="150.0" y="1316.0" type="line"/>
      <point x="352.0" y="1110.0" type="line"/>
    </contour>
  </outline>
</glyph>
<glyph name="yen" format="2">
  <advance width="983"/>
  <unicode hex="00A5"/>
  <outline>
    <contour>
      <point x="59.0" y="311.0" type="line"/>
      <point x="931.7466666666667" y="311.0" type="line"/>
      <point x="931.7466666666667" y="470.0" type="line"/>
      <point x="59.0" y="470.0" type="line"/>
    </contour>
    <contour>
      <point x="59.0" y="621.0" type="line"/>
      <point x="931.7466666666667" y="621.0" type="line"/>
      <point x="931.7466666666667" y="775.0" type="line"/>
      <point x="604.6266666666667" y="775.0" type="line"/>
      <point x="556.6266666666667" y="669.0" type="line"/>
      <point x="447.62666666666667" y="669.0" type="line"/>
      <point x="394.62666666666667" y="775.0" type="line"/>
      <point x="59.0" y="775.0" type="line"/>
    </contour>
    <contour>
      <point x="405.62666666666667" y="0.0" type="line"/>
      <point x="589.6266666666667" y="0.0" type="line"/>
      <point x="589.6266666666667" y="548.0" type="line"/>
      <point x="1001.7466666666667" y="1456.0" type="line"/>
      <point x="800.7466666666667" y="1456.0" type="line"/>
      <point x="563.6266666666667" y="849.0" type="line" smooth="yes"/>
      <point x="545" y="809"/>
      <point x="522" y="754"/>
      <point x="509.62666666666667" y="679.0" type="curve"/>
      <point x="489.62666666666667" y="679.0" type="line"/>
      <point x="480" y="729"/>
      <point x="452" y="809"/>
      <point x="435.62666666666667" y="849.0" type="curve" smooth="yes"/>
      <point x="190.0" y="1456.0" type="line"/>
      <point x="-19.0" y="1456.0" type="line"/>
      <point x="405.62666666666667" y="548.0" type="line"/>
    </contour>
  </outline>
</glyph>
<glyph name="section" format="2">
  <advance width="1256"/>
  <unicode hex="00A7"/>
  <guideline x="0" y="1658.0" angle="0" identifier="QzZ5gIiCyn"/>
  <guideline x="0" y="578.0" angle="0" identifier="9Hxjf2sdFw"/>
  <outline>
    <contour>
      <point x="691.0" y="133.0" type="curve"/>
      <point x="691.0" y="252.0" type="line"/>
      <point x="818" y="252"/>
      <point x="909" y="340"/>
      <point x="909.3333333333334" y="463.0" type="curve"/>
      <point x="909" y="588"/>
      <point x="849" y="651"/>
      <point x="606.0" y="734.0" type="curve" smooth="yes"/>
      <point x="351" y="813"/>
      <point x="241" y="925"/>
      <point x="240.66666666666666" y="1129.0" type="curve" smooth="yes"/>
      <point x="241" y="1362"/>
      <point x="376" y="1490"/>
      <point x="623.0" y="1491.0" type="curve" smooth="yes"/>
      <point x="862" y="1492"/>
      <point x="996" y="1354"/>
      <point x="994.3333333333334" y="1100.0" type="curve"/>
      <point x="829.3333333333334" y="1100.0" type="line"/>
      <point x="831" y="1251"/>
      <point x="758" y="1337"/>
      <point x="623.0" y="1337.0" type="curve" smooth="yes"/>
      <point x="481" y="1337"/>
      <point x="406" y="1268"/>
      <point x="405.6666666666667" y="1140.0" type="curve" smooth="yes"/>
      <point x="406" y="1029"/>
      <point x="483" y="961"/>
      <point x="684.0" y="897.0" type="curve" smooth="yes"/>
      <point x="931" y="819"/>
      <point x="1090" y="711"/>
      <point x="1090.3333333333333" y="478.0" type="curve" smooth="yes"/>
      <point x="1090" y="274"/>
      <point x="922" y="133"/>
    </contour>
    <contour>
      <point x="545.9333333333333" y="894.0" type="curve"/>
      <point x="544.9333333333333" y="756.0" type="line"/>
      <point x="420" y="756"/>
      <point x="346" y="677"/>
      <point x="345.6666666666667" y="567.0" type="curve" smooth="yes"/>
      <point x="346" y="460"/>
      <point x="383" y="411"/>
      <point x="636.0" y="317.0" type="curve" smooth="yes"/>
      <point x="890" y="223"/>
      <point x="1003" y="99"/>
      <point x="1003.3333333333334" y="-113.0" type="curve" smooth="yes"/>
      <point x="1003" y="-368"/>
      <point x="857" y="-509"/>
      <point x="599.0" y="-509.0" type="curve" smooth="yes"/>
      <point x="331" y="-509"/>
      <point x="176" y="-358"/>
      <point x="175.66666666666666" y="-72.0" type="curve"/>
      <point x="339.6666666666667" y="-70.0" type="line"/>
      <point x="340" y="-257"/>
      <point x="438" y="-355"/>
      <point x="599.0" y="-355.0" type="curve" smooth="yes"/>
      <point x="751" y="-355"/>
      <point x="839" y="-278"/>
      <point x="839.3333333333334" y="-136.0" type="curve" smooth="yes"/>
      <point x="839" y="4"/>
      <point x="754" y="89"/>
      <point x="540.0" y="161.0" type="curve" smooth="yes"/>
      <point x="292" y="243"/>
      <point x="164" y="367"/>
      <point x="163.66666666666666" y="577.0" type="curve" smooth="yes"/>
      <point x="164" y="764"/>
      <point x="318" y="894"/>
    </contour>
  </outline>
</glyph>
<glyph name="dieresis" format="2">
  <advance width="1024"/>
  <unicode hex="00A8"/>
  <outline>
    <contour>
      <point x="222.73333333333335" y="1311.0" type="curve" smooth="yes"/>
      <point x="223" y="1253"/>
      <point x="261" y="1207"/>
      <point x="331.73333333333335" y="1207.0" type="curve" smooth="yes"/>
      <point x="404" y="1207"/>
      <point x="442" y="1253"/>
      <point x="441.73333333333335" y="1311.0" type="curve" smooth="yes"/>
      <point x="442" y="1371"/>
      <point x="404" y="1418"/>
      <point x="331.73333333333335" y="1418.0" type="curve" smooth="yes"/>
      <point x="261" y="1418"/>
      <point x="223" y="1371"/>
    </contour>
    <contour>
      <point x="582.2666666666667" y="1309.0" type="curve" smooth="yes"/>
      <point x="582" y="1251"/>
      <point x="619" y="1205"/>
      <point x="691.2666666666667" y="1205.0" type="curve" smooth="yes"/>
      <point x="762" y="1205"/>
      <point x="801" y="1251"/>
      <point x="801.2666666666667" y="1309.0" type="curve" smooth="yes"/>
      <point x="801" y="1369"/>
      <point x="762" y="1416"/>
      <point x="691.2666666666667" y="1416.0" type="curve" smooth="yes"/>
      <point x="619" y="1416"/>
      <point x="582" y="1369"/>
    </contour>
  </outline>
</glyph>
<glyph name="copyright" format="2">
  <advance width="1559"/>
  <unicode hex="00A9"/>
  <guideline x="0" y="901.0" angle="0" identifier="0Pjz0qKr8z"/>
  <guideline x="0" y="555.0" angle="0" identifier="sJo8BlDiJ7"/>
  <outline>
    <contour>
      <point x="937.9866666666667" y="546.0" type="line"/>
      <point x="938" y="427"/>
      <point x="886" y="362"/>
      <point x="790.6533333333333" y="362.0" type="curve" smooth="yes"/>
      <point x="674" y="362"/>
      <point x="609" y="454"/>
      <point x="609.32" y="621.0" type="curve" smooth="yes"/>
      <point x="609.32" y="747.0" type="line" smooth="yes"/>
      <point x="609" y="914"/>
      <point x="671" y="1006"/>
      <point x="781.6533333333333" y="1006.0" type="curve" smooth="yes"/>
      <point x="883" y="1006"/>
      <point x="939" y="943"/>
      <point x="938.9866666666667" y="829.0" type="curve"/>
      <point x="1120.9866666666667" y="829.0" type="line"/>
      <point x="1121" y="1047"/>
      <point x="1001" y="1170"/>
      <point x="782.6533333333333" y="1170.0" type="curve" smooth="yes"/>
      <point x="548" y="1170"/>
      <point x="416" y="1005"/>
      <point x="416.32" y="703.0" type="curve" smooth="yes"/>
      <point x="416.32" y="664.0" type="line" smooth="yes"/>
      <point x="416" y="367"/>
      <point x="542" y="205"/>
      <point x="765.6533333333333" y="205.0" type="curve" smooth="yes"/>
      <point x="990" y="205"/>
      <point x="1120" y="325"/>
      <point x="1119.9866666666667" y="546.0" type="curve"/>
    </contour>
    <contour>
      <point x="183.32" y="687.0" type="curve" smooth="yes"/>
      <point x="183" y="1073"/>
      <point x="426" y="1367"/>
      <point x="780.6533333333333" y="1367.0" type="curve" smooth="yes"/>
      <point x="1134" y="1367"/>
      <point x="1377" y="1073"/>
      <point x="1376.9866666666667" y="687.0" type="curve" smooth="yes"/>
      <point x="1377" y="302"/>
      <point x="1134" y="4"/>
      <point x="780.6533333333333" y="4.0" type="curve" smooth="yes"/>
      <point x="426" y="4"/>
      <point x="183" y="302"/>
    </contour>
    <contour>
      <point x="35.32" y="687.0" type="curve" smooth="yes"/>
      <point x="35" y="218"/>
      <point x="343" y="-147"/>
      <point x="779.6533333333333" y="-147.0" type="curve" smooth="yes"/>
      <point x="1215" y="-147"/>
      <point x="1524" y="218"/>
      <point x="1523.9866666666667" y="687.0" type="curve" smooth="yes"/>
      <point x="1524" y="1159"/>
      <point x="1215" y="1519"/>
      <point x="779.6533333333333" y="1519.0" type="curve" smooth="yes"/>
      <point x="343" y="1519"/>
      <point x="35" y="1159"/>
    </contour>
  </outline>
</glyph>
<glyph name="ordfeminine" format="2">
  <advance width="817"/>
  <unicode hex="00AA"/>
  <guideline x="0" y="1681.0" angle="0" identifier="3CJlALCfkl"/>
  <guideline x="0" y="909.0" angle="0" identifier="Zdl6NZVQAy"/>
  <outline>
    <contour>
      <point x="515.7733333333333" y="862.0" type="curve"/>
      <point x="515.7733333333333" y="1202.0" type="line" smooth="yes"/>
      <point x="516" y="1295"/>
      <point x="479" y="1346"/>
      <point x="411.50666666666666" y="1346.0" type="curve" smooth="yes"/>
      <point x="340" y="1346"/>
      <point x="301" y="1311"/>
      <point x="301.24" y="1247.0" type="curve" smooth="yes"/>
      <point x="301.24" y="1234.0" type="line"/>
      <point x="146.24" y="1234.0" type="line"/>
      <point x="146.24" y="1261.0" type="line" smooth="yes"/>
      <point x="146" y="1399"/>
      <point x="242" y="1477"/>
      <point x="409.50666666666666" y="1477.0" type="curve" smooth="yes"/>
      <point x="575" y="1477"/>
      <point x="668" y="1380"/>
      <point x="667.7733333333333" y="1201.0" type="curve" smooth="yes"/>
      <point x="667.7733333333333" y="887.0" type="line" smooth="yes"/>
      <point x="668" y="821"/>
      <point x="675" y="764"/>
      <point x="693.7733333333333" y="706.0" type="curve"/>
      <point x="558.7733333333333" y="706.0" type="line"/>
      <point x="528" y="746"/>
      <point x="516" y="807"/>
    </contour>
    <contour>
      <point x="544.7733333333333" y="1149.0" type="line"/>
      <point x="544.7733333333333" y="1042.0" type="line"/>
      <point x="423.50666666666666" y="1042.0" type="line" smooth="yes"/>
      <point x="330" y="1042"/>
      <point x="279" y="998"/>
      <point x="279.24" y="922.0" type="curve" smooth="yes"/>
      <point x="279" y="858"/>
      <point x="312" y="822"/>
      <point x="371.50666666666666" y="822.0" type="curve" smooth="yes"/>
      <point x="457" y="822"/>
      <point x="533" y="898"/>
      <point x="532.7733333333333" y="949.0" type="curve"/>
      <point x="550.7733333333333" y="837.0" type="line"/>
      <point x="538" y="771"/>
      <point x="468" y="692"/>
      <point x="332.50666666666666" y="692.0" type="curve" smooth="yes"/>
      <point x="197" y="692"/>
      <point x="122" y="773"/>
      <point x="122.24000000000001" y="918.0" type="curve" smooth="yes"/>
      <point x="122" y="1067"/>
      <point x="227" y="1149"/>
      <point x="422.50666666666666" y="1149.0" type="curve" smooth="yes"/>
    </contour>
  </outline>
</glyph>
<glyph name="guillemotleft" format="2">
  <advance width="1041"/>
  <unicode hex="00AB"/>
  <guideline x="0" y="901.0" angle="0" identifier="ZftBQarVKw"/>
  <guideline x="0" y="555.0" angle="0" identifier="MVJpdoVRVd"/>
  <outline>
    <contour>
      <point x="108.0" y="522.0" type="line"/>
      <point x="358.3333333333333" y="153.0" type="line"/>
      <point x="520.3333333333334" y="153.0" type="line"/>
      <point x="307.0" y="551.0" type="line"/>
      <point x="520.3333333333334" y="949.0" type="line"/>
      <point x="358.3333333333333" y="949.0" type="line"/>
      <point x="108.0" y="581.0" type="line"/>
    </contour>
    <contour>
      <point x="548.0" y="522.0" type="line"/>
      <point x="798.3333333333334" y="153.0" type="line"/>
      <point x="960.3333333333334" y="153.0" type="line"/>
      <point x="747.0" y="551.0" type="line"/>
      <point x="960.3333333333334" y="949.0" type="line"/>
      <point x="798.3333333333334" y="949.0" type="line"/>
      <point x="548.0" y="581.0" type="line"/>
    </contour>
  </outline>
</glyph>
<glyph name="logicalnot" format="2">
  <advance width="956"/>
  <unicode hex="00AC"/>
  <outline>
    <contour>
      <point x="838.6666666666666" y="801.0" type="line"/>
      <point x="58.0" y="801.0" type="line"/>
      <point x="58.0" y="642.36" type="line"/>
      <point x="659.0266666666666" y="642.36" type="line"/>
      <point x="659.0266666666666" y="376.0" type="line"/>
      <point x="838.6666666666666" y="376.0" type="line"/>
    </contour>
  </outline>
</glyph>
<glyph name="registered" format="2">
  <advance width="1559"/>
  <unicode hex="00AE"/>
  <outline>
    <contour>
      <point x="35.32" y="687.0" type="curve" smooth="yes"/>
      <point x="35" y="218"/>
      <point x="343" y="-147"/>
      <point x="779.6533333333333" y="-147.0" type="curve" smooth="yes"/>
      <point x="1215" y="-147"/>
      <point x="1524" y="218"/>
      <point x="1523.9866666666667" y="687.0" type="curve" smooth="yes"/>
      <point x="1524" y="1159"/>
      <point x="1215" y="1519"/>
      <point x="779.6533333333333" y="1519.0" type="curve" smooth="yes"/>
      <point x="343" y="1519"/>
      <point x="35" y="1159"/>
    </contour>
    <contour>
      <point x="183.32" y="687.0" type="curve" smooth="yes"/>
      <point x="183" y="1073"/>
      <point x="426" y="1367"/>
      <point x="780.6533333333333" y="1367.0" type="curve" smooth="yes"/>
      <point x="1134" y="1367"/>
      <point x="1377" y="1073"/>
      <point x="1376.9866666666667" y="687.0" type="curve" smooth="yes"/>
      <point x="1377" y="302"/>
      <point x="1134" y="4"/>
      <point x="780.6533333333333" y="4.0" type="curve" smooth="yes"/>
      <point x="426" y="4"/>
      <point x="183" y="302"/>
    </contour>
    <contour>
      <point x="807.6533333333333" y="597.0" type="line"/>
      <point x="949.9866666666667" y="225.0" type="line"/>
      <point x="1128.9866666666667" y="225.0" type="line"/>
      <point x="1128.9866666666667" y="243.0" type="line"/>
      <point x="996.6133333333333" y="530.0" type="line" smooth="yes"/>
      <point x="977" y="571"/>
      <point x="965" y="587"/>
      <point x="923.6133333333333" y="618.0" type="curve"/>
      <point x="1041" y="641"/>
      <point x="1105" y="733"/>
      <point x="1104.9866666666667" y="877.0" type="curve" smooth="yes"/>
      <point x="1105" y="1059"/>
      <point x="986" y="1158"/>
      <point x="773.6533333333333" y="1158.0" type="curve" smooth="yes"/>
      <point x="496.32" y="1158.0" type="line"/>
      <point x="496.32" y="225.0" type="line"/>
      <point x="661.32" y="225.0" type="line"/>
      <point x="661.32" y="597.0" type="line"/>
    </contour>
    <contour>
      <point x="774.6533333333333" y="1007.0" type="line" smooth="yes"/>
      <point x="874" y="1006"/>
      <point x="924" y="954"/>
      <point x="923.9866666666667" y="859.0" type="curve" smooth="yes"/>
      <point x="924" y="780"/>
      <point x="878" y="738"/>
      <point x="799.6533333333333" y="738.0" type="curve" smooth="yes"/>
      <point x="661.32" y="738.0" type="line"/>
      <point x="661.32" y="1007.0" type="line"/>
    </contour>
  </outline>
</glyph>
<glyph name="macron" format="2">
  <advance width="1024"/>
  <unicode hex="00AF"/>
  <outline>
    <contour>
      <point x="781.3333333333334" y="1430.0" type="line"/>
      <point x="242.66666666666666" y="1430.0" type="line"/>
      <point x="242.66666666666666" y="1278.0" type="line"/>
      <point x="781.3333333333334" y="1278.0" type="line"/>
    </contour>
  </outline>
</glyph>
<glyph name="degree" format="2">
  <advance width="765"/>
  <unicode hex="00B0"/>
  <outline>
    <contour>
      <point x="139.93333333333334" y="1217.0" type="curve"/>
      <point x="140" y="1068"/>
      <point x="243" y="960"/>
      <point x="386.0" y="960.0" type="curve" smooth="yes"/>
      <point x="526" y="960"/>
      <point x="628" y="1068"/>
      <point x="628.0666666666667" y="1217.0" type="curve" smooth="yes"/>
      <point x="628" y="1367"/>
      <point x="526" y="1477"/>
      <point x="386.0" y="1477.0" type="curve" smooth="yes"/>
      <point x="243" y="1477"/>
      <point x="140" y="1367"/>
    </contour>
    <contour>
      <point x="263.93333333333334" y="1217.0" type="curve"/>
      <point x="264" y="1294"/>
      <point x="315" y="1349"/>
      <point x="386.0" y="1349.0" type="curve" smooth="yes"/>
      <point x="455" y="1349"/>
      <point x="504" y="1294"/>
      <point x="504.06666666666666" y="1217.0" type="curve" smooth="yes"/>
      <point x="504" y="1142"/>
      <point x="455" y="1088"/>
      <point x="386.0" y="1088.0" type="curve" smooth="yes"/>
      <point x="315" y="1088"/>
      <point x="264" y="1142"/>
    </contour>
  </outline>
</glyph>
<glyph name="plusminus" format="2">
  <advance width="1024"/>
  <unicode hex="00B1"/>
  <outline>
    <contour>
      <point x="80.22666666666666" y="612.7866666666666" type="line"/>
      <point x="943.7733333333333" y="612.7866666666666" type="line"/>
      <point x="943.7733333333333" y="773.2133333333334" type="line"/>
      <point x="80.22666666666666" y="773.2133333333334" type="line"/>
    </contour>
    <contour>
      <point x="425.5733333333333" y="248.0" type="line"/>
      <point x="598.4266666666666" y="248.0" type="line"/>
      <point x="598.4266666666666" y="1160.0" type="line"/>
      <point x="425.5733333333333" y="1160.0" type="line"/>
    </contour>
    <contour>
      <point x="80.22666666666666" y="1.0" type="line"/>
      <point x="943.7733333333333" y="1.0" type="line"/>
      <point x="943.7733333333333" y="165.0" type="line"/>
      <point x="80.22666666666666" y="165.0" type="line"/>
    </contour>
  </outline>
</glyph>
<glyph name="twosuperior" format="2">
  <advance width="684"/>
  <unicode hex="00B2"/>
  <outline>
    <contour>
      <point x="78.74666666666667" y="697.0" type="line"/>
      <point x="623.1466666666666" y="697.0" type="line"/>
      <point x="623.1466666666666" y="845.0" type="line"/>
      <point x="298.88" y="845.0" type="line"/>
      <point x="417.08" y="971.0" type="line" smooth="yes"/>
      <point x="540" y="1092"/>
      <point x="592" y="1173"/>
      <point x="592.1466666666666" y="1251.0" type="curve" smooth="yes"/>
      <point x="592" y="1403"/>
      <point x="499" y="1487"/>
      <point x="332.94666666666666" y="1487.0" type="curve" smooth="yes"/>
      <point x="156" y="1487"/>
      <point x="59" y="1383"/>
      <point x="60.74666666666667" y="1198.0" type="curve"/>
      <point x="224.28" y="1198.0" type="line"/>
      <point x="223" y="1297"/>
      <point x="263" y="1351"/>
      <point x="336.94666666666666" y="1351.4666666666667" type="curve" smooth="yes"/>
      <point x="394" y="1351"/>
      <point x="426" y="1316"/>
      <point x="425.61333333333334" y="1249.0" type="curve" smooth="yes"/>
      <point x="426" y="1205"/>
      <point x="396" y="1157"/>
      <point x="313.14666666666665" y="1066.0" type="curve" smooth="yes"/>
      <point x="78.74666666666667" y="805.0" type="line"/>
    </contour>
  </outline>
</glyph>
<glyph name="threesuperior" format="2">
  <advance width="673"/>
  <unicode hex="00B3"/>
  <outline>
    <contour>
      <point x="60.32" y="915.5333333333333" type="line"/>
      <point x="60" y="767"/>
      <point x="158" y="686"/>
      <point x="331.52" y="686.0" type="curve" smooth="yes"/>
      <point x="509" y="686"/>
      <point x="611" y="768"/>
      <point x="610.72" y="917.0" type="curve" smooth="yes"/>
      <point x="611" y="1005"/>
      <point x="568" y="1067"/>
      <point x="476.72" y="1098.0" type="curve"/>
      <point x="557" y="1127"/>
      <point x="600" y="1195"/>
      <point x="599.72" y="1263.0" type="curve" smooth="yes"/>
      <point x="600" y="1408"/>
      <point x="502" y="1487"/>
      <point x="330.52" y="1487.0" type="curve" smooth="yes"/>
      <point x="166" y="1487"/>
      <point x="71" y="1405"/>
      <point x="71.32" y="1260.4666666666667" type="curve"/>
      <point x="228.32" y="1260.4666666666667" type="line"/>
      <point x="228" y="1320"/>
      <point x="267" y="1353"/>
      <point x="333.52" y="1353.4666666666667" type="curve" smooth="yes"/>
      <point x="400" y="1353"/>
      <point x="434" y="1319"/>
      <point x="434.18666666666667" y="1255.0" type="curve" smooth="yes"/>
      <point x="434" y="1191"/>
      <point x="417" y="1147"/>
      <point x="320.52" y="1146.5333333333333" type="curve" smooth="yes"/>
      <point x="263.32" y="1146.5333333333333" type="line"/>
      <point x="263.32" y="1033.4666666666667" type="line"/>
      <point x="320.52" y="1033.4666666666667" type="line" smooth="yes"/>
      <point x="418" y="1035"/>
      <point x="447" y="996"/>
      <point x="447.18666666666667" y="925.0" type="curve" smooth="yes"/>
      <point x="447" y="857"/>
      <point x="409" y="820"/>
      <point x="336.52" y="819.5333333333333" type="curve" smooth="yes"/>
      <point x="260" y="820"/>
      <point x="217" y="854"/>
      <point x="217.32" y="915.5333333333333" type="curve"/>
    </contour>
  </outline>
</glyph>
<glyph name="micro" format="2">
  <advance width="1085"/>
  <unicode hex="00B5"/>
  <outline>
    <contour>
      <point x="240.21333333333334" y="1052.0" type="line"/>
      <point x="-43.78666666666667" y="-416.0" type="line"/>
      <point x="135.06666666666666" y="-416.0" type="line"/>
      <point x="223.06666666666666" y="42.0" type="line"/>
      <point x="236" y="9"/>
      <point x="273" y="-20"/>
      <point x="342.6933333333333" y="-20.0" type="curve" smooth="yes"/>
      <point x="446" y="-20"/>
      <point x="543" y="39"/>
      <point x="625.9066666666666" y="135.0" type="curve"/>
      <point x="631.9066666666666" y="135.0" type="line"/>
      <point x="613.9066666666666" y="0.0" type="line"/>
      <point x="781.9066666666666" y="0.0" type="line"/>
      <point x="985.9066666666666" y="1052.0" type="line"/>
      <point x="799.9066666666666" y="1052.0" type="line"/>
      <point x="655.9066666666666" y="308.0" type="line"/>
      <point x="573" y="188"/>
      <point x="496" y="136"/>
      <point x="404.4666666666667" y="136.0" type="curve" smooth="yes"/>
      <point x="290" y="136"/>
      <point x="254" y="205"/>
      <point x="287.06666666666666" y="371.0" type="curve" smooth="yes"/>
      <point x="419.06666666666666" y="1052.0" type="line"/>
    </contour>
  </outline>
</glyph>
<glyph name="paragraph" format="2">
  <advance width="1080"/>
  <unicode hex="00B6"/>
  <guideline x="0" y="901.0" angle="0" identifier="27539Lsr1A"/>
  <guideline x="0" y="555.0" angle="0" identifier="e34wUdCmXR"/>
  <outline>
    <contour>
      <point x="605.2533333333333" y="-146.0" type="line"/>
      <point x="605.2533333333333" y="1456.0" type="line"/>
      <point x="341.18666666666667" y="1456.0" type="line" smooth="yes"/>
      <point x="173" y="1456"/>
      <point x="60" y="1302"/>
      <point x="59.57333333333333" y="1084.9333333333334" type="curve" smooth="yes"/>
      <point x="60" y="868"/>
      <point x="173" y="714"/>
      <point x="341.18666666666667" y="713.8666666666667" type="curve" smooth="yes"/>
      <point x="428.18666666666667" y="713.8666666666667" type="line"/>
      <point x="428.18666666666667" y="-146.0" type="line"/>
    </contour>
    <contour>
      <point x="747.2533333333333" y="1459.0" type="line"/>
      <point x="747.2533333333333" y="-146.0" type="line"/>
      <point x="924.3199999999999" y="-146.0" type="line"/>
      <point x="924.3199999999999" y="1459.0" type="line"/>
    </contour>
  </outline>
</glyph>
<glyph name="onesuperior" format="2">
  <advance width="671"/>
  <unicode hex="00B9"/>
  <outline>
    <contour>
      <point x="123.0" y="1211.0" type="line"/>
      <point x="294.3333333333333" y="1279.0666666666666" type="line"/>
      <point x="294.3333333333333" y="697.0" type="line"/>
      <point x="456.3333333333333" y="697.0" type="line"/>
      <point x="456.3333333333333" y="1486.0" type="line"/>
      <point x="412.3333333333333" y="1486.0" type="line"/>
      <point x="123.0" y="1370.0" type="line"/>
    </contour>
  </outline>
</glyph>
<glyph name="ordmasculine" format="2">
  <advance width="871"/>
  <unicode hex="00BA"/>
  <guideline x="0" y="1975.0" angle="0" identifier="Jnt0R9CyOf"/>
  <outline>
    <contour>
      <point x="120.32" y="1043.0" type="line"/>
      <point x="120" y="817"/>
      <point x="234" y="691"/>
      <point x="437.52" y="691.0" type="curve" smooth="yes"/>
      <point x="638" y="691"/>
      <point x="751" y="817"/>
      <point x="750.72" y="1043.0" type="curve"/>
      <point x="750.72" y="1124.0" type="line"/>
      <point x="751" y="1350"/>
      <point x="638" y="1477"/>
      <point x="435.52" y="1477.0" type="curve" smooth="yes"/>
      <point x="234" y="1477"/>
      <point x="120" y="1350"/>
      <point x="120.32" y="1124.0" type="curve"/>
    </contour>
    <contour>
      <point x="283.32" y="1124.0" type="line"/>
      <point x="283" y="1259"/>
      <point x="336" y="1336"/>
      <point x="435.52" y="1336.0" type="curve" smooth="yes"/>
      <point x="535" y="1336"/>
      <point x="589" y="1259"/>
      <point x="588.72" y="1124.0" type="curve"/>
      <point x="588.72" y="1043.0" type="line"/>
      <point x="589" y="907"/>
      <point x="535" y="830"/>
      <point x="437.52" y="830.0" type="curve" smooth="yes"/>
      <point x="337" y="830"/>
      <point x="283" y="907"/>
      <point x="283.32" y="1043.0" type="curve"/>
    </contour>
  </outline>
</glyph>
<glyph name="guillemotright" format="2">
  <advance width="1041"/>
  <unicode hex="00BB"/>
  <guideline x="0" y="98.0" angle="0" identifier="MTEldNnfdj"/>
  <guideline x="0" y="443.0" angle="0" identifier="G9bQni2n1K"/>
  <outline>
    <contour>
      <point x="80.74666666666667" y="153.0" type="line"/>
      <point x="242.74666666666667" y="153.0" type="line"/>
      <point x="493.08" y="521.1066666666667" type="line"/>
      <point x="493.08" y="580.1066666666667" type="line"/>
      <point x="242.74666666666667" y="949.0" type="line"/>
      <point x="80.74666666666667" y="949.0" type="line"/>
      <point x="294.08" y="551.0" type="line"/>
    </contour>
    <contour>
      <point x="520.7466666666667" y="153.0" type="line"/>
      <point x="682.7466666666667" y="153.0" type="line"/>
      <point x="933.08" y="521.1066666666667" type="line"/>
      <point x="933.08" y="580.1066666666667" type="line"/>
      <point x="682.7466666666667" y="949.0" type="line"/>
      <point x="520.7466666666667" y="949.0" type="line"/>
      <point x="734.08" y="551.0" type="line"/>
    </contour>
  </outline>
</glyph>
<glyph name="questiondown" format="2">
  <advance width="954"/>
  <unicode hex="00BF"/>
  <guideline x="0" y="-181.0" angle="0" identifier="apukwP5ffL"/>
  <guideline x="0" y="921.0" angle="0" identifier="5ZPZZL8Rim"/>
  <outline>
    <contour>
      <point x="637.28" y="1052.7866666666666" type="curve" smooth="yes"/>
      <point x="637" y="1117"/>
      <point x="595" y="1170"/>
      <point x="516.8533333333334" y="1170.0" type="curve" smooth="yes"/>
      <point x="439" y="1170"/>
      <point x="397" y="1117"/>
      <point x="397.32" y="1052.7866666666666" type="curve" smooth="yes"/>
      <point x="397" y="988"/>
      <point x="440" y="936"/>
      <point x="517.7466666666667" y="935.5733333333334" type="curve" smooth="yes"/>
      <point x="595" y="936"/>
      <point x="637" y="988"/>
    </contour>
    <contour>
      <point x="850.8266666666667" y="53.0" type="line"/>
      <point x="672.9733333333334" y="53.0" type="line"/>
      <point x="672.9733333333334" y="33.0" type="line" smooth="yes"/>
      <point x="673" y="-103"/>
      <point x="611" y="-170"/>
      <point x="493.53333333333336" y="-170.46666666666667" type="curve" smooth="yes"/>
      <point x="376" y="-170"/>
      <point x="320" y="-95"/>
      <point x="320.2" y="46.21333333333333" type="curve" smooth="yes"/>
      <point x="320" y="181"/>
      <point x="381" y="256"/>
      <point x="476.72" y="362.32" type="curve" smooth="yes"/>
      <point x="596" y="495"/>
      <point x="615" y="563"/>
      <point x="615.28" y="728.0" type="curve" smooth="yes"/>
      <point x="615.28" y="738.0" type="line"/>
      <point x="436.4266666666667" y="738.0" type="line"/>
      <point x="436.4266666666667" y="728.0" type="line" smooth="yes"/>
      <point x="436" y="637"/>
      <point x="432" y="551"/>
      <point x="337.2266666666667" y="454.0" type="curve" smooth="yes"/>
      <point x="252" y="367"/>
      <point x="141" y="229"/>
      <point x="141.34666666666666" y="46.21333333333333" type="curve" smooth="yes"/>
      <point x="141" y="-189"/>
      <point x="271" y="-328"/>
      <point x="493.53333333333336" y="-328.0" type="curve" smooth="yes"/>
      <point x="716" y="-328"/>
      <point x="851" y="-196"/>
      <point x="850.8266666666667" y="33.0" type="curve" smooth="yes"/>
    </contour>
  </outline>
</glyph>
<glyph name="AE" format="2">
  <advance width="1716"/>
  <unicode hex="00C6"/>
  <outline>
    <contour>
      <point x="275.2" y="361.93333333333334" type="line"/>
      <point x="375.2" y="518.1733333333333" type="line"/>
      <point x="945.6666666666666" y="518.1733333333333" type="line"/>
      <point x="945.6666666666666" y="361.93333333333334" type="line"/>
    </contour>
    <contour>
      <point x="-1.5999999999999996" y="0.0" type="line"/>
      <point x="185.2" y="0.0" type="line"/>
      <point x="840.6666666666666" y="1255.8666666666666" type="line"/>
      <point x="840.6666666666666" y="0.0" type="line"/>
      <point x="1647.68" y="0.0" type="line"/>
      <point x="1647.68" y="153.53333333333333" type="line"/>
      <point x="1025.52" y="153.53333333333333" type="line"/>
      <point x="1025.52" y="673.7866666666666" type="line"/>
      <point x="1545.68" y="673.7866666666666" type="line"/>
      <point x="1545.68" y="828.2133333333334" type="line"/>
      <point x="1025.52" y="828.2133333333334" type="line"/>
      <point x="1025.52" y="1302.4666666666667" type="line"/>
      <point x="1637.68" y="1302.4666666666667" type="line"/>
      <point x="1637.68" y="1456.0" type="line"/>
      <point x="773.0933333333334" y="1456.0" type="line"/>
    </contour>
  </outline>
</glyph>
<glyph name="multiply" format="2">
  <advance width="921"/>
  <unicode hex="00D7"/>
  <outline>
    <contour>
      <point x="188.21333333333334" y="237.0" type="line"/>
      <point x="836.88" y="991.0" type="line"/>
      <point x="728.88" y="1104.0" type="line"/>
      <point x="80.21333333333334" y="349.0" type="line"/>
    </contour>
    <contour>
      <point x="720.88" y="237.0" type="line"/>
      <point x="839.88" y="360.0" type="line"/>
      <point x="202.21333333333334" y="1104.0" type="line"/>
      <point x="83.21333333333334" y="980.0" type="line"/>
    </contour>
  </outline>
</glyph>
<glyph name="Thorn" format="2">
  <advance width="1093"/>
  <unicode hex="00DE"/>
  <guideline x="0" y="901.0" angle="0" identifier="i9jYwjBDP4"/>
  <guideline x="0" y="555.0" angle="0" identifier="T8KKW8oxop"/>
  <outline>
    <contour>
      <point x="170.0" y="1456.0" type="line"/>
      <point x="170.0" y="0.0" type="line"/>
      <point x="354.1066666666667" y="0.0" type="line"/>
      <point x="354.1066666666667" y="311.32" type="line"/>
      <point x="580.2933333333333" y="311.32" type="line" smooth="yes"/>
      <point x="865" y="313"/>
      <point x="1020" y="450"/>
      <point x="1019.9466666666667" y="740.68" type="curve" smooth="yes"/>
      <point x="1020" y="1031"/>
      <point x="865" y="1165"/>
      <point x="580.2933333333333" y="1164.7866666666666" type="curve" smooth="yes"/>
      <point x="353.2133333333333" y="1164.7866666666666" type="line"/>
      <point x="353.2133333333333" y="1456.0" type="line"/>
    </contour>
    <contour>
      <point x="580.2933333333333" y="1012.0" type="line" smooth="yes"/>
      <point x="770" y="1011"/>
      <point x="836" y="911"/>
      <point x="835.84" y="740.4666666666667" type="curve" smooth="yes"/>
      <point x="836" y="571"/>
      <point x="770" y="465"/>
      <point x="580.2933333333333" y="465.0" type="curve" smooth="yes"/>
      <point x="354.1066666666667" y="465.0" type="line"/>
      <point x="354.1066666666667" y="1012.0" type="line"/>
    </contour>
  </outline>
</glyph>
<glyph name="germandbls" format="2">
  <advance width="1179"/>
  <unicode hex="00DF"/>
  <outline>
    <contour>
      <point x="327.53333333333336" y="1092.0" type="line" name="hr00"/>
      <point x="328" y="1292"/>
      <point x="413" y="1383"/>
      <point x="551.0" y="1383.0" type="curve" smooth="yes"/>
      <point x="661" y="1383"/>
      <point x="724" y="1323"/>
      <point x="724.1333333333333" y="1204.0" type="curve" smooth="yes"/>
      <point x="724" y="1130"/>
      <point x="708" y="1080"/>
      <point x="669.0666666666667" y="1026.0" type="curve" smooth="yes"/>
      <point x="626" y="967"/>
      <point x="563" y="896"/>
      <point x="563.0" y="797.0" type="curve" smooth="yes"/>
      <point x="563" y="675"/>
      <point x="693" y="588"/>
      <point x="789.1333333333333" y="512.0" type="curve" smooth="yes"/>
      <point x="866" y="450"/>
      <point x="927" y="394"/>
      <point x="927.2666666666667" y="302.0" type="curve" smooth="yes"/>
      <point x="927" y="192"/>
      <point x="866" y="131"/>
      <point x="755.0" y="131.0" type="curve" smooth="yes"/>
      <point x="649" y="131"/>
      <point x="591" y="188"/>
      <point x="590.7333333333333" y="295.0" type="curve" smooth="yes"/>
      <point x="590.7333333333333" y="304.0" type="line"/>
      <point x="427.73333333333335" y="304.0" type="line"/>
      <point x="427.73333333333335" y="278.0" type="line" smooth="yes"/>
      <point x="428" y="84"/>
      <point x="544" y="-20"/>
      <point x="753.0" y="-20.0" type="curve" smooth="yes"/>
      <point x="976" y="-20"/>
      <point x="1102" y="89"/>
      <point x="1102.2666666666667" y="282.0" type="curve" smooth="yes"/>
      <point x="1102" y="455"/>
      <point x="1040" y="540"/>
      <point x="935.1333333333333" y="619.0" type="curve" smooth="yes"/>
      <point x="827" y="702"/>
      <point x="735" y="766"/>
      <point x="734.5333333333333" y="830.0" type="curve" smooth="yes"/>
      <point x="735" y="869"/>
      <point x="778" y="922"/>
      <point x="821.0666666666667" y="973.0" type="curve" smooth="yes"/>
      <point x="871" y="1031"/>
      <point x="899" y="1097"/>
      <point x="899.1333333333333" y="1215.0" type="curve" smooth="yes"/>
      <point x="899" y="1411"/>
      <point x="775" y="1534"/>
      <point x="555.0" y="1534.0" type="curve" smooth="yes"/>
      <point x="288" y="1534"/>
      <point x="148" y="1364"/>
      <point x="148.0" y="1092.0" type="curve" smooth="yes"/>
      <point x="148.0" y="0.0" type="line"/>
      <point x="327.53333333333336" y="0.0" type="line"/>
    </contour>
  </outline>
</glyph>
<glyph name="ae" format="2">
  <advance width="1526"/>
  <unicode hex="00E6"/>
  <outline>
    <contour>
      <point x="268.85333333333335" y="309.28" type="curve" smooth="yes"/>
      <point x="269" y="454"/>
      <point x="349" y="518"/>
      <point x="498.36" y="517.7866666666666" type="curve" smooth="yes"/>
      <point x="669.0133333333333" y="517.7866666666666" type="line"/>
      <point x="669.0133333333333" y="346.24" type="line"/>
      <point x="669" y="213"/>
      <point x="552" y="124"/>
      <point x="435.50666666666666" y="124.42666666666666" type="curve" smooth="yes"/>
      <point x="325" y="124"/>
      <point x="269" y="181"/>
    </contour>
    <contour>
      <point x="90.0" y="307.14666666666665" type="curve" smooth="yes"/>
      <point x="90" y="83"/>
      <point x="227" y="-20"/>
      <point x="402.6533333333333" y="-20.0" type="curve" smooth="yes"/>
      <point x="555" y="-20"/>
      <point x="674" y="45"/>
      <point x="744.7333333333333" y="166.54666666666668" type="curve"/>
      <point x="816" y="38"/>
      <point x="941" y="-30"/>
      <point x="1107.9466666666667" y="-30.0" type="curve" smooth="yes"/>
      <point x="1281" y="-30"/>
      <point x="1409" y="62"/>
      <point x="1473.1733333333334" y="184.82666666666665" type="curve"/>
      <point x="1343.3466666666666" y="265.53333333333336" type="line"/>
      <point x="1291" y="186"/>
      <point x="1220" y="118"/>
      <point x="1099.0133333333333" y="118.42666666666666" type="curve" smooth="yes"/>
      <point x="923" y="118"/>
      <point x="848" y="248"/>
      <point x="848.2266666666667" y="483.2" type="curve" smooth="yes"/>
      <point x="848.2266666666667" y="568.8" type="line" smooth="yes"/>
      <point x="848" y="814"/>
      <point x="929" y="934"/>
      <point x="1081.2" y="933.5733333333334" type="curve" smooth="yes"/>
      <point x="1232" y="934"/>
      <point x="1289" y="813"/>
      <point x="1288.8133333333333" y="651.5333333333333" type="curve"/>
      <point x="1288.7066666666667" y="630.2133333333334" type="line"/>
      <point x="768.6533333333333" y="630.2133333333334" type="line"/>
      <point x="768.6533333333333" y="485.7866666666667" type="line"/>
      <point x="1469.56" y="485.7866666666667" type="line"/>
      <point x="1469.56" y="560.0" type="line" smooth="yes"/>
      <point x="1470" y="906"/>
      <point x="1331" y="1082"/>
      <point x="1081.52" y="1082.0" type="curve" smooth="yes"/>
      <point x="957" y="1082"/>
      <point x="858" y="1031"/>
      <point x="792.1866666666667" y="947.04" type="curve"/>
      <point x="742" y="1036"/>
      <point x="643" y="1082"/>
      <point x="502.4666666666667" y="1082.0" type="curve" smooth="yes"/>
      <point x="283" y="1082"/>
      <point x="145" y="949"/>
      <point x="144.85333333333332" y="770.0" type="curve" smooth="yes"/>
      <point x="144.85333333333332" y="765.0" type="line"/>
      <point x="322.70666666666665" y="765.0" type="line"/>
      <point x="322.70666666666665" y="770.0" type="line" smooth="yes"/>
      <point x="323" y="859"/>
      <point x="372" y="938"/>
      <point x="498.36" y="937.5733333333334" type="curve" smooth="yes"/>
      <point x="624" y="938"/>
      <point x="669" y="850"/>
      <point x="669.0133333333333" y="720.0" type="curve" smooth="yes"/>
      <point x="669.0133333333333" y="646.2133333333334" type="line"/>
      <point x="481.04" y="646.2133333333334" type="line" smooth="yes"/>
      <point x="240" y="646"/>
      <point x="90" y="529"/>
    </contour>
  </outline>
</glyph>
<glyph name="eth" format="2">
  <advance width="1025"/>
  <unicode hex="00F0"/>
  <outline>
    <contour>
      <point x="216.68" y="1428.1466666666668" type="line"/>
      <point x="559.4341333333333" y="1338.5095999999999"/>
      <point x="758.1333333333333" y="1097.8717333333334"/>
      <point x="758.1333333333333" y="635.0" type="curve" smooth="yes"/>
      <point x="758.1333333333333" y="535.0" type="line" smooth="yes"/>
      <point x="758.1333333333333" y="304.52"/>
      <point x="691.8533333333334" y="119.49333333333334"/>
      <point x="520.3333333333334" y="119.49333333333334" type="curve" smooth="yes"/>
      <point x="331.3933333333333" y="119.49333333333334"/>
      <point x="266.53333333333336" y="303.17999999999995"/>
      <point x="266.53333333333336" y="468.0" type="curve" smooth="yes"/>
      <point x="266.53333333333336" y="687.76"/>
      <point x="336.69333333333327" y="829.5733333333334"/>
      <point x="532.3333333333334" y="829.5733333333334" type="curve" smooth="yes"/>
      <point x="676.0706666666667" y="829.5733333333334"/>
      <point x="774.6666666666666" y="735.9578666666666"/>
      <point x="774.6666666666666" y="614.0" type="curve"/>
      <point x="843.6666666666666" y="613.0" type="line"/>
      <point x="843.6666666666666" y="793.9"/>
      <point x="714.7933333333334" y="978.0"/>
      <point x="488.3333333333333" y="978.0" type="curve" smooth="yes"/>
      <point x="229.7133333333333" y="978.0"/>
      <point x="85.0" y="776.2"/>
      <point x="85.0" y="468.0" type="curve" smooth="yes"/>
      <point x="85.0" y="195.97999999999996"/>
      <point x="234.93333333333328" y="-20.0"/>
      <point x="516.3333333333334" y="-20.0" type="curve" smooth="yes"/>
      <point x="787.0133333333333" y="-20.0"/>
      <point x="939.6666666666666" y="205.35999999999996"/>
      <point x="939.6666666666666" y="535.0" type="curve"/>
      <point x="939.6666666666666" y="633.0" type="line"/>
      <point x="939.6666666666666" y="1148.6677333333334"/>
      <point x="698.6386666666667" y="1485.2882666666665"/>
      <point x="271.0" y="1581.0" type="curve"/>
    </contour>
    <contour>
      <point x="847.6666666666666" y="1427.0" type="line"/>
      <point x="764.6666666666666" y="1546.0" type="line"/>
      <point x="317.0" y="1181.0" type="line"/>
      <point x="400.0" y="1061.0" type="line"/>
    </contour>
  </outline>
</glyph>
<glyph name="divide" format="2">
  <advance width="935"/>
  <unicode hex="00F7"/>
  <outline>
    <contour>
      <point x="341.3333333333333" y="1065.0" type="curve" smooth="yes"/>
      <point x="341.3333333333333" y="996.66"/>
      <point x="383.25333333333333" y="945.0"/>
      <point x="466.3333333333333" y="945.0" type="curve" smooth="yes"/>
      <point x="548.0733333333334" y="945.0"/>
      <point x="592.3333333333334" y="996.66"/>
      <point x="592.3333333333334" y="1065.0" type="curve" smooth="yes"/>
      <point x="592.3333333333334" y="1136.02"/>
      <point x="548.0733333333334" y="1188.0"/>
      <point x="466.3333333333333" y="1188.0" type="curve" smooth="yes"/>
      <point x="383.25333333333333" y="1188.0"/>
      <point x="341.3333333333333" y="1136.02"/>
    </contour>
    <contour>
      <point x="341.3333333333333" y="288.0" type="curve" smooth="yes"/>
      <point x="341.3333333333333" y="219.66"/>
      <point x="383.25333333333333" y="167.0"/>
      <point x="466.3333333333333" y="167.0" type="curve" smooth="yes"/>
      <point x="548.0733333333334" y="167.0"/>
      <point x="592.3333333333334" y="219.66"/>
      <point x="592.3333333333334" y="288.0" type="curve" smooth="yes"/>
      <point x="592.3333333333334" y="357.68"/>
      <point x="548.0733333333334" y="411.0"/>
      <point x="466.3333333333333" y="411.0" type="curve" smooth="yes"/>
      <point x="383.25333333333333" y="411.0"/>
      <point x="341.3333333333333" y="357.68"/>
    </contour>
    <contour>
      <point x="57.0" y="588.0" type="line"/>
      <point x="877.6666666666666" y="588.0" type="line"/>
      <point x="877.6666666666666" y="768.0" type="line"/>
      <point x="57.0" y="768.0" type="line"/>
    </contour>
  </outline>
</glyph>
<glyph name="thorn" format="2">
  <advance width="1047"/>
  <unicode hex="00FE"/>
  <outline>
    <contour>
      <point x="148.0" y="-416.0" type="line"/>
      <point x="326.74666666666667" y="-416.0" type="line"/>
      <point x="327.6" y="103.6" type="line"/>
      <point x="328.02666666666664" y="103.6" type="line"/>
      <point x="379.2325333333334" y="24.39706666666666"/>
      <point x="464.36799999999994" y="-20.0"/>
      <point x="587.8266666666667" y="-20.0" type="curve" smooth="yes"/>
      <point x="816.3234666666667" y="-20.0"/>
      <point x="961.72" y="201.79999999999995"/>
      <point x="961.72" y="510.0" type="curve" smooth="yes"/>
      <point x="961.72" y="542.0" type="line" smooth="yes"/>
      <point x="961.72" y="850.2"/>
      <point x="816.3234666666667" y="1072.0"/>
      <point x="587.8266666666667" y="1072.0" type="curve" smooth="yes"/>
      <point x="464.36799999999994" y="1072.0"/>
      <point x="370.5730666666667" y="1010.9013333333335"/>
      <point x="319.70666666666665" y="929.7866666666666" type="curve"/>
      <point x="319.70666666666665" y="1536.0" type="line"/>
      <point x="148.0" y="1536.0" type="line"/>
    </contour>
    <contour>
      <point x="326.85333333333335" y="279.84000000000003" type="curve"/>
      <point x="326.85333333333335" y="770.3733333333333" type="line"/>
      <point x="358.81679999999994" y="845.0202666666668"/>
      <point x="438.35759999999993" y="923.5733333333334"/>
      <point x="549.6133333333333" y="923.5733333333334" type="curve" smooth="yes"/>
      <point x="705.1247999999999" y="923.5733333333334"/>
      <point x="778.8666666666667" y="785.5941333333334"/>
      <point x="778.8666666666667" y="568.8" type="curve" smooth="yes"/>
      <point x="778.8666666666667" y="483.2" type="line" smooth="yes"/>
      <point x="778.8666666666667" y="266.4058666666667"/>
      <point x="703.0522666666667" y="128.42666666666668"/>
      <point x="545.1466666666666" y="128.42666666666668" type="curve" smooth="yes"/>
      <point x="425.5114666666667" y="128.42666666666668"/>
      <point x="355.2256" y="214.76959999999997"/>
    </contour>
  </outline>
</glyph>
<glyph name="kgreenlandic" format="2">
  <advance width="977"/>
  <unicode hex="0138"/>
  <outline>
    <contour>
      <point x="335.53333333333336" y="1055.2" type="line"/>
      <point x="155.0" y="1055.2" type="line"/>
      <point x="155.0" y="0.0" type="line"/>
      <point x="335.53333333333336" y="0.0" type="line"/>
    </contour>
    <contour>
      <point x="939.44" y="1055.2" type="line"/>
      <point x="724.3733333333333" y="1055.2" type="line"/>
      <point x="432.0" y="620.4266666666666" type="line"/>
      <point x="250.0" y="620.4266666666666" type="line"/>
      <point x="250.0" y="465.5733333333333" type="line"/>
      <point x="511.64" y="465.5733333333333" type="line"/>
    </contour>
    <contour>
      <point x="764.6666666666666" y="0.0" type="line"/>
      <point x="993.3066666666666" y="0.0" type="line"/>
      <point x="536.64" y="624.0" type="line"/>
      <point x="423.0" y="490.0" type="line"/>
    </contour>
  </outline>
</glyph>
<glyph name="OE" format="2">
  <advance width="1699"/>
  <unicode hex="0152"/>
  <outline>
    <contour>
      <point x="650.4666666666667" y="1477.0" type="curve" smooth="yes"/>
      <point x="304.74666666666667" y="1477.0"/>
      <point x="115.0" y="1218.22"/>
      <point x="115.0" y="772.0" type="curve" smooth="yes"/>
      <point x="115.0" y="682.0" type="line" smooth="yes"/>
      <point x="115.0" y="223.71999999999997"/>
      <point x="322.7066666666667" y="-21.0"/>
      <point x="609.4666666666667" y="-21.0" type="curve" smooth="yes"/>
      <point x="711.3066666666667" y="-21.0"/>
      <point x="811.6866666666667" y="-9.38"/>
      <point x="901.4666666666667" y="0.0" type="curve"/>
      <point x="1631.44" y="0.0" type="line"/>
      <point x="1631.44" y="153.42666666666668" type="line"/>
      <point x="1008.4266666666666" y="153.42666666666668" type="line"/>
      <point x="1008.4266666666666" y="673.8933333333333" type="line"/>
      <point x="1529.44" y="673.8933333333333" type="line"/>
      <point x="1529.44" y="828.2133333333334" type="line"/>
      <point x="1008.4266666666666" y="828.2133333333334" type="line"/>
      <point x="1008.4266666666666" y="1302.4666666666667" type="line"/>
      <point x="1621.44" y="1302.4666666666667" type="line"/>
      <point x="1621.44" y="1456.0" type="line"/>
      <point x="901.4666666666667" y="1456.0" type="line"/>
      <point x="811.6866666666667" y="1466.72"/>
      <point x="694.6866666666667" y="1477.0"/>
    </contour>
    <contour>
      <point x="301.06666666666666" y="682.0" type="curve" smooth="yes"/>
      <point x="301.06666666666666" y="774.0" type="line" smooth="yes"/>
      <point x="301.06666666666666" y="1117.04"/>
      <point x="417.2866666666667" y="1325.0"/>
      <point x="654.4666666666667" y="1325.0" type="curve" smooth="yes"/>
      <point x="683.9466666666667" y="1325.0"/>
      <point x="753.7866666666666" y="1319.38"/>
      <point x="823.4666666666667" y="1310.0" type="curve"/>
      <point x="823.4666666666667" y="143.0" type="line"/>
      <point x="772.5466666666667" y="134.96"/>
      <point x="723.4866666666667" y="128.0"/>
      <point x="652.4666666666667" y="128.0" type="curve" smooth="yes"/>
      <point x="421.9866666666667" y="128.0"/>
      <point x="301.06666666666666" y="328.23999999999995"/>
    </contour>
  </outline>
</glyph>
<glyph name="oe" format="2">
  <advance width="1622"/>
  <unicode hex="0153"/>
  <outline>
    <contour>
      <point x="267.85333333333335" y="568.8" type="line" smooth="yes"/>
      <point x="267.85333333333335" y="789.6141333333334"/>
      <point x="343.2304" y="933.5733333333334"/>
      <point x="515.7866666666666" y="933.5733333333334" type="curve" smooth="yes"/>
      <point x="688.3429333333333" y="933.5733333333334"/>
      <point x="764.6133333333333" y="795.7424"/>
      <point x="764.6133333333333" y="568.8" type="curve" smooth="yes"/>
      <point x="764.6133333333333" y="483.2" type="line" smooth="yes"/>
      <point x="764.6133333333333" y="262.2429333333333"/>
      <point x="681.1605333333334" y="118.42666666666666"/>
      <point x="515.7866666666666" y="118.42666666666666" type="curve" smooth="yes"/>
      <point x="350.4128" y="118.42666666666666"/>
      <point x="267.85333333333335" y="262.3858666666667"/>
      <point x="267.85333333333335" y="483.2" type="curve" smooth="yes"/>
    </contour>
    <contour>
      <point x="853.72" y="904.4133333333333" type="curve"/>
      <point x="786.2197333333334" y="1012.8282666666667"/>
      <point x="669.1784000000001" y="1081.8933333333334"/>
      <point x="514.5066666666667" y="1081.8933333333334" type="curve" smooth="yes"/>
      <point x="252.74213333333336" y="1081.8933333333334"/>
      <point x="85.0" y="884.8613333333334"/>
      <point x="85.0" y="542.0" type="curve" smooth="yes"/>
      <point x="85.0" y="510.0" type="line" smooth="yes"/>
      <point x="85.0" y="167.1386666666666"/>
      <point x="253.53786666666662" y="-30.0"/>
      <point x="512.5866666666667" y="-30.0" type="curve" smooth="yes"/>
      <point x="668.5448" y="-30.0"/>
      <point x="783.8066666666666" y="35.45599999999999"/>
      <point x="853.9333333333334" y="146.58666666666667" type="curve"/>
      <point x="922.8629333333333" y="35.31306666666666"/>
      <point x="1040.5157333333334" y="-30.0"/>
      <point x="1207.5333333333333" y="-30.0" type="curve" smooth="yes"/>
      <point x="1377.9992" y="-30.0"/>
      <point x="1505.9141333333332" y="61.58240000000001"/>
      <point x="1570.52" y="184.82666666666665" type="curve"/>
      <point x="1440.6933333333334" y="265.53333333333336" type="line"/>
      <point x="1388.7728" y="186.3304"/>
      <point x="1316.1256" y="118.42666666666666"/>
      <point x="1195.2933333333333" y="118.42666666666666" type="curve" smooth="yes"/>
      <point x="1018.9136000000001" y="118.42666666666666"/>
      <point x="945.5733333333333" y="247.8781333333333"/>
      <point x="945.5733333333333" y="483.2" type="curve" smooth="yes"/>
      <point x="945.5733333333333" y="568.8" type="line" smooth="yes"/>
      <point x="945.5733333333333" y="813.6984"/>
      <point x="1025.6914666666667" y="933.5733333333334"/>
      <point x="1179.72" y="933.5733333333334" type="curve" smooth="yes"/>
      <point x="1328.8352" y="933.5733333333334"/>
      <point x="1386.0170666666666" y="812.6727999999999"/>
      <point x="1386.16" y="651.5333333333333" type="curve"/>
      <point x="1386.0533333333333" y="630.2133333333334" type="line"/>
      <point x="866.0" y="630.2133333333334" type="line"/>
      <point x="866.0" y="485.7866666666667" type="line"/>
      <point x="1566.9066666666668" y="485.7866666666667" type="line"/>
      <point x="1566.9066666666668" y="560.0" type="line" smooth="yes"/>
      <point x="1566.9066666666668" y="905.5413333333333"/>
      <point x="1427.6450666666667" y="1082.0"/>
      <point x="1181.8533333333332" y="1082.0" type="curve" smooth="yes"/>
      <point x="1034.3104" y="1082.0"/>
      <point x="920.0232000000001" y="1013.5429333333334"/>
    </contour>
  </outline>
</glyph>
<glyph name="Schwa" format="2">
  <advance width="1321"/>
  <unicode hex="018F"/>
  <outline>
    <contour>
      <point x="64.0" y="1199.0" type="curve"/>
      <point x="157.0" y="1126.0" type="line"/>
      <point x="247.11946666666665" y="1285.0848"/>
      <point x="398.45466666666664" y="1375.0"/>
      <point x="588.4666666666667" y="1375.0" type="curve" smooth="yes"/>
      <point x="868.5266666666666" y="1375.0"/>
      <point x="1047.2533333333333" y="1148.3200000000002"/>
      <point x="1049.9333333333334" y="749.0" type="curve" smooth="yes"/>
      <point x="1052.6133333333335" y="364.41999999999996"/>
      <point x="920.8666666666668" y="97.0"/>
      <point x="639.4666666666667" y="97.0" type="curve" smooth="yes"/>
      <point x="418.2952" y="97.0"/>
      <point x="298.0" y="235.8157333333333"/>
      <point x="298.0" y="481.0" type="curve" smooth="yes"/>
      <point x="298.0" y="556.0" type="line"/>
      <point x="602.4666666666667" y="562.0" type="line"/>
      <point x="1102.9333333333334" y="554.0" type="line"/>
      <point x="1102.9333333333334" y="686.0" type="line"/>
      <point x="102.0" y="686.0" type="line"/>
      <point x="102.0" y="578.0" type="line" smooth="yes"/>
      <point x="102.0" y="184.8082666666666"/>
      <point x="289.55333333333334" y="-30.0"/>
      <point x="629.4666666666667" y="-30.0" type="curve" smooth="yes"/>
      <point x="1018.0666666666667" y="-30.0"/>
      <point x="1240.9333333333334" y="328.03999999999996"/>
      <point x="1240.9333333333334" y="789.0" type="curve" smooth="yes"/>
      <point x="1240.9333333333334" y="1197.7"/>
      <point x="1052.6866666666667" y="1519.0"/>
      <point x="606.4666666666667" y="1519.0" type="curve" smooth="yes"/>
      <point x="381.5253333333334" y="1519.0"/>
      <point x="192.92586666666668" y="1405.7887999999998"/>
    </contour>
  </outline>
</glyph>
<glyph name="florin" format="2">
  <advance width="953"/>
  <unicode hex="0192"/>
  <outline>
    <contour>
      <point x="796.5333333333333" y="878.4266666666666" type="line"/>
      <point x="519.2666666666667" y="878.4266666666666" type="line"/>
      <point x="519.2666666666667" y="1126.0" type="line" smooth="yes"/>
      <point x="514.4784000000001" y="1257.32"/>
      <point x="564.5999999999999" y="1320.0"/>
      <point x="658.4" y="1320.0" type="curve" smooth="yes"/>
      <point x="715.3946666666668" y="1320.0"/>
      <point x="752.2879999999999" y="1305.3282666666667"/>
      <point x="810.5333333333333" y="1259.0" type="curve"/>
      <point x="891.5333333333333" y="1404.0" type="line"/>
      <point x="810.4008" y="1465.7471999999998"/>
      <point x="751.684" y="1487.0"/>
      <point x="654.4" y="1487.0" type="curve" smooth="yes"/>
      <point x="444.02" y="1487.0"/>
      <point x="334.26666666666665" y="1360.5"/>
      <point x="334.26666666666665" y="1126.0" type="curve" smooth="yes"/>
      <point x="334.26666666666665" y="878.4266666666666" type="line"/>
      <point x="129.0" y="878.4266666666666" type="line"/>
      <point x="129.0" y="743.5733333333334" type="line"/>
      <point x="334.26666666666665" y="743.5733333333334" type="line"/>
      <point x="334.26666666666665" y="111.0" type="line" smooth="yes"/>
      <point x="329.4784" y="-171.29333333333335"/>
      <point x="259.1546666666667" y="-284.0"/>
      <point x="103.0" y="-284.0" type="curve" smooth="yes"/>
      <point x="84.24" y="-284.0"/>
      <point x="25.1" y="-279.04"/>
      <point x="5.0" y="-271.0" type="curve"/>
      <point x="-9.0" y="-420.0" type="line"/>
      <point x="28.520000000000003" y="-433.4"/>
      <point x="61.46" y="-437.0"/>
      <point x="103.0" y="-437.0" type="curve" smooth="yes"/>
      <point x="397.92506666666674" y="-437.0"/>
      <point x="519.2666666666667" y="-275.5453333333334"/>
      <point x="519.2666666666667" y="111.0" type="curve" smooth="yes"/>
      <point x="519.2666666666667" y="743.5733333333334" type="line"/>
      <point x="796.5333333333333" y="743.5733333333334" type="line"/>
    </contour>
  </outline>
</glyph>
<glyph name="schwa" format="2">
  <advance width="989"/>
  <unicode hex="0259"/>
  <outline>
    <contour>
      <point x="903.5333333333333" y="542.0" type="line" smooth="yes"/>
      <point x="903.5333333333333" y="887.2554666666667"/>
      <point x="737.6253333333334" y="1082.0"/>
      <point x="433.26666666666665" y="1082.0" type="curve" smooth="yes"/>
      <point x="277.75519999999995" y="1082.0"/>
      <point x="146.1530666666667" y="1006.2296000000001"/>
      <point x="60.0" y="877.0" type="curve"/>
      <point x="180.0" y="782.0" type="line"/>
      <point x="249.87653333333336" y="875.5677333333334"/>
      <point x="339.9669333333333" y="930.0"/>
      <point x="433.26666666666665" y="930.0" type="curve" smooth="yes"/>
      <point x="615.6317333333334" y="930.0"/>
      <point x="713.5333333333333" y="789.1496000000001"/>
      <point x="713.5333333333333" y="542.0" type="curve" smooth="yes"/>
      <point x="713.5333333333333" y="510.0" type="line" smooth="yes"/>
      <point x="713.5333333333333" y="262.8504"/>
      <point x="622.4629333333332" y="122.0"/>
      <point x="455.26666666666665" y="122.0" type="curve" smooth="yes"/>
      <point x="316.9250666666666" y="122.0"/>
      <point x="240.34" y="221.6928"/>
      <point x="239.0" y="396.0" type="curve"/>
      <point x="240.0" y="420.0" type="line"/>
      <point x="789.5333333333333" y="420.0" type="line"/>
      <point x="789.5333333333333" y="568.0" type="line"/>
      <point x="52.0" y="568.0" type="line"/>
      <point x="52.0" y="492.0" type="line" smooth="yes"/>
      <point x="52.0" y="156.03519999999997"/>
      <point x="197.91093333333333" y="-30.0"/>
      <point x="463.26666666666665" y="-30.0" type="curve" smooth="yes"/>
      <point x="745.3813333333333" y="-30.0"/>
      <point x="903.5333333333333" y="164.74453333333332"/>
      <point x="903.5333333333333" y="510.0" type="curve" smooth="yes"/>
    </contour>
  </outline>
</glyph>
<glyph name="ogonek" format="2">
  <advance width="1024"/>
  <unicode hex="02DB"/>
  <outline>
    <contour>
      <point x="533.0" y="57.0" type="line"/>
      <point x="350.76" y="-27.42"/>
      <point x="275.0" y="-135.8"/>
      <point x="275.0" y="-243.0" type="curve" smooth="yes"/>
      <point x="275.0" y="-367.62"/>
      <point x="358.46" y="-434.0"/>
      <point x="467.0" y="-434.0" type="curve" smooth="yes"/>
      <point x="546.06" y="-434.0"/>
      <point x="594.5" y="-410.1"/>
      <point x="628.0" y="-390.0" type="curve"/>
      <point x="614.0" y="-268.0" type="line"/>
      <point x="593.9" y="-278.72"/>
      <point x="558.22" y="-295.0"/>
      <point x="514.0" y="-295.0" type="curve" smooth="yes"/>
      <point x="456.38" y="-295.0"/>
      <point x="436.0" y="-266.22"/>
      <point x="436.0" y="-222.0" type="curve" smooth="yes"/>
      <point x="436.0" y="-134.89999999999998"/>
      <point x="521.24" y="-64.32000000000001"/>
      <point x="607.0" y="0.0" type="curve"/>
    </contour>
  </outline>
</glyph>
<glyph name="hungarumlaut" format="2">
  <advance width="1024"/>
  <unicode hex="02DD"/>
  <outline>
    <contour>
      <point x="339.12" y="1290.0" type="line"/>
      <point x="418.76" y="1204.0" type="line"/>
      <point x="696.32" y="1479.0" type="line"/>
      <point x="563.1466666666666" y="1584.0" type="line"/>
    </contour>
    <contour>
      <point x="627.68" y="1290.0" type="line"/>
      <point x="706.4266666666666" y="1204.0" type="line"/>
      <point x="984.88" y="1479.0" type="line"/>
      <point x="851.7066666666667" y="1584.0" type="line"/>
    </contour>
  </outline>
</glyph>
<glyph name="breveinvertedcomb" format="2">
  <advance width="1024"/>
  <unicode hex="030F"/>
  <outline>
    <contour>
      <point x="272.0" y="1198.0" type="line"/>
      <point x="320.24" y="1279.74"/>
      <point x="399.44" y="1354.0"/>
      <point x="512.0" y="1354.0" type="curve" smooth="yes"/>
      <point x="617.86" y="1354.0"/>
      <point x="698.1" y="1274.38"/>
      <point x="745.0" y="1198.0" type="curve"/>
      <point x="849.0" y="1251.0" type="line"/>
      <point x="792.72" y="1403.76"/>
      <point x="664.4200000000001" y="1518.0"/>
      <point x="513.0" y="1518.0" type="curve" smooth="yes"/>
      <point x="344.15999999999997" y="1518.0"/>
      <point x="223.9" y="1384.66"/>
      <point x="177.0" y="1252.0" type="curve"/>
    </contour>
  </outline>
</glyph>
<glyph name="dieresisbelowcomb" format="2">
  <advance width="1024"/>
  <unicode hex="0324"/>
  <outline>
    <contour>
      <point x="261.58666666666664" y="-321.74666666666667" type="curve" smooth="yes"/>
      <point x="261.58666666666664" y="-380.5101333333334"/>
      <point x="300.3133333333333" y="-426.70666666666665"/>
      <point x="371.3333333333333" y="-426.70666666666665" type="curve" smooth="yes"/>
      <point x="444.1221333333333" y="-426.70666666666665"/>
      <point x="481.97333333333336" y="-380.93893333333335"/>
      <point x="481.97333333333336" y="-321.74666666666667" type="curve" smooth="yes"/>
      <point x="481.97333333333336" y="-260.58906666666667"/>
      <point x="443.5504" y="-214.0"/>
      <point x="371.3333333333333" y="-214.0" type="curve" smooth="yes"/>
      <point x="299.8845333333333" y="-214.0"/>
      <point x="261.58666666666664" y="-260.01733333333334"/>
    </contour>
    <contour>
      <point x="624.2133333333334" y="-323.53333333333336" type="curve" smooth="yes"/>
      <point x="624.2133333333334" y="-382.29679999999996"/>
      <point x="661.7429333333334" y="-428.49333333333334"/>
      <point x="733.96" y="-428.49333333333334" type="curve" smooth="yes"/>
      <point x="805.5517333333333" y="-428.49333333333334"/>
      <point x="844.6" y="-382.7256"/>
      <point x="844.6" y="-323.53333333333336" type="curve" smooth="yes"/>
      <point x="844.6" y="-262.3757333333333"/>
      <point x="804.98" y="-215.78666666666666"/>
      <point x="733.96" y="-215.78666666666666" type="curve" smooth="yes"/>
      <point x="661.3141333333333" y="-215.78666666666666"/>
      <point x="624.2133333333334" y="-261.804"/>
    </contour>
  </outline>
</glyph>
<glyph name="brevebelowcomb" format="2">
  <advance width="1024"/>
  <unicode hex="032E"/>
  <outline>
    <contour>
      <point x="759.2266666666667" y="-141.29333333333332" type="line"/>
      <point x="709.9861333333333" y="-224.03386666666665"/>
      <point x="628.9194666666667" y="-298.46666666666664"/>
      <point x="513.7866666666666" y="-298.46666666666664" type="curve" smooth="yes"/>
      <point x="405.6397333333333" y="-298.46666666666664"/>
      <point x="323.4968" y="-218.53093333333334"/>
      <point x="275.4533333333333" y="-141.29333333333332" type="curve"/>
      <point x="171.88" y="-196.0" type="line"/>
      <point x="229.0176" y="-348.76"/>
      <point x="359.32933333333335" y="-463.0"/>
      <point x="512.8933333333333" y="-463.0" type="curve" smooth="yes"/>
      <point x="684.3061333333335" y="-463.0"/>
      <point x="806.5416" y="-329.65999999999997"/>
      <point x="854.0133333333333" y="-197.0" type="curve"/>
    </contour>
  </outline>
</glyph>
<glyph name="numeralsign" format="2">
  <advance width="578"/>
  <unicode hex="0374"/>
  <outline>
    <contour>
      <point x="236.57333333333332" y="1073.0" type="line"/>
      <point x="387.5733333333333" y="1537.0" type="line"/>
      <point x="202.57333333333332" y="1556.0" type="line"/>
      <point x="113.57333333333334" y="1103.0" type="line"/>
    </contour>
  </outline>
</glyph>
<glyph name="Delta" format="2">
  <advance width="1120"/>
  <unicode hex="0394"/>
  <outline>
    <contour>
      <point x="20.96" y="0.0" type="line"/>
      <point x="1098.9466666666667" y="0.0" type="line"/>
      <point x="1098.9466666666667" y="107.0" type="line"/>
      <point x="655.28" y="1466.0" type="line"/>
      <point x="463.62666666666667" y="1466.0" type="line"/>
      <point x="20.96" y="107.0" type="line"/>
    </contour>
    <contour>
      <point x="216.77333333333334" y="154.42666666666668" type="line"/>
      <point x="521.7066666666667" y="1107.1466666666668" type="line" smooth="yes"/>
      <point x="535.3925333333333" y="1152.5637333333332"/>
      <point x="546.0570666666666" y="1192.1237333333333"/>
      <point x="554.24" y="1235.1466666666668" type="curve"/>
      <point x="562.4533333333334" y="1235.1466666666668" type="line"/>
      <point x="570.6362666666665" y="1192.1237333333333"/>
      <point x="578.1741333333333" y="1152.5637333333332"/>
      <point x="593.2" y="1107.1466666666668" type="curve" smooth="yes"/>
      <point x="896.0266666666666" y="154.42666666666668" type="line"/>
    </contour>
  </outline>
</glyph>
<glyph name="Lambda" format="2">
  <advance width="1068"/>
  <unicode hex="039B"/>
  <outline>
    <contour>
      <point x="0.0" y="0.0" type="line"/>
      <point x="181.28" y="0.0" type="line"/>
      <point x="492.92" y="1107.1466666666668" type="line" smooth="yes"/>
      <point x="505.4088" y="1152.5637333333332"/>
      <point x="519.9504" y="1192.1237333333333"/>
      <point x="528.1333333333333" y="1235.1466666666668" type="curve"/>
      <point x="536.3466666666667" y="1235.1466666666668" type="line"/>
      <point x="544.5296000000001" y="1192.1237333333333"/>
      <point x="557.4274666666666" y="1152.5637333333332"/>
      <point x="569.7733333333333" y="1107.1466666666668" type="curve" smooth="yes"/>
      <point x="879.2" y="0.0" type="line"/>
      <point x="1067.5866666666666" y="0.0" type="line"/>
      <point x="629.1733333333333" y="1466.0" type="line"/>
      <point x="437.52" y="1466.0" type="line"/>
    </contour>
  </outline>
</glyph>
<glyph name="Xi" format="2">
  <advance width="1033"/>
  <unicode hex="039E"/>
  <outline>
    <contour>
      <point x="68.0" y="0.0" type="line"/>
      <point x="964.8" y="0.0" type="line"/>
      <point x="964.8" y="173.53333333333333" type="line"/>
      <point x="68.0" y="173.53333333333333" type="line"/>
    </contour>
    <contour>
      <point x="170.0" y="656.64" type="line"/>
      <point x="862.8" y="656.64" type="line"/>
      <point x="862.8" y="831.0666666666667" type="line"/>
      <point x="170.0" y="831.0666666666667" type="line"/>
    </contour>
    <contour>
      <point x="68.0" y="1282.4666666666667" type="line"/>
      <point x="964.8" y="1282.4666666666667" type="line"/>
      <point x="964.8" y="1456.0" type="line"/>
      <point x="68.0" y="1456.0" type="line"/>
    </contour>
  </outline>
</glyph>
<glyph name="Sigma" format="2">
  <advance width="1017"/>
  <unicode hex="03A3"/>
  <outline>
    <contour>
      <point x="39.093333333333334" y="0.0" type="line"/>
      <point x="977.4933333333333" y="0.0" type="line"/>
      <point x="977.4933333333333" y="153.53333333333333" type="line"/>
      <point x="242.61333333333334" y="153.53333333333333" type="line"/>
      <point x="243.78666666666666" y="135.0" type="line"/>
      <point x="602.6933333333334" y="724.9333333333333" type="line"/>
      <point x="602.6933333333334" y="756.0" type="line"/>
      <point x="258.76" y="1322.0" type="line"/>
      <point x="234.36" y="1302.5733333333333" type="line"/>
      <point x="943.7066666666667" y="1302.5733333333333" type="line"/>
      <point x="943.7066666666667" y="1456.0" type="line"/>
      <point x="52.879999999999995" y="1456.0" type="line"/>
      <point x="52.879999999999995" y="1319.1866666666667" type="line"/>
      <point x="427.06666666666666" y="702.0" type="line"/>
      <point x="416.3466666666667" y="748.0" type="line"/>
      <point x="39.093333333333334" y="124.57333333333334" type="line"/>
    </contour>
  </outline>
</glyph>
<glyph name="Psi" format="2">
  <advance width="1535"/>
  <unicode hex="03A8"/>
  <outline>
    <contour>
      <point x="674.7866666666666" y="0.0" type="line"/>
      <point x="858.0" y="0.0" type="line"/>
      <point x="858.0" y="1456.0" type="line"/>
      <point x="674.7866666666666" y="1456.0" type="line"/>
    </contour>
    <contour>
      <point x="734.4666666666667" y="361.0" type="line"/>
      <point x="705.4" y="361.0" type="line" smooth="yes"/>
      <point x="332.7013333333333" y="361.0"/>
      <point x="155.0" y="535.38"/>
      <point x="155.0" y="928.0" type="curve" smooth="yes"/>
      <point x="155.0" y="1456.0" type="line"/>
      <point x="338.96" y="1456.0" type="line"/>
      <point x="338.96" y="926.0" type="line" smooth="yes"/>
      <point x="338.96" y="588.8202666666666"/>
      <point x="487.9626666666666" y="519.8933333333333"/>
      <point x="714.3333333333334" y="519.8933333333333" type="curve" smooth="yes"/>
      <point x="734.4666666666667" y="519.8933333333333" type="line"/>
    </contour>
    <contour>
      <point x="799.2133333333334" y="361.0" type="line"/>
      <point x="799.2133333333334" y="519.8933333333333" type="line"/>
      <point x="819.6666666666666" y="519.8933333333333" type="line" smooth="yes"/>
      <point x="1047.0914666666667" y="519.8933333333333"/>
      <point x="1194.72" y="588.8202666666666"/>
      <point x="1194.72" y="926.0" type="curve" smooth="yes"/>
      <point x="1194.72" y="1456.0" type="line"/>
      <point x="1378.68" y="1456.0" type="line"/>
      <point x="1378.68" y="928.0" type="line" smooth="yes"/>
      <point x="1378.68" y="535.38"/>
      <point x="1200.9786666666669" y="361.0"/>
      <point x="828.28" y="361.0" type="curve" smooth="yes"/>
    </contour>
  </outline>
</glyph>
<glyph name="Omega" format="2">
  <advance width="1161"/>
  <unicode hex="03A9"/>
  <anchor x="46.57333333333334" y="1456.0" name="GRK_topleft"/>
  <outline>
    <contour>
      <point x="33.70666666666666" y="0.0" type="line"/>
      <point x="491.25333333333333" y="0.0" type="line"/>
      <point x="491.25333333333333" y="437.0" type="line"/>
      <point x="304.52879999999993" y="478.54"/>
      <point x="219.66666666666669" y="641.5933333333332"/>
      <point x="219.66666666666669" y="843.9333333333333" type="curve"/>
      <point x="219.66666666666669" y="899.9333333333333" type="line"/>
      <point x="219.66666666666669" y="1173.2933333333335"/>
      <point x="344.16453333333334" y="1326.4666666666667"/>
      <point x="579.9866666666667" y="1326.4666666666667" type="curve"/>
      <point x="815.8088" y="1326.4666666666667"/>
      <point x="940.3066666666666" y="1173.2933333333335"/>
      <point x="940.3066666666666" y="899.9333333333333" type="curve"/>
      <point x="940.3066666666666" y="843.9333333333333" type="line"/>
      <point x="940.3066666666666" y="641.5933333333332"/>
      <point x="854.2474666666667" y="478.54"/>
      <point x="668.72" y="437.0" type="curve"/>
      <point x="668.72" y="0.0" type="line"/>
      <point x="1127.16" y="0.0" type="line"/>
      <point x="1127.16" y="153.64" type="line"/>
      <point x="833.5733333333334" y="153.64" type="line"/>
      <point x="833.5733333333334" y="321.50666666666666" type="line"/>
      <point x="1018.672" y="404.58666666666664"/>
      <point x="1127.16" y="563.8733333333332"/>
      <point x="1127.16" y="843.9333333333333" type="curve"/>
      <point x="1127.16" y="899.9333333333333" type="line"/>
      <point x="1127.16" y="1275.1333333333334"/>
      <point x="913.8610666666666" y="1486.0"/>
      <point x="579.9866666666667" y="1486.0" type="curve"/>
      <point x="247.30933333333337" y="1486.0"/>
      <point x="33.70666666666666" y="1275.1333333333334"/>
      <point x="33.70666666666666" y="899.9333333333333" type="curve"/>
      <point x="33.70666666666666" y="843.9333333333333" type="line"/>
      <point x="33.70666666666666" y="563.8733333333332"/>
      <point x="141.3013333333333" y="404.58666666666664"/>
      <point x="326.4" y="321.50666666666666" type="curve"/>
      <point x="326.4" y="153.64" type="line"/>
      <point x="33.70666666666666" y="153.64" type="line"/>
    </contour>
  </outline>
</glyph>
